<?xml version="1.0" encoding="utf-8"?>
<!-- Generator: Adobe Illustrator 18.1.1, SVG Export Plug-In . SVG Version: 6.00 Build 0)  -->
<svg version="1.1" id="Layer_1" xmlns="http://www.w3.org/2000/svg" xmlns:xlink="http://www.w3.org/1999/xlink" x="0px" y="0px"
	 viewBox="0 0 143.3 86.7" enable-background="new 0 0 143.3 86.7" xml:space="preserve">
<g>
	<path d="M13.8,29.7c-4,0-7-1-9.1-2.9c-2.1-1.9-3.2-4.7-3.2-8.3V0.4h6V18c0,2.3,0.5,4,1.6,5.2c1.1,1.2,2.7,1.8,4.8,1.8
		c2.2,0,3.8-0.6,5-1.9s1.7-3,1.7-5.3V0.4h6v17.8c0,3.7-1.1,6.5-3.4,8.5S17.9,29.7,13.8,29.7z"/>
	<path d="M54.7,21c0,2.8-1,5-3.1,6.5s-5.2,2.2-9.2,2.2c-3.7,0-6.6-0.7-8.7-2s-3.5-3.3-4.1-6l5.8-1c0.4,1.5,1.2,2.6,2.3,3.3
		s2.7,1,4.8,1c4.2,0,6.3-1.3,6.3-3.9c0-0.8-0.2-1.5-0.7-2c-0.5-0.5-1.2-1-2.1-1.3c-0.9-0.4-2.6-0.8-5.1-1.3
		c-2.2-0.5-3.7-0.9-4.5-1.2s-1.6-0.7-2.3-1.1s-1.3-0.9-1.7-1.5c-0.5-0.6-0.9-1.3-1.1-2.1C31,10,30.9,9.1,30.9,8.1c0-2.6,1-4.6,2.9-6
		S38.6,0,42.4,0c3.6,0,6.3,0.6,8.1,1.7c1.8,1.1,3,3,3.5,5.6L48.1,8c-0.3-1.2-0.9-2.2-1.8-2.8c-0.9-0.6-2.2-0.9-4-0.9
		c-3.7,0-5.5,1.1-5.5,3.4c0,0.8,0.2,1.4,0.6,1.8c0.4,0.5,1,0.9,1.7,1.2s2.3,0.8,4.7,1.3c2.8,0.6,4.8,1.1,6,1.6s2.1,1.1,2.8,1.7
		s1.2,1.5,1.6,2.4S54.7,19.8,54.7,21z"/>
	<path d="M78,29.3l-6.7-11h-7.1v11h-6V0.4h14.4c3.4,0,6.1,0.7,8,2.2s2.8,3.6,2.8,6.4c0,2-0.6,3.8-1.7,5.2S79,16.7,77,17.2l7.8,12.1
		H78z M77.3,9.3c0-2.8-1.8-4.2-5.3-4.2h-7.8v8.5h7.9c1.7,0,3-0.4,3.9-1.1S77.3,10.7,77.3,9.3z"/>
	<path d="M113.2,21.1c0,2.6-1,4.7-3,6.1s-4.7,2.2-8.2,2.2H87.5V0.4h13.2c3.5,0,6.2,0.6,8,1.8s2.7,3,2.7,5.4c0,1.6-0.5,3-1.4,4.2
		s-2.3,1.9-4.2,2.3c2.3,0.3,4.1,1,5.3,2.2S113.2,19.1,113.2,21.1z M105.4,8.5c0-1.3-0.4-2.2-1.2-2.8c-0.8-0.5-2.1-0.8-3.7-0.8h-6.9
		v7.2h6.9c1.7,0,2.9-0.3,3.7-0.9C105,10.6,105.4,9.7,105.4,8.5z M107.1,20.6c0-2.7-1.9-4.1-5.8-4.1h-7.7v8.3h7.9
		c1.9,0,3.4-0.4,4.3-1.1S107.1,22,107.1,20.6z"/>
	<path d="M130.4,25c3.7,0,6.2-1.8,7.6-5.5l5.3,2c-1.1,2.8-2.8,4.9-5,6.2c-2.2,1.4-4.8,2-7.9,2c-4.6,0-8.2-1.3-10.8-3.9
		c-2.5-2.6-3.8-6.3-3.8-11c0-4.7,1.2-8.4,3.7-10.9s6-3.8,10.6-3.8c3.4,0,6.2,0.7,8.3,2s3.6,3.4,4.5,6l-5.3,1.5
		c-0.5-1.4-1.3-2.6-2.7-3.5c-1.3-0.9-2.9-1.3-4.7-1.3c-2.7,0-4.8,0.8-6.2,2.5c-1.4,1.7-2.1,4.2-2.1,7.4c0,3.3,0.7,5.9,2.2,7.6
		C125.5,24.1,127.7,25,130.4,25z"/>
	<path d="M22.2,78.3l-2.6-7.4h-11L6,78.3H0l10.5-28.9h7.1l10.5,28.9H22.2z M14.1,53.9L14,54.3c-0.1,0.5-0.3,1.1-0.5,1.7
		s-1.4,4.1-3.5,10.4h8.3l-2.9-8.3l-0.9-2.8L14.1,53.9z"/>
	<path d="M54.9,58.6c0,1.9-0.4,3.5-1.3,5C52.8,65,51.6,66.2,50,67c-1.6,0.8-3.5,1.2-5.6,1.2h-7.2v10.2h-6V49.4h13
		c3.5,0,6.1,0.8,8,2.4C54,53.4,54.9,55.7,54.9,58.6z M48.8,58.7c0-3-1.8-4.6-5.4-4.6h-6.3v9.4h6.4c1.7,0,3-0.4,3.9-1.2
		S48.8,60.2,48.8,58.7z"/>
	<path d="M78.1,73.3h3.8v13.4h-5.1v-8.4H58.2v8.4h-5.1V73.3h3.2c1-1.8,1.9-4,2.6-6.6s1.3-5.3,1.7-8.1l1.3-9.1h16.2V73.3z M72.2,73.3
		V54.4h-5.4l-0.6,4.8c-0.4,2.8-0.9,5.5-1.6,8s-1.3,4.6-2,6.1H72.2z"/>
	<path d="M98,74c3.7,0,6.2-1.8,7.6-5.5l5.3,2c-1.1,2.8-2.8,4.9-5,6.2c-2.2,1.4-4.8,2-7.9,2c-4.6,0-8.2-1.3-10.8-3.9
		c-2.5-2.6-3.8-6.3-3.8-11c0-4.7,1.2-8.4,3.7-10.9s6-3.8,10.6-3.8c3.4,0,6.2,0.7,8.3,2s3.6,3.4,4.5,6l-5.3,1.5
		c-0.5-1.4-1.3-2.6-2.7-3.5c-1.3-0.9-2.9-1.3-4.7-1.3c-2.7,0-4.8,0.8-6.2,2.5c-1.4,1.7-2.1,4.2-2.1,7.4c0,3.3,0.7,5.9,2.2,7.6
		C93.1,73.1,95.2,74,98,74z"/>
</g>
</svg>
