<?xml version="1.0" encoding="utf-8"?>
<!-- Generator: Adobe Illustrator 18.1.1, SVG Export Plug-In . SVG Version: 6.00 Build 0)  -->
<svg version="1.1" id="Layer_1" xmlns="http://www.w3.org/2000/svg" xmlns:xlink="http://www.w3.org/1999/xlink" x="0px" y="0px"
	 viewBox="0 0 147.3 87" enable-background="new 0 0 147.3 87" xml:space="preserve">
<g>
	<path d="M29.6,18.2c0,8.7-4,13-13.1,13c-9.1,0-13.1-4.3-13.1-13V0.6h7.8v18.1c0,3.9,1.4,5.8,5.3,5.8c3.8,0,5.3-2,5.3-5.8V0.6h7.8
		V18.2z"/>
	<path d="M39.9,20.5c0.2,3.5,2.4,4.7,5.7,4.7c2.4,0,4.8-0.8,4.8-3.1c0-2.6-4.3-3.2-8.6-4.4c-4.3-1.2-8.8-3.2-8.8-8.7
		C33,2.6,39.6,0,45.2,0c6,0,12,2.9,12,9.7h-7.8C49.5,6.9,47,6,44.6,6c-1.7,0-3.8,0.6-3.8,2.6c0,2.3,4.3,2.7,8.7,3.9
		c4.3,1.2,8.7,3.2,8.7,8.7c0,7.6-6.5,10-13.1,10c-6.9,0-13-3-13-10.7H39.9z"/>
	<path d="M60.9,0.6h15.3c5.3,0,10.5,2.4,10.5,8.4c0,3.2-1.6,6.3-4.7,7.5v0.1c3.2,0.8,4.1,4.3,4.4,7.2c0.1,1.3,0.2,5.7,1.3,6.8h-7.7
		c-0.7-1-0.8-3.9-0.9-4.8c-0.2-3-0.7-6.1-4.4-6.1h-5.9v10.9h-7.8V0.6z M68.7,13.7h6.6c2.4,0,3.6-1.3,3.6-3.5c0-2.2-1.8-3.2-3.9-3.2
		h-6.2V13.7z"/>
	<path d="M90.2,0.6h14c5.2-0.1,10.8,1.3,10.8,7.5c0,2.7-1.6,4.9-3.9,6c3.2,0.9,5.2,3.7,5.2,7.1c0,7.1-5.3,9.3-11.7,9.3H90.2V0.6z
		 M98,12.4h6c1.3,0,3.2-0.7,3.2-2.9c0-2.2-1.6-2.9-3.2-2.9h-6V12.4z M98,24.4h6.3c2.5,0,4.2-0.9,4.2-3.4c0-2.6-1.8-3.5-4.2-3.5H98
		V24.4z"/>
	<path d="M139.5,11.3c-0.4-3-2.8-4.6-6-4.6c-5,0-7,4.5-7,8.9s1.9,8.9,7,8.9c3.7,0,5.8-2.1,6-5.5h7.8c-0.4,7.7-6.1,12.3-13.7,12.3
		c-9.1,0-15-6.9-15-15.6c0-8.7,5.9-15.6,15-15.6c6.5,0,13.5,4.1,13.7,11.3H139.5z"/>
	<path stroke="#231F20" stroke-miterlimit="10" d="M12.1,49.6h6.8l11.2,30h-6.8l-2.3-6.7H9.7l-2.4,6.7H0.7L12.1,49.6z M19.2,68
		l-3.8-11h-0.1l-3.9,11H19.2z"/>
	<path stroke="#231F20" stroke-miterlimit="10" d="M35.5,49.6H49c1.9,0,3.5,0.3,4.8,0.8c1.3,0.5,2.4,1.3,3.2,2.2
		c0.8,0.9,1.4,1.9,1.8,3.1c0.4,1.2,0.6,2.3,0.6,3.5c0,1.2-0.2,2.4-0.6,3.6c-0.4,1.1-1,2.2-1.8,3.1c-0.8,0.9-1.9,1.6-3.2,2.2
		c-1.3,0.5-2.9,0.8-4.8,0.8h-6.9v10.8h-6.6V49.6z M47.2,63.7c0.8,0,1.5-0.1,2.2-0.2c0.7-0.1,1.3-0.3,1.8-0.7c0.5-0.3,1-0.8,1.3-1.4
		s0.5-1.4,0.5-2.3c0-1-0.2-1.7-0.5-2.3c-0.3-0.6-0.7-1-1.3-1.4c-0.5-0.3-1.1-0.5-1.8-0.7s-1.4-0.2-2.2-0.2h-5.1v9H47.2z"/>
	<path stroke="#231F20" stroke-miterlimit="10" d="M59.9,74.1h2.5c0.9-1.2,1.6-2.4,2.1-3.8c0.5-1.4,1-2.9,1.3-4.5
		c0.3-1.6,0.5-3.4,0.6-5.3c0.1-1.9,0.1-4,0.1-6.2v-4.7h21.8v24.4h3.3v12.4h-6v-6.8H65.9v6.8h-6V74.1z M81.7,74.1v-19h-8.9v0.5
		c0,2,0,3.9-0.1,5.7c-0.1,1.7-0.3,3.4-0.5,4.9c-0.2,1.5-0.6,2.9-1,4.2c-0.4,1.3-1,2.6-1.7,3.8H81.7z"/>
	<path stroke="#231F20" stroke-miterlimit="10" d="M107.4,80.3c-2.3,0-4.4-0.4-6.2-1.2c-1.8-0.8-3.4-1.9-4.6-3.3
		c-1.3-1.4-2.2-3-2.9-4.9c-0.7-1.9-1-3.9-1-6.1c0-2.2,0.3-4.3,1-6.2c0.7-1.9,1.6-3.6,2.9-5c1.3-1.4,2.8-2.5,4.6-3.4
		c1.8-0.8,3.9-1.2,6.2-1.2c1.6,0,3.2,0.2,4.7,0.7c1.5,0.5,2.8,1.2,4,2.1c1.2,0.9,2.1,2,2.9,3.4c0.8,1.3,1.2,2.9,1.4,4.6H114
		c-0.1-0.8-0.4-1.4-0.8-2.1c-0.4-0.6-0.9-1.2-1.5-1.7c-0.6-0.5-1.3-0.8-2-1.1c-0.7-0.3-1.5-0.4-2.3-0.4c-1.5,0-2.7,0.3-3.8,0.9
		c-1,0.6-1.9,1.3-2.5,2.3c-0.6,1-1.1,2.1-1.4,3.3c-0.3,1.2-0.4,2.5-0.4,3.8c0,1.3,0.1,2.5,0.4,3.7c0.3,1.2,0.8,2.3,1.4,3.2
		c0.6,1,1.5,1.7,2.5,2.3c1,0.6,2.3,0.9,3.8,0.9c2,0,3.6-0.6,4.7-1.8c1.1-1.2,1.8-2.9,2.1-4.9h6.4c-0.2,1.9-0.6,3.6-1.3,5.1
		c-0.7,1.5-1.6,2.8-2.8,3.8c-1.1,1.1-2.5,1.9-4,2.4S109.2,80.3,107.4,80.3z"/>
</g>
</svg>
