<?xml version="1.0" encoding="utf-8"?>
<!-- Generator: Adobe Illustrator 18.1.1, SVG Export Plug-In . SVG Version: 6.00 Build 0)  -->
<svg version="1.1" id="Layer_1" xmlns="http://www.w3.org/2000/svg" xmlns:xlink="http://www.w3.org/1999/xlink" x="0px" y="0px"
	 viewBox="0 0 694.2 85" enable-background="new 0 0 694.2 85" xml:space="preserve">
<g id="Bilinguil">
	<g>
		<path fill="#231F20" stroke="#231F20" stroke-miterlimit="10" d="M10.4,52.2h5.8l9.6,25.7H20L18,72.2H8.4l-2,5.7H0.7L10.4,52.2z
			 M16.6,68l-3.2-9.4h-0.1L9.9,68H16.6z"/>
		<path fill="#231F20" stroke="#231F20" stroke-miterlimit="10" d="M27.5,59.3H35l3.9,13.5H39l3.9-13.5h7.4v18.6h-4.8V63.8h-0.1
			l-4,14.1h-4.8l-4-14.1h-0.1v14.1h-4.8V59.3z"/>
		<path fill="#231F20" stroke="#231F20" stroke-miterlimit="10" d="M62.7,78.4c-1.5,0-2.8-0.2-4-0.7c-1.2-0.5-2.2-1.1-3-2
			c-0.8-0.9-1.4-1.9-1.9-3.1c-0.4-1.2-0.7-2.5-0.7-4c0-1.4,0.2-2.7,0.7-3.9c0.5-1.2,1.1-2.2,1.9-3.1c0.8-0.9,1.8-1.6,3-2.1
			s2.5-0.8,3.9-0.8c1.5,0,2.8,0.3,3.9,0.8c1.1,0.6,2.1,1.3,2.8,2.2c0.8,0.9,1.3,2,1.7,3.2c0.4,1.2,0.6,2.5,0.6,3.8
			c0,0.2,0,0.3,0,0.5s0,0.3,0,0.5H58.3c0.1,1.7,0.5,2.9,1.3,3.6c0.8,0.7,1.9,1.1,3.3,1.1c1,0,1.9-0.3,2.7-0.8
			c0.7-0.5,1.2-1.1,1.4-1.6h4.5c-0.7,2.2-1.8,3.8-3.3,4.8C66.6,77.9,64.8,78.4,62.7,78.4z M66.6,66.6c-0.2-1.3-0.7-2.3-1.3-3
			c-0.6-0.7-1.5-1-2.8-1c-0.8,0-1.5,0.1-2.1,0.4c-0.5,0.3-1,0.6-1.3,1c-0.3,0.4-0.6,0.8-0.7,1.3c-0.1,0.5-0.2,0.9-0.2,1.2H66.6z"/>
		<path fill="#231F20" stroke="#231F20" stroke-miterlimit="10" d="M74.8,59.3h4.9v2.4h0.1c0.6-1,1.4-1.7,2.4-2.2
			c1-0.5,2-0.7,3.2-0.7c1.5,0,2.7,0.3,3.8,0.8c1.1,0.6,1.9,1.3,2.6,2.2c0.7,0.9,1.2,2,1.5,3.2c0.3,1.2,0.5,2.5,0.5,3.8
			c0,1.2-0.2,2.4-0.5,3.6c-0.3,1.2-0.8,2.2-1.5,3.1c-0.7,0.9-1.5,1.6-2.6,2.1c-1,0.5-2.2,0.8-3.6,0.8c-1.2,0-2.2-0.2-3.2-0.7
			c-1-0.5-1.8-1.2-2.4-2.1h-0.1v8.8h-5.1V59.3z M84.2,74.6c0.8,0,1.5-0.2,2.1-0.5c0.6-0.3,1-0.8,1.4-1.3c0.3-0.5,0.6-1.2,0.7-1.9
			c0.1-0.7,0.2-1.4,0.2-2.2c0-0.7-0.1-1.5-0.2-2.2c-0.2-0.7-0.4-1.4-0.8-1.9c-0.4-0.6-0.8-1-1.4-1.4c-0.6-0.3-1.3-0.5-2.1-0.5
			c-0.8,0-1.5,0.2-2.1,0.5c-0.6,0.3-1,0.8-1.4,1.4c-0.3,0.6-0.6,1.2-0.7,1.9c-0.1,0.7-0.2,1.5-0.2,2.2c0,0.8,0.1,1.5,0.2,2.2
			c0.2,0.7,0.4,1.3,0.8,1.9c0.3,0.5,0.8,1,1.4,1.3C82.6,74.4,83.3,74.6,84.2,74.6z"/>
		<path fill="#231F20" stroke="#231F20" stroke-miterlimit="10" d="M96.8,59.3h4.9v12.6l7-12.6h5.8v18.6h-4.9V65.3l-7,12.6h-5.8
			V59.3z"/>
		<path fill="#231F20" stroke="#231F20" stroke-miterlimit="10" d="M118.4,59.3h5.1v7.6l6.8-7.6h6l-7.8,8.2l8.8,10.4h-6.2l-6.6-7.7
			l-1.1,1.2v6.6h-5.1V59.3z"/>
		<path fill="#231F20" stroke="#231F20" stroke-miterlimit="10" d="M144.6,78.4c-0.9,0-1.7-0.1-2.5-0.3c-0.8-0.2-1.4-0.6-2-1
			s-1-1-1.4-1.7c-0.3-0.7-0.5-1.5-0.5-2.5c0-1.1,0.2-1.9,0.6-2.6s0.9-1.2,1.4-1.6c0.6-0.4,1.3-0.7,2-0.9c0.8-0.2,1.5-0.4,2.3-0.5
			c0.8-0.1,1.5-0.2,2.3-0.3c0.7-0.1,1.4-0.2,2-0.3s1-0.4,1.4-0.6c0.3-0.3,0.5-0.7,0.5-1.2c0-0.5-0.1-1-0.3-1.3
			c-0.2-0.3-0.4-0.6-0.7-0.8c-0.3-0.2-0.6-0.3-1-0.4c-0.4-0.1-0.8-0.1-1.3-0.1c-1,0-1.8,0.2-2.4,0.6c-0.6,0.4-0.9,1.2-1,2.2h-5.1
			c0.1-1.2,0.4-2.2,0.9-3c0.5-0.8,1.2-1.4,2-1.9c0.8-0.5,1.7-0.8,2.7-1c1-0.2,2-0.3,3.1-0.3c0.9,0,1.9,0.1,2.8,0.2
			c1,0.1,1.8,0.4,2.6,0.8c0.8,0.4,1.4,0.9,1.9,1.6c0.5,0.7,0.8,1.6,0.8,2.7v9.7c0,0.8,0,1.6,0.1,2.4c0.1,0.8,0.3,1.3,0.5,1.7h-5.2
			c-0.1-0.3-0.2-0.6-0.2-0.9c-0.1-0.3-0.1-0.6-0.1-0.9c-0.8,0.8-1.8,1.4-2.9,1.8C146.9,78.2,145.7,78.4,144.6,78.4z M146.5,75
			c1,0,1.8-0.2,2.3-0.5c0.6-0.3,1-0.7,1.2-1.2c0.3-0.5,0.4-0.9,0.5-1.4c0.1-0.5,0.1-0.9,0.1-1.2v-1.9c-0.2,0.2-0.5,0.3-0.8,0.4
			c-0.3,0.1-0.7,0.2-1,0.3c-0.4,0.1-0.8,0.1-1.2,0.2c-0.4,0-0.8,0.1-1.2,0.2c-0.4,0.1-0.8,0.2-1.2,0.3c-0.4,0.1-0.7,0.3-1,0.5
			c-0.3,0.2-0.5,0.5-0.7,0.8c-0.2,0.3-0.3,0.7-0.3,1.2c0,0.5,0.1,0.9,0.3,1.2c0.2,0.3,0.4,0.5,0.7,0.7c0.3,0.2,0.6,0.3,1,0.4
			C145.7,75,146.1,75,146.5,75z"/>
		<path fill="#231F20" stroke="#231F20" stroke-miterlimit="10" d="M159.7,59.3h5.1v6.8h7.2v-6.8h5.1v18.6H172v-7.8h-7.2v7.8h-5.1
			V59.3z"/>
		<path fill="#231F20" stroke="#231F20" stroke-miterlimit="10" d="M190.1,78.4c-1.5,0-2.8-0.2-4-0.7s-2.2-1.1-3-2
			c-0.8-0.9-1.5-1.9-1.9-3.1s-0.7-2.5-0.7-4c0-1.5,0.2-2.8,0.7-4c0.5-1.2,1.1-2.2,1.9-3.1c0.8-0.9,1.8-1.5,3-2
			c1.2-0.5,2.5-0.7,4-0.7c1.5,0,2.8,0.2,4,0.7c1.2,0.5,2.2,1.1,3,2c0.8,0.9,1.5,1.9,1.9,3.1c0.5,1.2,0.7,2.6,0.7,4
			c0,1.5-0.2,2.8-0.7,4c-0.5,1.2-1.1,2.2-1.9,3.1c-0.8,0.9-1.9,1.5-3,2S191.5,78.4,190.1,78.4z M190.1,74.6c0.9,0,1.6-0.2,2.2-0.5
			c0.6-0.3,1.1-0.8,1.4-1.4c0.3-0.6,0.6-1.2,0.7-1.9c0.1-0.7,0.2-1.4,0.2-2.2c0-0.7-0.1-1.5-0.2-2.2c-0.1-0.7-0.4-1.4-0.7-1.9
			c-0.3-0.6-0.8-1-1.4-1.4c-0.6-0.3-1.3-0.5-2.2-0.5c-0.9,0-1.6,0.2-2.2,0.5c-0.6,0.3-1,0.8-1.4,1.4c-0.3,0.6-0.6,1.2-0.7,1.9
			c-0.1,0.7-0.2,1.5-0.2,2.2c0,0.7,0.1,1.5,0.2,2.2c0.1,0.7,0.4,1.3,0.7,1.9c0.3,0.6,0.8,1,1.4,1.4
			C188.5,74.4,189.2,74.6,190.1,74.6z"/>
		<path fill="#231F20" stroke="#231F20" stroke-miterlimit="10" d="M213.8,65.9v4.4H203v-4.4H213.8z"/>
		<path fill="#231F20" stroke="#231F20" stroke-miterlimit="10" d="M218.2,52.2h11.6c1.6,0,3,0.2,4.1,0.7c1.1,0.5,2,1.1,2.8,1.9
			c0.7,0.8,1.2,1.7,1.5,2.6c0.3,1,0.5,2,0.5,3c0,1.1-0.2,2.1-0.5,3.1c-0.3,1-0.8,1.9-1.5,2.6c-0.7,0.8-1.6,1.4-2.8,1.9
			c-1.1,0.5-2.5,0.7-4.1,0.7h-5.9v9.2h-5.7V52.2z M228.3,64.3c0.6,0,1.3,0,1.9-0.1c0.6-0.1,1.1-0.3,1.6-0.6c0.5-0.3,0.8-0.7,1.1-1.2
			c0.3-0.5,0.4-1.2,0.4-2c0-0.8-0.1-1.5-0.4-2c-0.3-0.5-0.6-0.9-1.1-1.2c-0.5-0.3-1-0.5-1.6-0.6c-0.6-0.1-1.2-0.1-1.9-0.1h-4.4v7.7
			H228.3z"/>
		<path fill="#231F20" stroke="#231F20" stroke-miterlimit="10" d="M250.7,78.4c-1.5,0-2.8-0.2-4-0.7s-2.2-1.1-3-2
			c-0.8-0.9-1.5-1.9-1.9-3.1s-0.7-2.5-0.7-4c0-1.5,0.2-2.8,0.7-4c0.5-1.2,1.1-2.2,1.9-3.1c0.8-0.9,1.8-1.5,3-2
			c1.2-0.5,2.5-0.7,4-0.7c1.5,0,2.8,0.2,4,0.7c1.2,0.5,2.2,1.1,3,2c0.8,0.9,1.5,1.9,1.9,3.1c0.5,1.2,0.7,2.6,0.7,4
			c0,1.5-0.2,2.8-0.7,4c-0.5,1.2-1.1,2.2-1.9,3.1c-0.8,0.9-1.9,1.5-3,2S252.2,78.4,250.7,78.4z M250.7,74.6c0.9,0,1.6-0.2,2.2-0.5
			c0.6-0.3,1.1-0.8,1.4-1.4c0.3-0.6,0.6-1.2,0.7-1.9c0.1-0.7,0.2-1.4,0.2-2.2c0-0.7-0.1-1.5-0.2-2.2c-0.1-0.7-0.4-1.4-0.7-1.9
			c-0.3-0.6-0.8-1-1.4-1.4c-0.6-0.3-1.3-0.5-2.2-0.5c-0.9,0-1.6,0.2-2.2,0.5c-0.6,0.3-1,0.8-1.4,1.4c-0.3,0.6-0.6,1.2-0.7,1.9
			c-0.1,0.7-0.2,1.5-0.2,2.2c0,0.7,0.1,1.5,0.2,2.2c0.1,0.7,0.4,1.3,0.7,1.9c0.3,0.6,0.8,1,1.4,1.4
			C249.2,74.4,249.9,74.6,250.7,74.6z"/>
		<path fill="#231F20" stroke="#231F20" stroke-miterlimit="10" d="M272.5,78.4c-1.4,0-2.7-0.2-3.9-0.7c-1.2-0.5-2.1-1.1-3-2
			c-0.8-0.8-1.5-1.8-1.9-3c-0.5-1.2-0.7-2.4-0.7-3.8c0-1.4,0.2-2.8,0.6-4c0.4-1.2,1-2.3,1.9-3.2c0.8-0.9,1.8-1.6,3-2.1
			s2.5-0.8,4-0.8c1.1,0,2.2,0.1,3.2,0.4c1,0.3,1.9,0.7,2.7,1.3c0.8,0.6,1.5,1.3,2,2.2c0.5,0.9,0.8,1.9,0.9,3.1h-5
			c-0.3-2.1-1.6-3.2-3.8-3.2c-0.8,0-1.5,0.2-2.1,0.6c-0.6,0.4-1,0.9-1.4,1.4c-0.3,0.6-0.6,1.2-0.7,2c-0.1,0.7-0.2,1.4-0.2,2.1
			s0.1,1.4,0.2,2.1c0.1,0.7,0.4,1.3,0.7,1.9c0.3,0.6,0.8,1,1.3,1.4c0.6,0.4,1.2,0.5,2,0.5c1.2,0,2.2-0.3,2.8-1s1.1-1.6,1.2-2.8h4.9
			c-0.3,2.5-1.3,4.4-2.9,5.7S275,78.4,272.5,78.4z"/>
		<path fill="#231F20" stroke="#231F20" stroke-miterlimit="10" d="M293.2,78.4c-1.4,0-2.7-0.2-3.9-0.7c-1.2-0.5-2.1-1.1-3-2
			c-0.8-0.8-1.5-1.8-1.9-3c-0.5-1.2-0.7-2.4-0.7-3.8c0-1.4,0.2-2.8,0.6-4c0.4-1.2,1-2.3,1.9-3.2c0.8-0.9,1.8-1.6,3-2.1
			s2.5-0.8,4-0.8c1.1,0,2.2,0.1,3.2,0.4c1,0.3,1.9,0.7,2.7,1.3c0.8,0.6,1.5,1.3,2,2.2c0.5,0.9,0.8,1.9,0.9,3.1h-5
			c-0.3-2.1-1.6-3.2-3.8-3.2c-0.8,0-1.5,0.2-2.1,0.6c-0.6,0.4-1,0.9-1.4,1.4c-0.3,0.6-0.6,1.2-0.7,2c-0.1,0.7-0.2,1.4-0.2,2.1
			s0.1,1.4,0.2,2.1c0.1,0.7,0.4,1.3,0.7,1.9c0.3,0.6,0.8,1,1.3,1.4c0.6,0.4,1.2,0.5,2,0.5c1.2,0,2.2-0.3,2.8-1s1.1-1.6,1.2-2.8h4.9
			c-0.3,2.5-1.3,4.4-2.9,5.7S295.7,78.4,293.2,78.4z"/>
		<path fill="#231F20" stroke="#231F20" stroke-miterlimit="10" d="M305,59.3h4.9v12.6l7-12.6h5.8v18.6h-4.9V65.3l-7,12.6H305V59.3z
			"/>
		<path fill="#231F20" stroke="#231F20" stroke-miterlimit="10" d="M326.6,59.3h4.9v12.6l7-12.6h5.8v18.6h-4.9V65.3l-7,12.6h-5.8
			V59.3z M335.5,57.1c-0.8,0-1.6-0.1-2.4-0.3c-0.7-0.2-1.4-0.5-1.9-0.9c-0.6-0.4-1-1-1.3-1.6s-0.5-1.4-0.5-2.4h3.8
			c0,0.8,0.2,1.4,0.6,1.8c0.3,0.4,0.9,0.6,1.7,0.6c0.8,0,1.3-0.2,1.7-0.6c0.4-0.4,0.6-1,0.6-1.8h3.8c0,0.9-0.2,1.7-0.5,2.4
			c-0.3,0.6-0.8,1.2-1.3,1.6s-1.2,0.7-1.9,0.9C337,57,336.3,57.1,335.5,57.1z"/>
		<path fill="#231F20" stroke="#231F20" stroke-miterlimit="10" d="M357,78.4c-1.4,0-2.7-0.2-3.9-0.7c-1.2-0.5-2.1-1.1-3-2
			c-0.8-0.8-1.5-1.8-1.9-3c-0.5-1.2-0.7-2.4-0.7-3.8c0-1.4,0.2-2.8,0.6-4c0.4-1.2,1-2.3,1.9-3.2c0.8-0.9,1.8-1.6,3-2.1
			s2.5-0.8,4-0.8c1.1,0,2.2,0.1,3.2,0.4c1,0.3,1.9,0.7,2.7,1.3c0.8,0.6,1.5,1.3,2,2.2c0.5,0.9,0.8,1.9,0.9,3.1h-5
			c-0.3-2.1-1.6-3.2-3.8-3.2c-0.8,0-1.5,0.2-2.1,0.6c-0.6,0.4-1,0.9-1.4,1.4c-0.3,0.6-0.6,1.2-0.7,2c-0.1,0.7-0.2,1.4-0.2,2.1
			s0.1,1.4,0.2,2.1c0.1,0.7,0.4,1.3,0.7,1.9c0.3,0.6,0.8,1,1.3,1.4c0.6,0.4,1.2,0.5,2,0.5c1.2,0,2.2-0.3,2.8-1s1.1-1.6,1.2-2.8h4.9
			c-0.3,2.5-1.3,4.4-2.9,5.7S359.5,78.4,357,78.4z"/>
		<path fill="#231F20" stroke="#231F20" stroke-miterlimit="10" d="M368.9,59.3h5.1v7.6l6.8-7.6h6l-7.8,8.2l8.8,10.4h-6.2l-6.6-7.7
			l-1.1,1.2v6.6h-5.1V59.3z"/>
		<path fill="#231F20" stroke="#231F20" stroke-miterlimit="10" d="M389.6,59.3h4.9v12.6l7-12.6h5.8v18.6h-4.9V65.3l-7,12.6h-5.8
			V59.3z"/>
		<path fill="#231F20" stroke="#231F20" stroke-miterlimit="10" d="M419.5,73.2h2.2c0.7-1,1.3-2.1,1.8-3.3c0.5-1.2,0.8-2.5,1.1-3.9
			c0.3-1.4,0.4-2.9,0.5-4.5c0.1-1.6,0.1-3.4,0.1-5.3v-4h18.6v21h2.8v10.6h-5.1v-5.9h-16.9v5.9h-5.1V73.2z M438.2,73.2V56.9h-7.6v0.5
			c0,1.8,0,3.4-0.1,4.9c-0.1,1.5-0.2,2.9-0.4,4.2c-0.2,1.3-0.5,2.5-0.9,3.6c-0.4,1.1-0.8,2.2-1.4,3.2H438.2z"/>
		<path fill="#231F20" stroke="#231F20" stroke-miterlimit="10" d="M457.6,78.4c-1.5,0-2.8-0.2-4-0.7c-1.2-0.5-2.2-1.1-3-2
			c-0.8-0.9-1.4-1.9-1.9-3.1c-0.4-1.2-0.7-2.5-0.7-4c0-1.4,0.2-2.7,0.7-3.9c0.5-1.2,1.1-2.2,1.9-3.1c0.8-0.9,1.8-1.6,3-2.1
			s2.5-0.8,3.9-0.8c1.5,0,2.8,0.3,3.9,0.8c1.1,0.6,2.1,1.3,2.8,2.2c0.8,0.9,1.3,2,1.7,3.2c0.4,1.2,0.6,2.5,0.6,3.8
			c0,0.2,0,0.3,0,0.5s0,0.3,0,0.5h-13.4c0.1,1.7,0.5,2.9,1.3,3.6c0.8,0.7,1.9,1.1,3.3,1.1c1,0,1.9-0.3,2.7-0.8
			c0.7-0.5,1.2-1.1,1.4-1.6h4.5c-0.7,2.2-1.8,3.8-3.3,4.8C461.5,77.9,459.7,78.4,457.6,78.4z M461.5,66.6c-0.2-1.3-0.7-2.3-1.3-3
			c-0.6-0.7-1.5-1-2.8-1c-0.8,0-1.5,0.1-2.1,0.4c-0.5,0.3-1,0.6-1.3,1c-0.3,0.4-0.6,0.8-0.7,1.3c-0.1,0.5-0.2,0.9-0.2,1.2H461.5z"/>
		<path fill="#231F20" stroke="#231F20" stroke-miterlimit="10" d="M470.4,78.2c-0.2,0-0.6,0-1-0.1c-0.5-0.1-0.8-0.2-1.1-0.3V74
			c0.1,0,0.3,0.1,0.5,0.1c0.2,0,0.4,0,0.6,0c0.4,0,0.8-0.1,1.2-0.4c0.3-0.3,0.6-0.8,0.9-1.6s0.4-1.9,0.5-3.4s0.2-3.4,0.2-5.8v-3.6
			h15.1v18.6h-5.1V63.2h-5.3c-0.1,2.6-0.3,4.9-0.5,6.8c-0.2,1.9-0.6,3.5-1,4.7s-1.1,2.1-1.9,2.7C472.7,77.9,471.7,78.2,470.4,78.2z"
			/>
		<path fill="#231F20" stroke="#231F20" stroke-miterlimit="10" d="M500.2,78.4c-1.5,0-2.8-0.2-4-0.7s-2.2-1.1-3-2
			c-0.8-0.9-1.5-1.9-1.9-3.1s-0.7-2.5-0.7-4c0-1.5,0.2-2.8,0.7-4c0.5-1.2,1.1-2.2,1.9-3.1c0.8-0.9,1.8-1.5,3-2
			c1.2-0.5,2.5-0.7,4-0.7c1.5,0,2.8,0.2,4,0.7c1.2,0.5,2.2,1.1,3,2c0.8,0.9,1.5,1.9,1.9,3.1c0.5,1.2,0.7,2.6,0.7,4
			c0,1.5-0.2,2.8-0.7,4c-0.5,1.2-1.1,2.2-1.9,3.1c-0.8,0.9-1.9,1.5-3,2S501.7,78.4,500.2,78.4z M500.2,74.6c0.9,0,1.6-0.2,2.2-0.5
			c0.6-0.3,1.1-0.8,1.4-1.4c0.3-0.6,0.6-1.2,0.7-1.9c0.1-0.7,0.2-1.4,0.2-2.2c0-0.7-0.1-1.5-0.2-2.2c-0.1-0.7-0.4-1.4-0.7-1.9
			c-0.3-0.6-0.8-1-1.4-1.4c-0.6-0.3-1.3-0.5-2.2-0.5c-0.9,0-1.6,0.2-2.2,0.5c-0.6,0.3-1,0.8-1.4,1.4c-0.3,0.6-0.6,1.2-0.7,1.9
			c-0.1,0.7-0.2,1.5-0.2,2.2c0,0.7,0.1,1.5,0.2,2.2c0.1,0.7,0.4,1.3,0.7,1.9c0.3,0.6,0.8,1,1.4,1.4
			C498.6,74.4,499.4,74.6,500.2,74.6z"/>
		<path fill="#231F20" stroke="#231F20" stroke-miterlimit="10" d="M513.3,59.3H524c0.8,0,1.6,0.1,2.3,0.3c0.7,0.2,1.3,0.5,1.9,0.8
			c0.5,0.4,1,0.9,1.3,1.5c0.3,0.6,0.5,1.3,0.5,2.1c0,0.9-0.2,1.7-0.7,2.4c-0.5,0.7-1.1,1.2-1.8,1.5c1,0.3,1.8,0.8,2.4,1.5
			c0.6,0.7,1,1.7,1,3c0,0.9-0.2,1.7-0.5,2.4c-0.3,0.7-0.8,1.3-1.3,1.7c-0.6,0.5-1.2,0.8-2,1.1c-0.8,0.2-1.6,0.4-2.4,0.4h-11.2V59.3z
			 M521.8,66.8c0.4,0,0.8,0,1.1-0.1c0.4,0,0.7-0.1,1-0.3c0.3-0.2,0.5-0.4,0.7-0.6c0.2-0.3,0.3-0.7,0.3-1.1c0-0.5-0.1-0.8-0.3-1.1
			c-0.2-0.3-0.4-0.5-0.7-0.6c-0.3-0.1-0.6-0.2-1-0.3c-0.4,0-0.8-0.1-1.1-0.1h-3.4v4.2H521.8z M522.1,74.6c0.4,0,0.9,0,1.3-0.1
			c0.4-0.1,0.8-0.2,1.1-0.3c0.3-0.2,0.6-0.4,0.8-0.7c0.2-0.3,0.3-0.8,0.3-1.3s-0.1-1-0.3-1.3c-0.2-0.3-0.5-0.6-0.8-0.8
			c-0.3-0.2-0.7-0.3-1.2-0.3c-0.4-0.1-0.9-0.1-1.3-0.1h-3.6v4.9H522.1z"/>
		<path fill="#231F20" stroke="#231F20" stroke-miterlimit="10" d="M543.1,78.4c-1.5,0-2.8-0.2-4-0.7s-2.2-1.1-3-2
			c-0.8-0.9-1.5-1.9-1.9-3.1s-0.7-2.5-0.7-4c0-1.5,0.2-2.8,0.7-4c0.5-1.2,1.1-2.2,1.9-3.1c0.8-0.9,1.8-1.5,3-2
			c1.2-0.5,2.5-0.7,4-0.7c1.5,0,2.8,0.2,4,0.7c1.2,0.5,2.2,1.1,3,2c0.8,0.9,1.5,1.9,1.9,3.1c0.5,1.2,0.7,2.6,0.7,4
			c0,1.5-0.2,2.8-0.7,4c-0.5,1.2-1.1,2.2-1.9,3.1c-0.8,0.9-1.9,1.5-3,2S544.6,78.4,543.1,78.4z M543.1,74.6c0.9,0,1.6-0.2,2.2-0.5
			c0.6-0.3,1.1-0.8,1.4-1.4c0.3-0.6,0.6-1.2,0.7-1.9c0.1-0.7,0.2-1.4,0.2-2.2c0-0.7-0.1-1.5-0.2-2.2c-0.1-0.7-0.4-1.4-0.7-1.9
			c-0.3-0.6-0.8-1-1.4-1.4c-0.6-0.3-1.3-0.5-2.2-0.5c-0.9,0-1.6,0.2-2.2,0.5c-0.6,0.3-1,0.8-1.4,1.4c-0.3,0.6-0.6,1.2-0.7,1.9
			c-0.1,0.7-0.2,1.5-0.2,2.2c0,0.7,0.1,1.5,0.2,2.2c0.1,0.7,0.4,1.3,0.7,1.9c0.3,0.6,0.8,1,1.4,1.4
			C541.6,74.4,542.3,74.6,543.1,74.6z"/>
		<path fill="#231F20" stroke="#231F20" stroke-miterlimit="10" d="M556.1,59.3h4.9v12.6l7-12.6h5.8v18.6h-4.9V65.3l-7,12.6h-5.8
			V59.3z M564.9,57.1c-0.8,0-1.6-0.1-2.4-0.3c-0.7-0.2-1.4-0.5-1.9-0.9c-0.6-0.4-1-1-1.3-1.6s-0.5-1.4-0.5-2.4h3.8
			c0,0.8,0.2,1.4,0.6,1.8c0.3,0.4,0.9,0.6,1.7,0.6c0.8,0,1.3-0.2,1.7-0.6c0.4-0.4,0.6-1,0.6-1.8h3.8c0,0.9-0.2,1.7-0.5,2.4
			c-0.3,0.6-0.8,1.2-1.3,1.6s-1.2,0.7-1.9,0.9C566.5,57,565.7,57.1,564.9,57.1z"/>
		<path fill="#231F20" stroke="#231F20" stroke-miterlimit="10" d="M599.8,78.5c-2,0-3.8-0.3-5.3-1c-1.6-0.7-2.9-1.6-4-2.8
			c-1.1-1.2-1.9-2.6-2.5-4.2c-0.6-1.6-0.9-3.4-0.9-5.2c0-1.9,0.3-3.7,0.9-5.3c0.6-1.7,1.4-3.1,2.5-4.3s2.4-2.2,4-2.9
			c1.6-0.7,3.3-1,5.3-1c1.4,0,2.7,0.2,4,0.6c1.3,0.4,2.4,1,3.4,1.8c1,0.8,1.8,1.7,2.5,2.9c0.6,1.2,1.1,2.5,1.2,4h-5.5
			c-0.1-0.6-0.3-1.2-0.6-1.8s-0.8-1-1.3-1.4c-0.5-0.4-1.1-0.7-1.7-1c-0.6-0.2-1.3-0.3-2-0.3c-1.3,0-2.4,0.2-3.2,0.7
			c-0.9,0.5-1.6,1.2-2.2,2c-0.6,0.8-1,1.8-1.2,2.8c-0.3,1.1-0.4,2.1-0.4,3.3c0,1.1,0.1,2.1,0.4,3.1c0.3,1,0.7,1.9,1.2,2.8
			c0.6,0.8,1.3,1.5,2.2,2c0.9,0.5,2,0.7,3.2,0.7c1.7,0,3.1-0.5,4-1.6c1-1.1,1.6-2.4,1.8-4.2h5.5c-0.1,1.6-0.5,3.1-1.1,4.4
			c-0.6,1.3-1.4,2.4-2.4,3.3c-1,0.9-2.1,1.6-3.5,2.1C602.8,78.3,601.3,78.5,599.8,78.5z"/>
		<path fill="#231F20" stroke="#231F20" stroke-miterlimit="10" d="M623.4,78.4c-1.5,0-2.8-0.2-4-0.7s-2.2-1.1-3-2
			c-0.8-0.9-1.5-1.9-1.9-3.1s-0.7-2.5-0.7-4c0-1.5,0.2-2.8,0.7-4c0.5-1.2,1.1-2.2,1.9-3.1c0.8-0.9,1.8-1.5,3-2
			c1.2-0.5,2.5-0.7,4-0.7c1.5,0,2.8,0.2,4,0.7c1.2,0.5,2.2,1.1,3,2c0.8,0.9,1.5,1.9,1.9,3.1c0.5,1.2,0.7,2.6,0.7,4
			c0,1.5-0.2,2.8-0.7,4c-0.5,1.2-1.1,2.2-1.9,3.1c-0.8,0.9-1.9,1.5-3,2S624.9,78.4,623.4,78.4z M623.4,74.6c0.9,0,1.6-0.2,2.2-0.5
			c0.6-0.3,1.1-0.8,1.4-1.4c0.3-0.6,0.6-1.2,0.7-1.9c0.1-0.7,0.2-1.4,0.2-2.2c0-0.7-0.1-1.5-0.2-2.2c-0.1-0.7-0.4-1.4-0.7-1.9
			c-0.3-0.6-0.8-1-1.4-1.4c-0.6-0.3-1.3-0.5-2.2-0.5c-0.9,0-1.6,0.2-2.2,0.5c-0.6,0.3-1,0.8-1.4,1.4c-0.3,0.6-0.6,1.2-0.7,1.9
			c-0.1,0.7-0.2,1.5-0.2,2.2c0,0.7,0.1,1.5,0.2,2.2c0.1,0.7,0.4,1.3,0.7,1.9c0.3,0.6,0.8,1,1.4,1.4
			C621.8,74.4,622.5,74.6,623.4,74.6z"/>
		<path fill="#231F20" stroke="#231F20" stroke-miterlimit="10" d="M636.5,59.3h10.7c0.8,0,1.6,0.1,2.3,0.3c0.7,0.2,1.3,0.5,1.9,0.8
			c0.5,0.4,1,0.9,1.3,1.5c0.3,0.6,0.5,1.3,0.5,2.1c0,0.9-0.2,1.7-0.7,2.4c-0.5,0.7-1.1,1.2-1.8,1.5c1,0.3,1.8,0.8,2.4,1.5
			c0.6,0.7,1,1.7,1,3c0,0.9-0.2,1.7-0.5,2.4c-0.3,0.7-0.8,1.3-1.3,1.7c-0.6,0.5-1.2,0.8-2,1.1c-0.8,0.2-1.6,0.4-2.4,0.4h-11.2V59.3z
			 M644.9,66.8c0.4,0,0.8,0,1.1-0.1c0.4,0,0.7-0.1,1-0.3c0.3-0.2,0.5-0.4,0.7-0.6c0.2-0.3,0.3-0.7,0.3-1.1c0-0.5-0.1-0.8-0.3-1.1
			c-0.2-0.3-0.4-0.5-0.7-0.6c-0.3-0.1-0.6-0.2-1-0.3c-0.4,0-0.8-0.1-1.1-0.1h-3.4v4.2H644.9z M645.3,74.6c0.4,0,0.9,0,1.3-0.1
			c0.4-0.1,0.8-0.2,1.1-0.3c0.3-0.2,0.6-0.4,0.8-0.7c0.2-0.3,0.3-0.8,0.3-1.3s-0.1-1-0.3-1.3c-0.2-0.3-0.5-0.6-0.8-0.8
			c-0.3-0.2-0.7-0.3-1.2-0.3c-0.4-0.1-0.9-0.1-1.3-0.1h-3.6v4.9H645.3z"/>
		<path fill="#231F20" stroke="#231F20" stroke-miterlimit="10" d="M665.9,78.4c-1.5,0-2.8-0.2-4-0.7c-1.2-0.5-2.2-1.1-3-2
			c-0.8-0.9-1.4-1.9-1.9-3.1c-0.4-1.2-0.7-2.5-0.7-4c0-1.4,0.2-2.7,0.7-3.9c0.5-1.2,1.1-2.2,1.9-3.1c0.8-0.9,1.8-1.6,3-2.1
			s2.5-0.8,3.9-0.8c1.5,0,2.8,0.3,3.9,0.8c1.1,0.6,2.1,1.3,2.8,2.2c0.8,0.9,1.3,2,1.7,3.2c0.4,1.2,0.6,2.5,0.6,3.8
			c0,0.2,0,0.3,0,0.5s0,0.3,0,0.5h-13.4c0.1,1.7,0.5,2.9,1.3,3.6c0.8,0.7,1.9,1.1,3.3,1.1c1,0,1.9-0.3,2.7-0.8
			c0.7-0.5,1.2-1.1,1.4-1.6h4.5c-0.7,2.2-1.8,3.8-3.3,4.8C669.8,77.9,668,78.4,665.9,78.4z M669.8,66.6c-0.2-1.3-0.7-2.3-1.3-3
			c-0.6-0.7-1.5-1-2.8-1c-0.8,0-1.5,0.1-2.1,0.4c-0.5,0.3-1,0.6-1.3,1c-0.3,0.4-0.6,0.8-0.7,1.3c-0.1,0.5-0.2,0.9-0.2,1.2H669.8z"/>
		<path fill="#231F20" stroke="#231F20" stroke-miterlimit="10" d="M682.5,63.2h-6.1v-3.9h17.4v3.9h-6.1v14.8h-5.1V63.2z"/>
	</g>
	<g>
		<path fill="#231F20" d="M23.5,15.6c0,7.5-3.4,11.2-11.2,11.2S1.1,23.1,1.1,15.6V0.5h6.7V16c0,3.3,1.2,5,4.5,5s4.5-1.7,4.5-5V0.5
			h6.7V15.6z"/>
		<path fill="#231F20" d="M27.1,19.5h6.7v6.7h-6.7V19.5z"/>
		<path fill="#231F20" d="M42.9,17.6c0.1,3,2,4,4.9,4c2,0,4.1-0.7,4.1-2.6c0-2.3-3.7-2.7-7.4-3.7c-3.7-1-7.5-2.7-7.5-7.4
			c0-5.6,5.7-7.8,10.5-7.8c5.1,0,10.3,2.5,10.3,8.3H51c0.1-2.3-2.1-3.1-4.1-3.1c-1.4,0-3.2,0.5-3.2,2.2c0,2,3.7,2.3,7.5,3.4
			c3.7,1,7.5,2.8,7.5,7.4c0,6.5-5.5,8.6-11.2,8.6c-5.9,0-11.1-2.6-11.2-9.2H42.9z"/>
		<path fill="#231F20" d="M60.9,19.5h6.7v6.7h-6.7V19.5z"/>
		<path fill="#231F20" d="M70.8,19v-5.2H82V19H70.8z"/>
		<path fill="#231F20" d="M85.2,0.5h13.1c4.5,0,9,2.1,9,7.2c0,2.8-1.3,5.4-4,6.4v0.1c2.7,0.6,3.5,3.7,3.7,6.2
			c0.1,1.1,0.2,4.9,1.1,5.8h-6.6c-0.6-0.9-0.7-3.4-0.8-4.1c-0.2-2.6-0.6-5.3-3.7-5.3h-5.1v9.4h-6.7V0.5z M91.9,11.7h5.6
			c2,0,3.1-1.1,3.1-3c0-1.9-1.5-2.8-3.4-2.8h-5.3V11.7z"/>
		<path fill="#231F20" d="M128.7,26.2h-5.9v-2.6h-0.1c-1.2,1.9-3.5,3.1-5.7,3.1c-5.4,0-6.9-3.1-6.9-8V7.6h6.1v10.8
			c0,2.5,1.1,3.3,3,3.3c1.3,0,3.3-0.9,3.3-4.2v-10h6.1V26.2z"/>
		<path fill="#231F20" d="M136.7,20.1c0,0.9,0.4,1.6,1,2.1c0.6,0.4,1.4,0.6,2.3,0.6c1.2,0,2.9-0.5,2.9-2c0-1.4-1.9-1.7-3-2
			c-3.9-1-8.7-1.1-8.7-6.1c0-4.5,4.9-5.7,8.5-5.7c4.1,0,8.4,1.2,8.6,6h-5.7c0-0.8-0.3-1.3-0.8-1.6c-0.5-0.3-1.2-0.5-1.9-0.5
			c-1,0-2.6,0.1-2.6,1.4c0,1.8,4.1,2.1,6.9,2.7c3.8,0.8,4.8,3.5,4.8,5c0,5-4.8,6.7-9,6.7c-4.4,0-9-1.5-9.1-6.7H136.7z"/>
		<path fill="#231F20" d="M155.9,20.1c0,0.9,0.4,1.6,1,2.1c0.6,0.4,1.4,0.6,2.3,0.6c1.2,0,2.9-0.5,2.9-2c0-1.4-1.9-1.7-3-2
			c-3.9-1-8.7-1.1-8.7-6.1c0-4.5,4.9-5.7,8.5-5.7c4.1,0,8.4,1.2,8.6,6h-5.7c0-0.8-0.3-1.3-0.8-1.6c-0.5-0.3-1.2-0.5-1.9-0.5
			c-1,0-2.6,0.1-2.6,1.4c0,1.8,4.1,2.1,6.9,2.7c3.8,0.8,4.8,3.5,4.8,5c0,5-4.8,6.7-9,6.7c-4.4,0-9-1.5-9.1-6.7H155.9z"/>
		<path fill="#231F20" d="M176.7,5.2h-6.1V0.5h6.1V5.2z M170.5,7.6h6.1v18.7h-6.1V7.6z"/>
		<path fill="#231F20" d="M179.9,13.3c0.1-2.4,1.3-4,2.9-5c1.7-0.9,3.8-1.3,5.9-1.3c4.4,0,8.7,1,8.7,6.3v8.2c0,1.6,0,3.3,0.7,4.8
			H192c-0.2-0.6-0.3-1.2-0.4-1.8c-1.6,1.7-3.9,2.3-6.2,2.3c-3.6,0-6.4-1.8-6.4-5.7c0-6.1,6.6-5.6,10.9-6.5c1-0.2,1.6-0.6,1.6-1.7
			c0-1.4-1.7-1.9-3-1.9c-1.7,0-2.8,0.8-3.1,2.3H179.9z M187.8,23c2.9,0,3.9-1.7,3.7-5.5c-0.9,0.5-2.4,0.6-3.8,1
			c-1.4,0.3-2.5,0.9-2.5,2.4C185.3,22.4,186.5,23,187.8,23z"/>
		<path fill="#231F20" d="M211.4,0.5h12c4.4-0.1,9.3,1.1,9.3,6.4c0,2.3-1.4,4.2-3.4,5.2c2.7,0.8,4.4,3.2,4.4,6.1c0,6.1-4.5,8-10,8
			h-12.3V0.5z M218.1,10.7h5.2c1.2,0,2.7-0.6,2.7-2.4c0-1.9-1.3-2.5-2.7-2.5h-5.2V10.7z M218.1,20.9h5.4c2.1,0,3.6-0.8,3.6-2.9
			c0-2.3-1.6-3-3.6-3h-5.4V20.9z"/>
		<path fill="#231F20" d="M254.9,26.2H249v-2.6h-0.1c-1.2,1.9-3.5,3.1-5.7,3.1c-5.4,0-6.9-3.1-6.9-8V7.6h6.1v10.8
			c0,2.5,1.1,3.3,3,3.3c1.3,0,3.3-0.9,3.3-4.2v-10h6.1V26.2z"/>
		<path fill="#231F20" d="M263,20.1c0,0.9,0.4,1.6,1,2.1c0.6,0.4,1.4,0.6,2.3,0.6c1.2,0,2.9-0.5,2.9-2c0-1.4-1.9-1.7-3-2
			c-3.9-1-8.7-1.1-8.7-6.1c0-4.5,4.9-5.7,8.5-5.7c4.1,0,8.4,1.2,8.6,6h-5.7c0-0.8-0.3-1.3-0.8-1.6c-0.5-0.3-1.2-0.5-1.9-0.5
			c-1,0-2.6,0.1-2.6,1.4c0,1.8,4.1,2.1,6.9,2.7c3.8,0.8,4.8,3.5,4.8,5c0,5-4.8,6.7-9,6.7c-4.4,0-9-1.5-9.1-6.7H263z"/>
		<path fill="#231F20" d="M283.7,5.2h-6.1V0.5h6.1V5.2z M277.6,7.6h6.1v18.7h-6.1V7.6z"/>
		<path fill="#231F20" d="M287.2,7.6h5.9v2.6h0.1c1.1-1.9,3.6-3.1,5.9-3.1c6.2,0,6.7,4.5,6.7,7.2v12h-6.1v-9c0-2.6,0.3-5.1-3.1-5.1
			c-2.3,0-3.3,1.9-3.3,4v10.2h-6.1V7.6z"/>
		<path fill="#231F20" d="M314.3,18.4c0.1,2.6,1.6,4.2,4.2,4.2c1.5,0,2.9-0.7,3.5-2.1h5.7c-1.1,4.3-5.1,6.2-9.3,6.2
			c-6.1,0-10.2-3.7-10.2-9.9c0-5.7,4.6-9.8,10.1-9.8c6.7,0,10,5,9.8,11.4H314.3z M321.9,15c-0.1-2.1-1.6-3.8-3.6-3.8
			c-2.2,0-3.6,1.5-4,3.8H321.9z"/>
		<path fill="#231F20" d="M335,20.1c0,0.9,0.4,1.6,1,2.1c0.6,0.4,1.4,0.6,2.3,0.6c1.2,0,2.9-0.5,2.9-2c0-1.4-1.9-1.7-3-2
			c-3.9-1-8.7-1.1-8.7-6.1c0-4.5,4.9-5.7,8.5-5.7c4.1,0,8.4,1.2,8.6,6H341c0-0.8-0.3-1.3-0.8-1.6c-0.5-0.3-1.2-0.5-1.9-0.5
			c-1,0-2.6,0.1-2.6,1.4c0,1.8,4.1,2.1,6.9,2.7c3.8,0.8,4.8,3.5,4.8,5c0,5-4.8,6.7-9,6.7c-4.4,0-9-1.5-9.1-6.7H335z"/>
		<path fill="#231F20" d="M354.2,20.1c0,0.9,0.4,1.6,1,2.1c0.6,0.4,1.4,0.6,2.3,0.6c1.2,0,2.9-0.5,2.9-2c0-1.4-1.9-1.7-3-2
			c-3.9-1-8.7-1.1-8.7-6.1c0-4.5,4.9-5.7,8.5-5.7c4.1,0,8.4,1.2,8.6,6h-5.7c0-0.8-0.3-1.3-0.8-1.6c-0.5-0.3-1.2-0.5-1.9-0.5
			c-1,0-2.6,0.1-2.6,1.4c0,1.8,4.1,2.1,6.9,2.7c3.8,0.8,4.8,3.5,4.8,5c0,5-4.8,6.7-9,6.7c-4.4,0-9-1.5-9.1-6.7H354.2z"/>
		<path fill="#231F20" d="M396.4,9.7c-0.4-2.6-2.4-4-5.2-4c-4.3,0-6,3.8-6,7.6c0,3.8,1.7,7.6,6,7.6c3.1,0,4.9-1.8,5.2-4.8h6.7
			c-0.4,6.6-5.2,10.5-11.7,10.5c-7.8,0-12.8-5.9-12.8-13.4c0-7.5,5-13.4,12.8-13.4c5.5,0,11.6,3.5,11.7,9.7H396.4z"/>
		<path fill="#231F20" d="M414.6,7c5.8,0,9.9,4.3,9.9,9.9s-4.1,9.9-9.9,9.9s-9.8-4.2-9.8-9.9S408.8,7,414.6,7z M414.6,22.1
			c2.8,0,3.7-2.8,3.7-5.2c0-2.4-0.9-5.2-3.7-5.2s-3.7,2.8-3.7,5.2C410.8,19.3,411.7,22.1,414.6,22.1z"/>
		<path fill="#231F20" d="M445.4,26.2h-5.9v-2.6h-0.1c-1.2,1.9-3.5,3.1-5.7,3.1c-5.4,0-6.9-3.1-6.9-8V7.6h6.1v10.8
			c0,2.5,1.1,3.3,3,3.3c1.3,0,3.3-0.9,3.3-4.2v-10h6.1V26.2z"/>
		<path fill="#231F20" d="M448.6,7.6h5.9v2.6h0.1c1.1-1.9,3.6-3.1,5.9-3.1c6.2,0,6.7,4.5,6.7,7.2v12h-6.1v-9c0-2.6,0.3-5.1-3.1-5.1
			c-2.3,0-3.3,1.9-3.3,4v10.2h-6.1V7.6z"/>
		<path fill="#231F20" d="M482.7,14.4c0-1.6-1.4-2.7-3-2.7c-3.4,0-4,2.9-4,5.5c0,2.4,1,4.9,3.6,4.9c2.1,0,3.2-1.2,3.5-3.2h5.9
			c-0.5,5-4.4,7.9-9.4,7.9c-5.6,0-9.8-3.9-9.8-9.6c0-5.9,3.8-10.2,9.8-10.2c4.6,0,8.8,2.4,9.2,7.4H482.7z"/>
		<path fill="#231F20" d="M497.4,5.2h-6.1V0.5h6.1V5.2z M491.2,7.6h6.1v18.7h-6.1V7.6z"/>
		<path fill="#231F20" d="M501.1,0.5h6.1v25.7h-6.1V0.5z"/>
	</g>
</g>
</svg>
