<?xml version="1.0" encoding="utf-8"?>
<!-- Generator: Adobe Illustrator 18.1.1, SVG Export Plug-In . SVG Version: 6.00 Build 0)  -->
<svg version="1.1" id="Layer_1" xmlns="http://www.w3.org/2000/svg" xmlns:xlink="http://www.w3.org/1999/xlink" x="0px" y="0px"
	 viewBox="0 0 488.8 90" enable-background="new 0 0 488.8 90" xml:space="preserve">
<g>
	<path fill="#231F20" d="M22.9,31.3l-2.6-7.4h-11l-2.6,7.4h-6L11.2,2.4h7.1l10.5,28.9H22.9z M14.8,6.8l-0.1,0.5
		c-0.1,0.5-0.3,1.1-0.5,1.7s-1.4,4.1-3.5,10.4h8.3L16.1,11l-0.9-2.8L14.8,6.8z"/>
	<path fill="#231F20" d="M47.8,31.3h-4.4l-5.8-18.1c0.2,2.1,0.3,3.9,0.3,5.3v12.9h-5V9.1h7.6l3.7,11.5c0.8,2.5,1.2,4.5,1.4,5.9
		c0.2-1.6,0.7-3.6,1.4-5.9l3.6-11.5h7.5v22.2h-5V18.4c0-1.4,0.1-3.2,0.4-5.3L47.8,31.3z"/>
	<path fill="#231F20" d="M73,31.7c-3.3,0-5.9-1-7.7-3s-2.7-4.9-2.7-8.6c0-3.7,0.9-6.5,2.7-8.4s4.4-3,7.7-3c3.2,0,5.6,1.1,7.3,3.2
		S83,17,83,21.1v0.2H68.7c0,2.2,0.4,3.8,1.2,4.9c0.8,1.1,1.9,1.7,3.4,1.7c2,0,3.3-0.9,3.9-2.6l5.4,0.5C81.1,29.7,77.9,31.7,73,31.7z
		 M73,12.3c-1.4,0-2.4,0.5-3.1,1.4c-0.7,0.9-1.1,2.3-1.2,4h8.6c-0.1-1.8-0.5-3.1-1.3-4S74.3,12.3,73,12.3z"/>
	<path fill="#231F20" d="M108.3,20.1c0,3.7-0.7,6.6-2.2,8.6s-3.6,3-6.3,3c-1.6,0-2.9-0.3-4.1-1c-1.2-0.7-2-1.7-2.7-2.9H93
		c0.1,0.4,0.1,1.7,0.1,3.7V40h-5.8V14.2c0-2.1-0.1-3.8-0.2-5.1h5.6c0.1,0.2,0.1,0.7,0.2,1.5S93,12,93,12.7h0.1
		c1.3-2.7,3.7-4.1,7.1-4.1c2.6,0,4.6,1,6,3S108.3,16.4,108.3,20.1z M102.3,20.1c0-5-1.5-7.5-4.6-7.5c-1.5,0-2.7,0.7-3.5,2
		c-0.8,1.3-1.2,3.2-1.2,5.6c0,2.4,0.4,4.2,1.2,5.5c0.8,1.3,2,2,3.5,2C100.8,27.7,102.3,25.2,102.3,20.1z"/>
	<path fill="#231F20" d="M118.3,9.1v10c0,0.6,0,1.6-0.1,3s-0.2,2.3-0.3,2.9l9.2-15.9h5.8v22.2h-5.3V20c0-0.7,0-1.5,0.1-2.5
		s0.2-1.7,0.3-2.1l-8.9,15.9H113V9.1H118.3z"/>
	<path fill="#231F20" d="M138.8,9.1h5.8v9.5c0.6,0,1-0.1,1.3-0.3s0.6-0.5,0.9-0.9s0.7-1,1.1-1.7c0.4-0.7,1.5-2.9,3.3-6.6h5.6
		l-4.2,7.8c-0.6,1.1-1.3,2-2.1,2.7l6.5,11.7H151l-4.8-9.4c-0.4,0.2-1,0.2-1.7,0.2v9.2h-5.8V9.1z"/>
	<path fill="#231F20" d="M164.9,31.7c-2.1,0-3.8-0.6-5-1.8s-1.8-2.8-1.8-4.9c0-2.3,0.7-4,2.2-5.2c1.5-1.2,3.7-1.8,6.5-1.8l4.8-0.1
		v-1.1c0-1.4-0.3-2.5-0.8-3.2s-1.3-1.1-2.5-1.1c-1.1,0-1.8,0.2-2.3,0.7c-0.5,0.5-0.8,1.3-0.9,2.4l-6-0.3c0.4-2.2,1.4-3.8,3-4.9
		c1.6-1.1,3.8-1.7,6.6-1.7c2.8,0,5,0.7,6.5,2.1s2.3,3.3,2.3,5.9v8.1c0,1.2,0.1,2.1,0.4,2.6c0.3,0.5,0.7,0.7,1.4,0.7
		c0.4,0,0.9,0,1.3-0.1V31c-0.3,0.1-0.6,0.2-0.9,0.2s-0.5,0.1-0.8,0.2s-0.6,0.1-0.9,0.1c-0.3,0-0.7,0-1.1,0c-1.4,0-2.5-0.4-3.2-1.1
		c-0.7-0.7-1.1-1.8-1.2-3.1h-0.1C170.6,30.2,168.2,31.7,164.9,31.7z M171.7,21l-3,0c-1.3,0.1-2.3,0.2-2.9,0.4s-1,0.6-1.3,1.1
		s-0.4,1.1-0.4,2c0,1.1,0.2,1.8,0.7,2.3s1.1,0.8,1.9,0.8c0.9,0,1.7-0.2,2.5-0.7c0.7-0.5,1.3-1.2,1.8-2s0.6-1.8,0.6-2.8V21z"/>
	<path fill="#231F20" d="M189,9.1v8.8h7.9V9.1h5.8v22.2h-5.8v-9.5H189v9.5h-5.8V9.1H189z"/>
	<path fill="#231F20" d="M229.6,20.1c0,3.6-1,6.4-3,8.5s-4.8,3.1-8.3,3.1c-3.5,0-6.2-1-8.1-3.1s-3-4.9-3-8.4c0-3.6,1-6.4,3-8.4
		s4.7-3.1,8.3-3.1c3.6,0,6.4,1,8.3,3C228.7,13.6,229.6,16.4,229.6,20.1z M223.6,20.1c0-2.6-0.4-4.6-1.3-5.7s-2.1-1.8-3.8-1.8
		c-3.5,0-5.2,2.5-5.2,7.5c0,2.5,0.4,4.4,1.3,5.6c0.9,1.3,2.1,1.9,3.7,1.9C221.8,27.7,223.6,25.2,223.6,20.1z"/>
	<path fill="#231F20" d="M232.9,22.9v-5h10.7v5H232.9z"/>
	<path fill="#231F20" d="M271.8,11.5c0,1.9-0.4,3.5-1.3,5s-2.1,2.6-3.6,3.4c-1.6,0.8-3.5,1.2-5.6,1.2h-7.2v10.2h-6V2.4h13
		c3.5,0,6.1,0.8,8,2.4C270.9,6.3,271.8,8.6,271.8,11.5z M265.7,11.6c0-3-1.8-4.6-5.4-4.6h-6.3v9.4h6.4c1.7,0,3-0.4,3.9-1.2
		S265.7,13.2,265.7,11.6z"/>
	<path fill="#231F20" d="M296.2,20.1c0,3.6-1,6.4-3,8.5s-4.8,3.1-8.3,3.1c-3.5,0-6.2-1-8.1-3.1s-3-4.9-3-8.4c0-3.6,1-6.4,3-8.4
		s4.7-3.1,8.3-3.1c3.6,0,6.4,1,8.3,3C295.3,13.6,296.2,16.4,296.2,20.1z M290.2,20.1c0-2.6-0.4-4.6-1.3-5.7s-2.1-1.8-3.8-1.8
		c-3.5,0-5.2,2.5-5.2,7.5c0,2.5,0.4,4.4,1.3,5.6c0.9,1.3,2.1,1.9,3.7,1.9C288.4,27.7,290.2,25.2,290.2,20.1z"/>
	<path fill="#231F20" d="M309.5,31.7c-3.4,0-6-1-7.8-3s-2.7-4.8-2.7-8.4c0-3.7,0.9-6.5,2.8-8.6s4.5-3.1,7.9-3.1c2.6,0,4.8,0.7,6.5,2
		s2.8,3.1,3.2,5.4l-5.8,0.3c-0.2-1.1-0.6-2-1.2-2.7s-1.6-1-2.8-1c-3,0-4.5,2.5-4.5,7.4c0,5.1,1.5,7.7,4.5,7.7c1.1,0,2-0.3,2.7-1
		s1.2-1.7,1.4-3.1l5.8,0.3c-0.2,1.5-0.7,2.9-1.6,4.1c-0.9,1.2-2,2.1-3.5,2.8S311.3,31.7,309.5,31.7z"/>
	<path fill="#231F20" d="M332.9,31.7c-3.4,0-6-1-7.8-3s-2.7-4.8-2.7-8.4c0-3.7,0.9-6.5,2.8-8.6s4.5-3.1,7.9-3.1c2.6,0,4.8,0.7,6.5,2
		s2.8,3.1,3.2,5.4l-5.8,0.3c-0.2-1.1-0.6-2-1.2-2.7s-1.6-1-2.8-1c-3,0-4.5,2.5-4.5,7.4c0,5.1,1.5,7.7,4.5,7.7c1.1,0,2-0.3,2.7-1
		s1.2-1.7,1.4-3.1l5.8,0.3c-0.2,1.5-0.7,2.9-1.6,4.1c-0.9,1.2-2,2.1-3.5,2.8S334.7,31.7,332.9,31.7z"/>
	<path fill="#231F20" d="M352.3,9.1v10c0,0.6,0,1.6-0.1,3s-0.2,2.3-0.3,2.9l9.2-15.9h5.8v22.2h-5.3V20c0-0.7,0-1.5,0.1-2.5
		s0.2-1.7,0.3-2.1l-8.9,15.9H347V9.1H352.3z"/>
	<path fill="#231F20" d="M378.1,9.1v10c0,0.6,0,1.6-0.1,3s-0.2,2.3-0.3,2.9l9.2-15.9h5.8v22.2h-5.3V20c0-0.7,0-1.5,0.1-2.5
		s0.2-1.7,0.3-2.1l-8.9,15.9h-6.2V9.1H378.1z M382.9,7c-2.7,0-4.8-0.6-6.1-1.7s-2.1-2.9-2.2-5.3h4.6c0.1,2.7,1.4,4.1,3.8,4.1
		s3.6-1.4,3.8-4.1h4.6c-0.1,2.4-0.8,4.2-2.2,5.3C387.7,6.4,385.7,7,382.9,7z"/>
	<path fill="#231F20" d="M407.9,31.7c-3.4,0-6-1-7.8-3s-2.7-4.8-2.7-8.4c0-3.7,0.9-6.5,2.8-8.6s4.5-3.1,7.9-3.1c2.6,0,4.8,0.7,6.5,2
		s2.8,3.1,3.2,5.4l-5.8,0.3c-0.2-1.1-0.6-2-1.2-2.7s-1.6-1-2.8-1c-3,0-4.5,2.5-4.5,7.4c0,5.1,1.5,7.7,4.5,7.7c1.1,0,2-0.3,2.7-1
		s1.2-1.7,1.4-3.1l5.8,0.3c-0.2,1.5-0.7,2.9-1.6,4.1c-0.9,1.2-2,2.1-3.5,2.8S409.7,31.7,407.9,31.7z"/>
	<path fill="#231F20" d="M421.9,9.1h5.8v9.5c0.6,0,1-0.1,1.3-0.3s0.6-0.5,0.9-0.9s0.7-1,1.1-1.7c0.4-0.7,1.5-2.9,3.3-6.6h5.6
		l-4.2,7.8c-0.6,1.1-1.3,2-2.1,2.7l6.5,11.7h-5.9l-4.8-9.4c-0.4,0.2-1,0.2-1.7,0.2v9.2h-5.8V9.1z"/>
	<path fill="#231F20" d="M448.3,9.1v10c0,0.6,0,1.6-0.1,3s-0.2,2.3-0.3,2.9l9.2-15.9h5.8v22.2h-5.3V20c0-0.7,0-1.5,0.1-2.5
		s0.2-1.7,0.3-2.1l-8.9,15.9H443V9.1H448.3z"/>
	<path fill="#231F20" d="M474.2,9.1v10c0,0.6,0,1.6-0.1,3s-0.2,2.3-0.3,2.9l9.2-15.9h5.8v22.2h-5.3V20c0-0.7,0-1.5,0.1-2.5
		s0.2-1.7,0.3-2.1l-8.9,15.9h-6.2V9.1H474.2z M479,7c-2.7,0-4.8-0.6-6.1-1.7s-2.1-2.9-2.2-5.3h4.6c0.1,2.7,1.4,4.1,3.8,4.1
		s3.6-1.4,3.8-4.1h4.6c-0.1,2.4-0.8,4.2-2.2,5.3C483.7,6.4,481.7,7,479,7z"/>
	<path fill="#231F20" d="M25,76.6h3.8V90h-5.1v-8.4H5.1V90H0V76.6h3.2c1-1.8,1.9-4,2.6-6.6s1.3-5.3,1.7-8.1l1.3-9.1H25V76.6z
		 M19.2,76.6V57.8h-5.4l-0.6,4.8c-0.4,2.8-0.9,5.5-1.6,8s-1.3,4.6-2,6.1H19.2z"/>
	<path fill="#231F20" d="M42.1,82.1c-3.3,0-5.9-1-7.7-3s-2.7-4.9-2.7-8.6c0-3.7,0.9-6.5,2.7-8.4s4.4-3,7.7-3c3.2,0,5.6,1.1,7.3,3.2
		s2.5,5.2,2.5,9.3v0.2H37.8c0,2.2,0.4,3.8,1.2,4.9c0.8,1.1,1.9,1.7,3.4,1.7c2,0,3.3-0.9,3.9-2.6l5.4,0.5
		C50.1,80.1,46.9,82.1,42.1,82.1z M42.1,62.7c-1.4,0-2.4,0.5-3.1,1.4c-0.7,0.9-1.1,2.3-1.2,4h8.6c-0.1-1.8-0.5-3.1-1.3-4
		S43.4,62.7,42.1,62.7z"/>
	<path fill="#231F20" d="M71.4,81.7V63.4H65c-0.7,5.4-1.3,9.1-1.7,11.1c-0.4,2.1-0.9,3.6-1.4,4.6s-1.1,1.8-1.9,2.3s-1.8,0.7-3,0.7
		c-0.5,0-1.1,0-1.7-0.1c-0.7-0.1-1.1-0.1-1.4-0.2v-3.9c0.3,0.1,0.8,0.2,1.4,0.2c0.8,0,1.3-0.4,1.8-1.1s0.8-2.1,1.2-4.2
		c0.4-2.1,1.1-6.5,2-13.4h17v22.2H71.4z"/>
	<path fill="#231F20" d="M103.6,70.5c0,3.6-1,6.4-3,8.5s-4.8,3.1-8.3,3.1c-3.5,0-6.2-1-8.1-3.1s-3-4.9-3-8.4c0-3.6,1-6.4,3-8.4
		s4.7-3.1,8.3-3.1c3.6,0,6.4,1,8.3,3C102.6,64,103.6,66.8,103.6,70.5z M97.5,70.5c0-2.6-0.4-4.6-1.3-5.7S94.1,63,92.5,63
		c-3.5,0-5.2,2.5-5.2,7.5c0,2.5,0.4,4.4,1.3,5.6c0.9,1.3,2.1,1.9,3.7,1.9C95.8,78.1,97.5,75.6,97.5,70.5z"/>
	<path fill="#231F20" d="M119.1,59.5c6.4,0,9.6,1.9,9.6,5.6c0,1.3-0.4,2.3-1.3,3.2s-2.1,1.4-3.7,1.7V70c1.8,0.2,3.2,0.8,4.2,1.7
		c0.9,0.9,1.4,2.1,1.4,3.5c0,2.1-0.8,3.7-2.5,4.8c-1.6,1.1-3.9,1.6-6.9,1.6h-11.9V59.5H119.1z M113.9,63.1v5.3h4.3
		c1.7,0,2.8-0.2,3.5-0.6c0.7-0.4,1-1.1,1-2.1c0-0.9-0.3-1.6-1-2s-1.8-0.6-3.3-0.6H113.9z M113.9,78.1h4.7c1.8,0,3.1-0.2,3.8-0.7
		s1.1-1.2,1.1-2.3c0-1.2-0.4-2-1.2-2.4s-2.1-0.7-4-0.7h-4.4V78.1z"/>
	<path fill="#231F20" d="M154.5,70.5c0,3.6-1,6.4-3,8.5s-4.8,3.1-8.3,3.1c-3.5,0-6.2-1-8.1-3.1s-3-4.9-3-8.4c0-3.6,1-6.4,3-8.4
		s4.7-3.1,8.3-3.1c3.6,0,6.4,1,8.3,3C153.5,64,154.5,66.8,154.5,70.5z M148.5,70.5c0-2.6-0.4-4.6-1.3-5.7s-2.1-1.8-3.8-1.8
		c-3.5,0-5.2,2.5-5.2,7.5c0,2.5,0.4,4.4,1.3,5.6c0.9,1.3,2.1,1.9,3.7,1.9C146.7,78.1,148.5,75.6,148.5,70.5z"/>
	<path fill="#231F20" d="M164.4,59.5v10c0,0.6,0,1.6-0.1,3s-0.2,2.3-0.3,2.9l9.2-15.9h5.8v22.2h-5.3V70.4c0-0.7,0-1.5,0.1-2.5
		s0.2-1.7,0.3-2.1l-8.9,15.9H159V59.5H164.4z M169.2,57.4c-2.7,0-4.8-0.6-6.1-1.7s-2.1-2.9-2.2-5.3h4.6c0.1,2.7,1.4,4.1,3.8,4.1
		s3.6-1.4,3.8-4.1h4.6c-0.1,2.4-0.8,4.2-2.2,5.3C174,56.8,171.9,57.4,169.2,57.4z"/>
	<path fill="#231F20" d="M209.9,77.3c3.7,0,6.2-1.8,7.6-5.5l5.3,2c-1.1,2.8-2.8,4.9-5,6.2c-2.2,1.4-4.8,2-7.9,2
		c-4.6,0-8.2-1.3-10.8-3.9c-2.5-2.6-3.8-6.3-3.8-11c0-4.7,1.2-8.4,3.7-10.9s6-3.8,10.6-3.8c3.4,0,6.2,0.7,8.3,2s3.6,3.4,4.5,6
		l-5.3,1.5c-0.5-1.4-1.3-2.6-2.7-3.5c-1.3-0.9-2.9-1.3-4.7-1.3c-2.7,0-4.8,0.8-6.2,2.5c-1.4,1.7-2.1,4.2-2.1,7.4
		c0,3.3,0.7,5.9,2.2,7.6C205.1,76.4,207.2,77.3,209.9,77.3z"/>
	<path fill="#231F20" d="M248,70.5c0,3.6-1,6.4-3,8.5s-4.8,3.1-8.3,3.1c-3.5,0-6.2-1-8.1-3.1s-3-4.9-3-8.4c0-3.6,1-6.4,3-8.4
		s4.7-3.1,8.3-3.1c3.6,0,6.4,1,8.3,3C247,64,248,66.8,248,70.5z M241.9,70.5c0-2.6-0.4-4.6-1.3-5.7s-2.1-1.8-3.8-1.8
		c-3.5,0-5.2,2.5-5.2,7.5c0,2.5,0.4,4.4,1.3,5.6c0.9,1.3,2.1,1.9,3.7,1.9C240.2,78.1,241.9,75.6,241.9,70.5z"/>
	<path fill="#231F20" d="M263.5,59.5c6.4,0,9.6,1.9,9.6,5.6c0,1.3-0.4,2.3-1.3,3.2s-2.1,1.4-3.7,1.7V70c1.8,0.2,3.2,0.8,4.2,1.7
		c0.9,0.9,1.4,2.1,1.4,3.5c0,2.1-0.8,3.7-2.5,4.8c-1.6,1.1-3.9,1.6-6.9,1.6h-11.9V59.5H263.5z M258.3,63.1v5.3h4.3
		c1.7,0,2.8-0.2,3.5-0.6c0.7-0.4,1-1.1,1-2.1c0-0.9-0.3-1.6-1-2s-1.8-0.6-3.3-0.6H258.3z M258.3,78.1h4.7c1.8,0,3.1-0.2,3.8-0.7
		s1.1-1.2,1.1-2.3c0-1.2-0.4-2-1.2-2.4s-2.1-0.7-4-0.7h-4.4V78.1z"/>
	<path fill="#231F20" d="M286.9,82.1c-3.3,0-5.9-1-7.7-3s-2.7-4.9-2.7-8.6c0-3.7,0.9-6.5,2.7-8.4s4.4-3,7.7-3c3.2,0,5.6,1.1,7.3,3.2
		s2.5,5.2,2.5,9.3v0.2h-14.2c0,2.2,0.4,3.8,1.2,4.9c0.8,1.1,1.9,1.7,3.4,1.7c2,0,3.3-0.9,3.9-2.6l5.4,0.5
		C294.9,80.1,291.7,82.1,286.9,82.1z M286.9,62.7c-1.4,0-2.4,0.5-3.1,1.4c-0.7,0.9-1.1,2.3-1.2,4h8.6c-0.1-1.8-0.5-3.1-1.3-4
		S288.2,62.7,286.9,62.7z"/>
	<path fill="#231F20" d="M298.9,59.5h18.2v3.9h-6.2v18.3h-5.8V63.4h-6.2V59.5z"/>
</g>
</svg>
