<?xml version="1.0" encoding="utf-8"?>
<!-- Generator: Adobe Illustrator 19.0.0, SVG Export Plug-In . SVG Version: 6.00 Build 0)  -->
<svg version="1.1" xmlns="http://www.w3.org/2000/svg" xmlns:xlink="http://www.w3.org/1999/xlink" x="0px" y="0px"
	 viewBox="0 0 142.4 135.9" style="enable-background:new 0 0 142.4 135.9;" xml:space="preserve">
<style type="text/css">
	.st0{display:none;}
	.st1{display:inline;}
	.st2{fill:#101820;}
	.st3{display:inline;fill:#101820;}
	.st4{fill:#0435BF;}
	.st5{fill:#EC1C24;}
	.st6{display:inline;fill:#EC1C24;}
</style>
<g id="logotype__x28_not_outlines_x29_" class="st0">
	<text id="Acronym" transform="matrix(1.0195 0 0 1 175.3231 55.0046)" class="st1"><tspan x="0" y="0" class="st2" style="font-family:'HelveticaNeueLTStd-Hv'; font-size:48px; letter-spacing:-1;">USRBC</tspan><tspan x="0" y="56.5" class="st2" style="font-family:'HelveticaNeueCyr-Heavy'; font-size:48px; letter-spacing:1;">А</tspan><tspan x="35.1" y="56.5" class="st2" style="font-family:'HelveticaNeueCyr-Heavy'; font-size:48px; letter-spacing:-1;">РДС</tspan></text>
	<rect id="XMLID_121_" x="174.5" y="17.2" style="display:inline;fill:none;" width="204.9" height="102"/>
	<text id="English__x28_3_lines_x29_" transform="matrix(1 0 0 1 174.4577 41.2365)" class="st1"><tspan x="0" y="0" class="st2" style="font-family:'HelveticaNeueLTStd-Hv'; font-size:33.7px; letter-spacing:-1;">U</tspan><tspan x="23.1" y="0" class="st2" style="font-family:'HelveticaNeueLTStd-Hv'; font-size:30px; letter-spacing:-1;">.</tspan><tspan x="31.5" y="0" class="st2" style="font-family:'HelveticaNeueLTStd-Hv'; font-size:33.7px;">S</tspan><tspan x="53.5" y="0" class="st2" style="font-family:'HelveticaNeueLTStd-Hv'; font-size:30px;">.</tspan><tspan x="63.7" y="0" class="st2" style="font-family:'HelveticaNeueLTStd-Hv'; font-size:33.7px; letter-spacing:1;">-</tspan><tspan x="79" y="0" class="st2" style="font-family:'HelveticaNeueLTStd-Hv'; font-size:33.7px;">R</tspan><tspan x="102.8" y="0" class="st2" style="font-family:'HelveticaNeueLTStd-Hv'; font-size:33.7px; letter-spacing:-1;">u</tspan><tspan x="122.9" y="0" class="st2" style="font-family:'HelveticaNeueLTStd-Hv'; font-size:33.7px;">s</tspan><tspan x="141.1" y="0" class="st2" style="font-family:'HelveticaNeueLTStd-Hv'; font-size:33.7px; letter-spacing:-1;">si</tspan><tspan x="167.4" y="0" class="st2" style="font-family:'HelveticaNeueLTStd-Hv'; font-size:33.7px;">a</tspan><tspan x="0" y="37.1" class="st2" style="font-family:'HelveticaNeueLTStd-Hv'; font-size:33.7px;">Business </tspan><tspan x="0" y="74.2" class="st2" style="font-family:'HelveticaNeueLTStd-Hv'; font-size:33.7px;">C</tspan><tspan x="25.5" y="74.2" class="st2" style="font-family:'HelveticaNeueLTStd-Hv'; font-size:33.7px; letter-spacing:-1;">ou</tspan><tspan x="65" y="74.2" class="st2" style="font-family:'HelveticaNeueLTStd-Hv'; font-size:33.7px;">nc</tspan><tspan x="105.2" y="74.2" class="st2" style="font-family:'HelveticaNeueLTStd-Hv'; font-size:33.7px; letter-spacing:-1;">i</tspan><tspan x="114" y="74.2" class="st2" style="font-family:'HelveticaNeueLTStd-Hv'; font-size:33.7px;">l</tspan></text>
	<text id="English__x28_2_lines_x29_" transform="matrix(1 0 0 1 172.4577 57.4459)" class="st1"><tspan x="0" y="0" class="st2" style="font-family:'HelveticaNeueLTStd-Hv'; font-size:48px; letter-spacing:-2;">U</tspan><tspan x="32.9" y="0" class="st2" style="font-family:'HelveticaNeueLTStd-Hv'; font-size:48px; letter-spacing:-1;">.</tspan><tspan x="46.4" y="0" class="st2" style="font-family:'HelveticaNeueLTStd-Hv'; font-size:48px;">S</tspan><tspan x="77.7" y="0" class="st2" style="font-family:'HelveticaNeueLTStd-Hv'; font-size:48px; letter-spacing:1;">.</tspan><tspan x="94.1" y="0" class="st2" style="font-family:'HelveticaNeueLTStd-Hv'; font-size:48px; letter-spacing:2;">-</tspan><tspan x="115.8" y="0" class="st2" style="font-family:'HelveticaNeueLTStd-Hv'; font-size:48px;">R</tspan><tspan x="149.7" y="0" class="st2" style="font-family:'HelveticaNeueLTStd-Hv'; font-size:48px; letter-spacing:-1;">u</tspan><tspan x="178.3" y="0" class="st2" style="font-family:'HelveticaNeueLTStd-Hv'; font-size:48px;">s</tspan><tspan x="204.2" y="0" class="st2" style="font-family:'HelveticaNeueLTStd-Hv'; font-size:48px; letter-spacing:-1;">si</tspan><tspan x="241.8" y="0" class="st2" style="font-family:'HelveticaNeueLTStd-Hv'; font-size:48px;">a</tspan><tspan x="0" y="50" class="st2" style="font-family:'HelveticaNeueLTStd-Hv'; font-size:48px;">Business </tspan><tspan x="227.4" y="50" class="st2" style="font-family:'HelveticaNeueLTStd-Hv'; font-size:48px;">C</tspan><tspan x="263.7" y="50" class="st2" style="font-family:'HelveticaNeueLTStd-Hv'; font-size:48px; letter-spacing:-1;">ou</tspan><tspan x="319.9" y="50" class="st2" style="font-family:'HelveticaNeueLTStd-Hv'; font-size:48px;">nc</tspan><tspan x="377.2" y="50" class="st2" style="font-family:'HelveticaNeueLTStd-Hv'; font-size:48px; letter-spacing:-1;">i</tspan><tspan x="389.7" y="50" class="st2" style="font-family:'HelveticaNeueLTStd-Hv'; font-size:48px;">l</tspan></text>
	<text transform="matrix(1 0 0 1 175.4579 41.4285)" class="st3" style="font-family:'HelveticaNeueCyr-Heavy'; font-size:33px;">А</text>
	
		<text transform="matrix(1 0 0 1 198.6894 41.4285)" class="st3" style="font-family:'HelveticaNeueCyr-Heavy'; font-size:33px; letter-spacing:-1;">м</text>
	<text transform="matrix(1 0 0 1 223.0429 41.4285)" class="st3" style="font-family:'HelveticaNeueCyr-Heavy'; font-size:33px;">е</text>
	
		<text transform="matrix(1 0 0 1 242.5458 41.4285)" class="st3" style="font-family:'HelveticaNeueCyr-Heavy'; font-size:33px; letter-spacing:-1;">ри</text>
	<text transform="matrix(1 0 0 1 281.4843 41.4285)" class="st3" style="font-family:'HelveticaNeueCyr-Heavy'; font-size:33px;">ка</text>
	
		<text transform="matrix(1 0 0 1 319.3017 41.4285)" class="st3" style="font-family:'HelveticaNeueCyr-Heavy'; font-size:33px; letter-spacing:-1;">н</text>
	
		<text transform="matrix(1 0 0 1 338.7704 41.4285)" class="st3" style="font-family:'HelveticaNeueCyr-Heavy'; font-size:33px; letter-spacing:1;">о</text>
	<text transform="matrix(1 0 0 1 360.913 41.4285)" class="st3" style="font-family:'HelveticaNeueLTStd-Hv'; font-size:33px;">- </text>
	
		<text transform="matrix(1 0 0 1 175.4579 78.5286)" class="st3" style="font-family:'HelveticaNeueCyr-Heavy'; font-size:33px; letter-spacing:-1;">Р</text>
	<text transform="matrix(1 0 0 1 196.7431 78.5286)" class="st3" style="font-family:'HelveticaNeueCyr-Heavy'; font-size:33px;">ос</text>
	
		<text transform="matrix(1 0 0 1 235.1533 78.5286)" class="st3" style="font-family:'HelveticaNeueCyr-Heavy'; font-size:33px; letter-spacing:-1;">сий</text>
	<text transform="matrix(1 0 0 1 292.3408 78.5286)" class="st3" style="font-family:'HelveticaNeueCyr-Heavy'; font-size:33px;">с</text>
	<text transform="matrix(1 0 0 1 311.249 78.5286)" class="st3" style="font-family:'HelveticaNeueCyr-Heavy'; font-size:33px;">к</text>
	
		<text transform="matrix(1 0 0 1 330.8173 78.5286)" class="st3" style="font-family:'HelveticaNeueCyr-Heavy'; font-size:33px; letter-spacing:-1;">и</text>
	<text transform="matrix(1 0 0 1 350.287 78.5286)" class="st3" style="font-family:'HelveticaNeueCyr-Heavy'; font-size:33px;">й </text>
	<text transform="matrix(1 0 0 1 175.4579 115.6287)" class="st3" style="font-family:'HelveticaNeueCyr-Heavy'; font-size:33px;">Де</text>
	
		<text transform="matrix(1 0 0 1 221.2939 115.6287)" class="st3" style="font-family:'HelveticaNeueCyr-Heavy'; font-size:33px; letter-spacing:-1;">лов</text>
	<text transform="matrix(1 0 0 1 277.8222 115.6287)" class="st3" style="font-family:'HelveticaNeueCyr-Heavy'; font-size:33px;">ой С</text>
	
		<text transform="matrix(1 0 0 1 351.5751 115.6287)" class="st3" style="font-family:'HelveticaNeueCyr-Heavy'; font-size:33px; letter-spacing:-1;">ов</text>
	<text transform="matrix(1 0 0 1 389.2597 115.6287)" class="st3" style="font-family:'HelveticaNeueCyr-Heavy'; font-size:33px;">ет</text>
	<text id="Russian__x28_2_lines_x29_" transform="matrix(1 0 0 1 175.1246 59.7968)" class="st1"><tspan x="0" y="0" class="st2" style="font-family:'HelveticaNeueCyr-Heavy'; font-size:48px;">А</tspan><tspan x="33.8" y="0" class="st2" style="font-family:'HelveticaNeueCyr-Heavy'; font-size:48px; letter-spacing:-1;">м</tspan><tspan x="69.2" y="0" class="st2" style="font-family:'HelveticaNeueCyr-Heavy'; font-size:48px;">е</tspan><tspan x="97.6" y="0" class="st2" style="font-family:'HelveticaNeueCyr-Heavy'; font-size:48px; letter-spacing:-1;">ри</tspan><tspan x="154.2" y="0" class="st2" style="font-family:'HelveticaNeueCyr-Heavy'; font-size:48px;">ка</tspan><tspan x="209.2" y="0" class="st2" style="font-family:'HelveticaNeueCyr-Heavy'; font-size:48px; letter-spacing:-1;">н</tspan><tspan x="237.5" y="0" class="st2" style="font-family:'HelveticaNeueCyr-Heavy'; font-size:48px; letter-spacing:2;">о</tspan><tspan x="269.8" y="0" class="st2" style="font-family:'HelveticaNeueCyr-Heavy'; font-size:48px;">-</tspan><tspan x="288.3" y="0" class="st2" style="font-family:'HelveticaNeueCyr-Heavy'; font-size:48px; letter-spacing:-1;">Р</tspan><tspan x="319.3" y="0" class="st2" style="font-family:'HelveticaNeueCyr-Heavy'; font-size:48px;">ос</tspan><tspan x="375.2" y="0" class="st2" style="font-family:'HelveticaNeueCyr-Heavy'; font-size:48px; letter-spacing:-1;">сий</tspan><tspan x="458.3" y="0" class="st2" style="font-family:'HelveticaNeueCyr-Heavy'; font-size:48px;">с</tspan><tspan x="485.8" y="0" class="st2" style="font-family:'HelveticaNeueCyr-Heavy'; font-size:48px;">к</tspan><tspan x="514.3" y="0" class="st2" style="font-family:'HelveticaNeueCyr-Heavy'; font-size:48px; letter-spacing:-1;">и</tspan><tspan x="542.6" y="0" class="st2" style="font-family:'HelveticaNeueCyr-Heavy'; font-size:48px;">й </tspan><tspan x="0" y="48" class="st2" style="font-family:'HelveticaNeueCyr-Heavy'; font-size:48px;">Де</tspan><tspan x="66.7" y="48" class="st2" style="font-family:'HelveticaNeueCyr-Heavy'; font-size:48px; letter-spacing:-1;">лов</tspan><tspan x="148.9" y="48" class="st2" style="font-family:'HelveticaNeueCyr-Heavy'; font-size:48px;">ой С</tspan><tspan x="256.2" y="48" class="st2" style="font-family:'HelveticaNeueCyr-Heavy'; font-size:48px; letter-spacing:-1;">ов</tspan><tspan x="311" y="48" class="st2" style="font-family:'HelveticaNeueCyr-Heavy'; font-size:48px;">ет</tspan></text>
	<g id="Bilinguil" class="st1">
		
			<text id="XMLID_9_" transform="matrix(0.986 0 0 1 176.4984 102.6726)" class="st2" style="font-family:'HelveticaNeueCyr-Heavy'; font-size:37px;">Американо-Российски Деловой Совет</text>
		<text id="XMLID_8_" transform="matrix(0.986 0 0 1 174.4579 53.3908)"><tspan x="0" y="0" class="st2" style="font-family:'HelveticaNeueLTStd-Hv'; font-size:37px;">U.S</tspan><tspan x="61.2" y="0" class="st2" style="font-family:'HelveticaNeueLTStd-Hv'; font-size:37px;">.</tspan><tspan x="72.8" y="0" class="st2" style="font-family:'HelveticaNeueLTStd-Hv'; font-size:37px; letter-spacing:1;">–</tspan><tspan x="92.7" y="0" class="st2" style="font-family:'HelveticaNeueLTStd-Hv'; font-size:37px;">Russia Business Council</tspan></text>
	</g>
</g>
<g id="logotype__x28_outlined_x29_">
	<g id="English__x28_2_lines_x29__2_" class="st0">
		<path id="XMLID_408_" class="st3" d="M196.5,32.9c0,7-3.2,10.4-10.5,10.4c-7.3,0-10.5-3.5-10.5-10.4V18.8h6.3v14.5
			c0,3.1,1.1,4.7,4.2,4.7s4.2-1.6,4.2-4.7V18.8h6.3V32.9z"/>
		<path id="XMLID_410_" class="st3" d="M198.6,37.3h5.6v5.6h-5.6V37.3z"/>
		<path id="XMLID_412_" class="st3" d="M212.1,34.8c0.1,2.8,1.9,3.7,4.5,3.7c1.9,0,3.8-0.7,3.8-2.5c0-2.1-3.4-2.5-6.9-3.5
			c-3.4-1-7-2.5-7-6.9c0-5.3,5.3-7.3,9.8-7.3c4.8,0,9.6,2.3,9.6,7.8h-6.3c0.1-2.2-2-2.9-3.9-2.9c-1.3,0-3,0.5-3,2.1
			c0,1.9,3.5,2.2,7,3.2c3.5,1,7,2.6,7,6.9c0,6.1-5.2,8.1-10.5,8.1c-5.5,0-10.4-2.4-10.4-8.6H212.1z"/>
		<path id="XMLID_414_" class="st3" d="M229,37.3h5.6v5.6H229V37.3z"/>
		<path id="XMLID_416_" class="st3" d="M238.9,36.1v-4.9h10.5v4.9H238.9z"/>
		<path id="XMLID_418_" class="st3" d="M254.6,18.8h12.3c4.2,0,8.4,1.9,8.4,6.8c0,2.6-1.2,5.1-3.8,6v0.1c2.6,0.6,3.3,3.5,3.5,5.8
			c0.1,1,0.2,4.6,1,5.4h-6.2c-0.5-0.8-0.6-3.2-0.7-3.8c-0.2-2.4-0.6-4.9-3.5-4.9h-4.8v8.8h-6.3V18.8z M260.9,29.2h5.3
			c1.9,0,2.9-1,2.9-2.8c0-1.8-1.4-2.6-3.2-2.6h-5V29.2z"/>
		<path id="XMLID_421_" class="st3" d="M295.6,42.9h-5.6v-2.4H290c-1.1,1.8-3.3,2.9-5.3,2.9c-5,0-6.5-2.9-6.5-7.5V25.4h5.7v10.1
			c0,2.3,1,3.1,2.8,3.1c1.2,0,3.1-0.8,3.1-3.9v-9.4h5.7V42.9z"/>
		<path id="XMLID_423_" class="st3" d="M302.7,37.1c0,0.9,0.4,1.5,0.9,2c0.5,0.4,1.3,0.6,2.1,0.6c1.1,0,2.7-0.5,2.7-1.9
			c0-1.3-1.8-1.6-2.8-1.9c-3.6-0.9-8.1-1-8.1-5.7c0-4.2,4.5-5.4,8-5.4c3.8,0,7.9,1.1,8.1,5.7h-5.3c0-0.7-0.3-1.2-0.7-1.5
			c-0.5-0.3-1.1-0.4-1.8-0.4c-0.9,0-2.5,0.1-2.5,1.3c0,1.7,3.8,2,6.5,2.5c3.5,0.7,4.4,3.3,4.4,4.7c0,4.7-4.4,6.2-8.4,6.2
			c-4.1,0-8.4-1.4-8.6-6.3H302.7z"/>
		<path id="XMLID_425_" class="st3" d="M321,37.1c0,0.9,0.4,1.5,0.9,2c0.5,0.4,1.3,0.6,2.1,0.6c1.1,0,2.7-0.5,2.7-1.9
			c0-1.3-1.8-1.6-2.8-1.9c-3.6-0.9-8.1-1-8.1-5.7c0-4.2,4.5-5.4,8-5.4c3.8,0,7.9,1.1,8.1,5.7h-5.3c0-0.7-0.3-1.2-0.7-1.5
			c-0.5-0.3-1.1-0.4-1.8-0.4c-0.9,0-2.5,0.1-2.5,1.3c0,1.7,3.8,2,6.5,2.5c3.5,0.7,4.4,3.3,4.4,4.7c0,4.7-4.4,6.2-8.4,6.2
			c-4.1,0-8.4-1.4-8.6-6.3H321z"/>
		<path id="XMLID_427_" class="st3" d="M340,23.2h-5.7v-4.4h5.7V23.2z M334.3,25.4h5.7v17.5h-5.7V25.4z"/>
		<path id="XMLID_430_" class="st3" d="M342.6,30.8c0.1-2.3,1.2-3.8,2.7-4.7c1.5-0.9,3.6-1.2,5.6-1.2c4.1,0,8.2,0.9,8.2,5.9v7.7
			c0,1.5,0,3.1,0.7,4.5H354c-0.2-0.5-0.3-1.1-0.3-1.7c-1.5,1.6-3.7,2.2-5.8,2.2c-3.3,0-6-1.7-6-5.3c0-5.7,6.2-5.3,10.2-6.1
			c1-0.2,1.5-0.5,1.5-1.6c0-1.3-1.6-1.8-2.8-1.8c-1.6,0-2.6,0.7-2.9,2.2H342.6z M350,39.8c2.7,0,3.6-1.6,3.5-5.2
			c-0.8,0.5-2.3,0.6-3.5,0.9c-1.3,0.3-2.4,0.8-2.4,2.2C347.6,39.2,348.8,39.8,350,39.8z"/>
		<path id="XMLID_433_" class="st3" d="M175.7,55.9h11.3c4.1-0.1,8.7,1,8.7,6c0,2.2-1.3,3.9-3.2,4.9c2.6,0.7,4.1,3,4.1,5.7
			c0,5.7-4.2,7.5-9.4,7.5h-11.6V55.9z M181.9,65.4h4.9c1.1,0,2.6-0.6,2.6-2.3c0-1.8-1.2-2.3-2.6-2.3h-4.9V65.4z M181.9,74.9h5
			c2,0,3.4-0.7,3.4-2.7c0-2.1-1.5-2.8-3.4-2.8h-5V74.9z"/>
		<path id="XMLID_437_" class="st3" d="M216.6,80h-5.6v-2.4H211c-1.1,1.8-3.3,2.9-5.3,2.9c-5,0-6.5-2.9-6.5-7.5V62.5h5.7v10.1
			c0,2.3,1,3.1,2.8,3.1c1.2,0,3.1-0.8,3.1-3.9v-9.4h5.7V80z"/>
		<path id="XMLID_439_" class="st3" d="M224.4,74.2c0,0.9,0.4,1.5,0.9,2c0.5,0.4,1.3,0.6,2.1,0.6c1.1,0,2.7-0.5,2.7-1.9
			c0-1.3-1.8-1.6-2.8-1.9c-3.6-0.9-8.1-1-8.1-5.7c0-4.2,4.5-5.4,8-5.4c3.8,0,7.9,1.1,8.1,5.7H230c0-0.7-0.3-1.2-0.7-1.5
			c-0.5-0.3-1.1-0.4-1.8-0.4c-0.9,0-2.5,0.1-2.5,1.3c0,1.7,3.8,2,6.5,2.5c3.5,0.7,4.4,3.3,4.4,4.7c0,4.7-4.4,6.2-8.4,6.2
			c-4.1,0-8.4-1.4-8.6-6.3H224.4z"/>
		<path id="XMLID_441_" class="st3" d="M244.1,60.3h-5.7v-4.4h5.7V60.3z M238.4,62.5h5.7V80h-5.7V62.5z"/>
		<path id="XMLID_444_" class="st3" d="M247.7,62.5h5.6v2.4h0.1c1-1.8,3.4-2.9,5.5-2.9c5.8,0,6.3,4.2,6.3,6.8V80h-5.7v-8.5
			c0-2.4,0.3-4.8-2.9-4.8c-2.2,0-3.1,1.8-3.1,3.7V80h-5.7V62.5z"/>
		<path id="XMLID_446_" class="st3" d="M273.3,72.6c0.1,2.4,1.5,4,3.9,4c1.4,0,2.7-0.6,3.3-1.9h5.4c-1,4-4.8,5.8-8.7,5.8
			c-5.7,0-9.6-3.4-9.6-9.3c0-5.4,4.3-9.2,9.4-9.2c6.3,0,9.4,4.7,9.1,10.7H273.3z M280.4,69.4c-0.1-2-1.5-3.6-3.4-3.6
			c-2,0-3.4,1.4-3.7,3.6H280.4z"/>
		<path id="XMLID_449_" class="st3" d="M292.9,74.2c0,0.9,0.4,1.5,0.9,2c0.5,0.4,1.3,0.6,2.1,0.6c1.1,0,2.7-0.5,2.7-1.9
			c0-1.3-1.8-1.6-2.8-1.9c-3.6-0.9-8.1-1-8.1-5.7c0-4.2,4.5-5.4,8-5.4c3.8,0,7.9,1.1,8.1,5.7h-5.3c0-0.7-0.3-1.2-0.7-1.5
			c-0.5-0.3-1.1-0.4-1.8-0.4c-0.9,0-2.5,0.1-2.5,1.3c0,1.7,3.8,2,6.5,2.5c3.5,0.7,4.4,3.3,4.4,4.7c0,4.7-4.4,6.2-8.4,6.2
			c-4.1,0-8.4-1.4-8.6-6.3H292.9z"/>
		<path id="XMLID_451_" class="st3" d="M311.2,74.2c0,0.9,0.4,1.5,0.9,2c0.5,0.4,1.3,0.6,2.1,0.6c1.1,0,2.7-0.5,2.7-1.9
			c0-1.3-1.8-1.6-2.8-1.9c-3.6-0.9-8.1-1-8.1-5.7c0-4.2,4.5-5.4,8-5.4c3.8,0,7.9,1.1,8.1,5.7h-5.3c0-0.7-0.3-1.2-0.7-1.5
			c-0.5-0.3-1.1-0.4-1.8-0.4c-0.9,0-2.5,0.1-2.5,1.3c0,1.7,3.8,2,6.5,2.5c3.5,0.7,4.4,3.3,4.4,4.7c0,4.7-4.4,6.2-8.4,6.2
			c-4.1,0-8.4-1.4-8.6-6.3H311.2z"/>
		<path id="XMLID_453_" class="st3" d="M191.6,101.6c-0.3-2.4-2.2-3.7-4.9-3.7c-4,0-5.6,3.6-5.6,7.1c0,3.6,1.5,7.1,5.6,7.1
			c2.9,0,4.6-1.7,4.9-4.4h6.3c-0.3,6.2-4.9,9.8-11,9.8c-7.3,0-12-5.6-12-12.5s4.7-12.5,12-12.5c5.2,0,10.8,3.3,11,9.1H191.6z"/>
		<path id="XMLID_455_" class="st3" d="M209.3,99.1c5.4,0,9.2,4,9.2,9.3c0,5.3-3.8,9.2-9.2,9.2s-9.2-4-9.2-9.2
			C200.1,103.1,203.9,99.1,209.3,99.1z M209.3,113.2c2.7,0,3.5-2.6,3.5-4.9s-0.8-4.9-3.5-4.9c-2.7,0-3.5,2.7-3.5,4.9
			S206.6,113.2,209.3,113.2z"/>
		<path id="XMLID_458_" class="st3" d="M237.7,117.1h-5.6v-2.4h-0.1c-1.1,1.8-3.3,2.9-5.3,2.9c-5,0-6.5-2.9-6.5-7.5V99.6h5.7v10.1
			c0,2.3,1,3.1,2.8,3.1c1.2,0,3.1-0.8,3.1-3.9v-9.4h5.7V117.1z"/>
		<path id="XMLID_460_" class="st3" d="M240.4,99.6h5.6v2.4h0.1c1-1.8,3.4-2.9,5.5-2.9c5.8,0,6.3,4.2,6.3,6.8v11.2h-5.7v-8.5
			c0-2.4,0.3-4.8-2.9-4.8c-2.2,0-3.1,1.8-3.1,3.7v9.5h-5.7V99.6z"/>
		<path id="XMLID_462_" class="st3" d="M272.5,106c0-1.5-1.3-2.5-2.8-2.5c-3.2,0-3.7,2.7-3.7,5.2c0,2.3,1,4.6,3.4,4.6
			c2,0,3-1.1,3.3-3h5.6c-0.5,4.7-4.1,7.4-8.8,7.4c-5.3,0-9.2-3.6-9.2-9c0-5.6,3.5-9.5,9.2-9.5c4.3,0,8.2,2.3,8.6,6.9H272.5z"/>
		<path id="XMLID_464_" class="st3" d="M286.5,97.4h-5.7V93h5.7V97.4z M280.8,99.6h5.7v17.5h-5.7V99.6z"/>
		<path id="XMLID_467_" class="st3" d="M289.6,93h5.7v24.1h-5.7V93z"/>
	</g>
	<g id="English__x28_2_lines_x29__1_" class="st0">
		<path id="XMLID_346_" class="st3" d="M202.5,45c0,9-4.2,13.5-13.6,13.5s-13.6-4.5-13.6-13.5V26.7h8.1v18.8c0,4,1.5,6.1,5.5,6.1
			s5.5-2.1,5.5-6.1V26.7h8.1V45z"/>
		<path id="XMLID_348_" class="st3" d="M205.6,49.8h8.1v8.1h-8.1V49.8z"/>
		<path id="XMLID_350_" class="st3" d="M224.1,47.4c0.2,3.7,2.4,4.9,5.9,4.9c2.4,0,5-0.9,5-3.2c0-2.8-4.5-3.3-9-4.5
			c-4.5-1.3-9.1-3.3-9.1-9c0-6.8,6.9-9.5,12.7-9.5c6.2,0,12.5,3,12.5,10H234c0.1-2.8-2.5-3.8-5-3.8c-1.7,0-3.9,0.6-3.9,2.7
			c0,2.4,4.5,2.8,9,4.1c4.5,1.3,9,3.4,9,9c0,7.9-6.7,10.4-13.6,10.4c-7.2,0-13.5-3.1-13.5-11.1H224.1z"/>
		<path id="XMLID_352_" class="st3" d="M246.3,49.8h8.1v8.1h-8.1V49.8z"/>
		<path id="XMLID_354_" class="st3" d="M260.5,49.2v-6.3h13.6v6.3H260.5z"/>
		<path id="XMLID_356_" class="st3" d="M280.9,26.7h15.9c5.5,0,10.9,2.5,10.9,8.8c0,3.4-1.6,6.6-4.9,7.8v0.1
			c3.3,0.8,4.3,4.5,4.5,7.5c0.1,1.3,0.2,5.9,1.3,7h-8c-0.7-1-0.8-4.1-0.9-5c-0.2-3.1-0.7-6.4-4.5-6.4h-6.2v11.4h-8.1V26.7z
			 M289.1,40.3h6.8c2.4,0,3.8-1.3,3.8-3.7c0-2.3-1.8-3.4-4.1-3.4h-6.5V40.3z"/>
		<path id="XMLID_359_" class="st3" d="M334.1,57.9h-7.2v-3.1h-0.1c-1.4,2.3-4.3,3.8-6.9,3.8c-6.5,0-8.4-3.8-8.4-9.7V35.2h7.4v13.2
			c0,3,1.3,4.1,3.7,4.1c1.6,0,4.1-1,4.1-5.1V35.2h7.4V57.9z"/>
		<path id="XMLID_361_" class="st3" d="M343.3,50.5c0,1.1,0.5,2,1.2,2.5c0.7,0.5,1.7,0.8,2.8,0.8c1.4,0,3.5-0.6,3.5-2.4
			c0-1.7-2.3-2.1-3.6-2.4c-4.7-1.2-10.5-1.3-10.5-7.4c0-5.5,5.9-6.9,10.4-6.9c5,0,10.2,1.4,10.4,7.3h-6.9c0-1-0.3-1.6-1-2
			c-0.6-0.4-1.4-0.6-2.4-0.6c-1.2,0-3.2,0.1-3.2,1.7c0,2.1,5,2.5,8.4,3.3c4.6,0.9,5.8,4.2,5.8,6.1c0,6.1-5.8,8.1-10.9,8.1
			c-5.4,0-10.9-1.8-11.1-8.1H343.3z"/>
		<path id="XMLID_363_" class="st3" d="M366.9,50.5c0,1.1,0.5,2,1.2,2.5c0.7,0.5,1.7,0.8,2.8,0.8c1.4,0,3.5-0.6,3.5-2.4
			c0-1.7-2.3-2.1-3.6-2.4c-4.7-1.2-10.5-1.3-10.5-7.4c0-5.5,5.9-6.9,10.4-6.9c5,0,10.2,1.4,10.4,7.3h-6.9c0-1-0.3-1.6-1-2
			c-0.6-0.4-1.4-0.6-2.4-0.6c-1.2,0-3.2,0.1-3.2,1.7c0,2.1,5,2.5,8.4,3.3c4.6,0.9,5.8,4.2,5.8,6.1c0,6.1-5.8,8.1-10.9,8.1
			c-5.4,0-10.9-1.8-11.1-8.1H366.9z"/>
		<path id="XMLID_365_" class="st3" d="M391.6,32.4h-7.4v-5.7h7.4V32.4z M384.2,35.2h7.4v22.7h-7.4V35.2z"/>
		<path id="XMLID_368_" class="st3" d="M395,42.2c0.1-3,1.5-4.9,3.5-6.1c2-1.1,4.6-1.6,7.2-1.6c5.4,0,10.6,1.2,10.6,7.6v9.9
			c0,1.9,0,4,0.9,5.8h-7.5c-0.3-0.7-0.3-1.4-0.4-2.1c-1.9,2-4.8,2.8-7.5,2.8c-4.3,0-7.7-2.2-7.7-6.9c0-7.4,8-6.8,13.2-7.9
			c1.3-0.3,2-0.7,2-2.1c0-1.7-2.1-2.4-3.6-2.4c-2.1,0-3.4,0.9-3.7,2.8H395z M404.6,54c3.5,0,4.7-2,4.5-6.7c-1,0.7-3,0.8-4.6,1.2
			c-1.7,0.4-3.1,1.1-3.1,2.9C401.5,53.2,403,54,404.6,54z"/>
		<path id="XMLID_371_" class="st3" d="M175.5,72.2h14.6c5.4-0.1,11.3,1.3,11.3,7.8c0,2.8-1.7,5.1-4.1,6.3c3.3,1,5.4,3.8,5.4,7.4
			c0,7.4-5.5,9.7-12.1,9.7h-15V72.2z M183.7,84.5h6.3c1.4,0,3.3-0.7,3.3-3c0-2.3-1.6-3-3.3-3h-6.3V84.5z M183.7,96.9h6.5
			c2.6,0,4.4-0.9,4.4-3.5c0-2.8-1.9-3.7-4.4-3.7h-6.5V96.9z"/>
		<path id="XMLID_375_" class="st3" d="M228.7,103.4h-7.2v-3.1h-0.1c-1.4,2.3-4.3,3.8-6.9,3.8c-6.5,0-8.4-3.8-8.4-9.7V80.8h7.4v13.2
			c0,3,1.3,4.1,3.7,4.1c1.6,0,4.1-1,4.1-5.1V80.8h7.4V103.4z"/>
		<path id="XMLID_377_" class="st3" d="M238.8,96c0,1.1,0.5,2,1.2,2.5c0.7,0.5,1.7,0.8,2.8,0.8c1.4,0,3.5-0.6,3.5-2.4
			c0-1.7-2.3-2.1-3.6-2.4c-4.7-1.2-10.5-1.3-10.5-7.4c0-5.5,5.9-6.9,10.4-6.9c5,0,10.2,1.4,10.4,7.3H246c0-1-0.3-1.6-1-2
			c-0.6-0.4-1.4-0.6-2.4-0.6c-1.2,0-3.2,0.1-3.2,1.7c0,2.1,5,2.5,8.4,3.3c4.6,0.9,5.8,4.2,5.8,6.1c0,6.1-5.8,8.1-10.9,8.1
			c-5.4,0-10.9-1.8-11.1-8.1H238.8z"/>
		<path id="XMLID_379_" class="st3" d="M264.3,77.9h-7.4v-5.7h7.4V77.9z M256.9,80.8h7.4v22.7h-7.4V80.8z"/>
		<path id="XMLID_382_" class="st3" d="M268.9,80.8h7.2v3.1h0.1c1.4-2.3,4.4-3.8,7.1-3.8c7.6,0,8.2,5.5,8.2,8.8v14.6h-7.4v-11
			c0-3.1,0.3-6.2-3.7-6.2c-2.8,0-4,2.4-4,4.8v12.4h-7.4V80.8z"/>
		<path id="XMLID_384_" class="st3" d="M302.1,93.9c0.1,3.1,1.9,5.2,5.1,5.2c1.8,0,3.5-0.8,4.2-2.5h6.9c-1.4,5.2-6.2,7.5-11.3,7.5
			c-7.4,0-12.4-4.5-12.4-12.1c0-6.9,5.5-11.9,12.2-11.9c8.1,0,12.2,6.1,11.8,13.8H302.1z M311.3,89.8c-0.1-2.5-1.9-4.6-4.4-4.6
			c-2.6,0-4.4,1.9-4.8,4.6H311.3z"/>
		<path id="XMLID_387_" class="st3" d="M327.6,96c0,1.1,0.5,2,1.2,2.5c0.7,0.5,1.7,0.8,2.8,0.8c1.4,0,3.5-0.6,3.5-2.4
			c0-1.7-2.3-2.1-3.6-2.4c-4.7-1.2-10.5-1.3-10.5-7.4c0-5.5,5.9-6.9,10.4-6.9c5,0,10.2,1.4,10.4,7.3h-6.9c0-1-0.3-1.6-1-2
			c-0.6-0.4-1.4-0.6-2.4-0.6c-1.2,0-3.2,0.1-3.2,1.7c0,2.1,5,2.5,8.4,3.3c4.6,0.9,5.8,4.2,5.8,6.1c0,6.1-5.8,8.1-10.9,8.1
			c-5.4,0-10.9-1.8-11.1-8.1H327.6z"/>
		<path id="XMLID_389_" class="st3" d="M351.2,96c0,1.1,0.5,2,1.2,2.5c0.7,0.5,1.7,0.8,2.8,0.8c1.4,0,3.5-0.6,3.5-2.4
			c0-1.7-2.3-2.1-3.6-2.4c-4.7-1.2-10.5-1.3-10.5-7.4c0-5.5,5.9-6.9,10.4-6.9c5,0,10.2,1.4,10.4,7.3h-6.9c0-1-0.3-1.6-1-2
			c-0.6-0.4-1.4-0.6-2.4-0.6c-1.2,0-3.2,0.1-3.2,1.7c0,2.1,5,2.5,8.4,3.3c4.6,0.9,5.8,4.2,5.8,6.1c0,6.1-5.8,8.1-10.9,8.1
			c-5.4,0-10.9-1.8-11.1-8.1H351.2z"/>
		<path id="XMLID_391_" class="st3" d="M403.2,83.4c-0.4-3.1-2.9-4.8-6.3-4.8c-5.2,0-7.3,4.6-7.3,9.3c0,4.6,2,9.3,7.3,9.3
			c3.8,0,6-2.2,6.3-5.8h8.1c-0.4,8-6.3,12.8-14.2,12.8c-9.4,0-15.6-7.2-15.6-16.3c0-9,6.1-16.3,15.6-16.3c6.7,0,14,4.3,14.2,11.8
			H403.2z"/>
		<path id="XMLID_393_" class="st3" d="M426.1,80.1c7,0,12,5.2,12,12c0,6.8-4.9,12-12,12s-11.9-5.2-11.9-12
			C414.2,85.3,419.1,80.1,426.1,80.1z M426.1,98.4c3.5,0,4.5-3.4,4.5-6.3c0-2.9-1.1-6.3-4.5-6.3c-3.5,0-4.5,3.5-4.5,6.3
			C421.6,95,422.7,98.4,426.1,98.4z"/>
		<path id="XMLID_396_" class="st3" d="M463,103.4h-7.2v-3.1h-0.1c-1.4,2.3-4.3,3.8-6.9,3.8c-6.5,0-8.4-3.8-8.4-9.7V80.8h7.4v13.2
			c0,3,1.3,4.1,3.7,4.1c1.6,0,4.1-1,4.1-5.1V80.8h7.4V103.4z"/>
		<path id="XMLID_398_" class="st3" d="M466.4,80.8h7.2v3.1h0.1c1.4-2.3,4.4-3.8,7.1-3.8c7.6,0,8.2,5.5,8.2,8.8v14.6h-7.4v-11
			c0-3.1,0.3-6.2-3.7-6.2c-2.8,0-4,2.4-4,4.8v12.4h-7.4V80.8z"/>
		<path id="XMLID_400_" class="st3" d="M508.1,89.1c0-1.9-1.7-3.3-3.6-3.3c-4.2,0-4.8,3.5-4.8,6.7c0,2.9,1.3,5.9,4.4,5.9
			c2.6,0,3.9-1.5,4.2-3.9h7.2c-0.7,6.1-5.4,9.6-11.4,9.6c-6.8,0-11.9-4.7-11.9-11.6c0-7.2,4.6-12.4,11.9-12.4c5.6,0,10.7,3,11.2,9
			H508.1z"/>
		<path id="XMLID_402_" class="st3" d="M526.2,77.9h-7.4v-5.7h7.4V77.9z M518.8,80.8h7.4v22.7h-7.4V80.8z"/>
		<path id="XMLID_405_" class="st3" d="M530.2,72.2h7.4v31.2h-7.4V72.2z"/>
	</g>
	<g id="Russian__x28_three_lines_x29_">
		<path id="XMLID_261_" class="st2" d="M199,40h-6.3l-1.5-4.3H183l-1.6,4.3h-6.3l8.8-23.5h6.2L199,40z M187.1,23.1l-2.7,8.2h5.3
			L187.1,23.1z"/>
		<path id="XMLID_264_" class="st2" d="M215,23h7.6v17h-5.3l0.2-11.8L214.2,40H209l-3.2-11.8L206,40h-5.3V23h7.6l3.4,12.5L215,23z"
			/>
		<path id="XMLID_266_" class="st2" d="M229.7,32.9c0.1,2.5,1.5,4,3.9,4c1.6,0,2.5-0.7,3.2-2h5.2c-1.1,3.7-4.2,5.7-8.5,5.7
			c-5.3,0-9.3-3.3-9.3-8.8c0-5.4,3.8-9.1,9.1-9.1c5.6,0,9,3.7,9,9.8v0.5H229.7z M233.3,26.4c-2,0-3.3,1.2-3.6,3.3h7.1
			C236.6,27.7,235.5,26.4,233.3,26.4z"/>
		<path id="XMLID_269_" class="st2" d="M249.8,25c1.2-1.6,2.8-2.4,5-2.4c4.5,0,7.5,3.6,7.5,9c0,5.3-2.9,8.8-7.3,8.8
			c-2.1,0-3.7-0.8-5-2.4v7.7h-5.6V23h5.3V25z M249.8,31.6c0,2.9,1.3,4.6,3.4,4.6c2.1,0,3.4-1.6,3.4-4.5c0-3-1.2-4.7-3.5-4.7
			C251.1,27,249.8,28.8,249.8,31.6z"/>
		<path id="XMLID_272_" class="st2" d="M275.5,40l0.2-10.6L270.2,40H264V23h5.4l-0.2,10.6l5.4-10.6h6.3v17H275.5z"/>
		<path id="XMLID_274_" class="st2" d="M294.4,29.5l7.1,10.6h-6.7l-4.1-6.6l-1.7,1.8V40h-5.6V23h5.5v6.1l5.2-6.1h6.4L294.4,29.5z"/>
		<path id="XMLID_276_" class="st2" d="M313.2,40c-0.2-0.6-0.2-0.8-0.3-1.6c-1.6,1.5-3.3,2.1-5.6,2.1c-3.7,0-6-2-6-5.2
			c0-4.3,3.5-4.9,7-5.4c3.4-0.5,4.5-0.5,4.5-2c0-1.2-0.9-1.8-2.6-1.8s-2.5,0.4-2.9,2.1h-5.3c0.4-3.8,3-5.7,8.2-5.7
			c2.1,0,4.5,0.3,6.3,1.6c1.3,0.9,1.7,2,1.7,4.3v6.8c0,1.7,0,3.4,0.7,4.9H313.2z M309.1,33.1c-1.5,0.3-2.1,1-2.1,2.1
			c0,1.3,0.8,2,2.2,2c1.9,0,3.6-1.1,3.6-3.3v-1.7C311.7,32.6,310.4,32.8,309.1,33.1z"/>
		<path id="XMLID_279_" class="st2" d="M332.6,29v-6h5.6v17h-5.6v-6.8h-5.7V40h-5.6V23h5.6v6H332.6z"/>
		<path id="XMLID_281_" class="st2" d="M357.9,31.5c0,5.4-3.6,9.1-9,9.1s-9-3.7-9-9c0-5.3,3.7-9,9.1-9
			C354.3,22.5,357.9,26.2,357.9,31.5z M345.5,31.5c0,3.2,1.2,5,3.4,5c2.1,0,3.4-1.8,3.4-5c0-3.1-1.2-4.8-3.4-4.8
			C346.7,26.7,345.5,28.5,345.5,31.5z"/>
		<path id="XMLID_284_" class="st2" d="M362.5,33.4v-4.8h10.3v4.8H362.5z"/>
		<path id="XMLID_286_" class="st2" d="M177.6,53.6h10.3c5.4,0,9.3,2.1,9.3,7.9c0,5.3-3.4,7.7-8.3,7.7h-5.2v7.9h-6.1V53.6z
			 M187.2,64.5c2.1,0,4.1-0.2,4.1-2.9c0-2.3-1.4-3-3.6-3h-4v5.9H187.2z"/>
		<path id="XMLID_289_" class="st2" d="M215.9,68.6c0,5.4-3.6,9.1-9,9.1s-9-3.7-9-9c0-5.3,3.7-9,9.1-9
			C212.2,59.6,215.9,63.3,215.9,68.6z M203.5,68.6c0,3.2,1.2,5,3.4,5c2.1,0,3.4-1.8,3.4-5c0-3.1-1.2-4.8-3.4-4.8
			C204.7,63.8,203.5,65.6,203.5,68.6z"/>
		<path id="XMLID_292_" class="st2" d="M235,70.4c-0.6,4.5-3.6,7.1-8.6,7.1c-5.2,0-8.9-3.5-8.9-8.8c0-5.4,3.6-9.1,9-9.1
			c4.8,0,8.1,2.6,8.4,6.6h-5.4c-0.3-1.6-1.4-2.6-2.9-2.6c-2.2,0-3.5,1.8-3.5,5c0,3,1.2,4.7,3.4,4.7c1.7,0,2.7-1,3.1-3H235z"/>
		<path id="XMLID_294_" class="st2" d="M253.9,70.4c-0.6,4.5-3.6,7.1-8.6,7.1c-5.2,0-8.9-3.5-8.9-8.8c0-5.4,3.6-9.1,9-9.1
			c4.8,0,8.1,2.6,8.4,6.6h-5.4c-0.3-1.6-1.4-2.6-2.9-2.6c-2.2,0-3.5,1.8-3.5,5c0,3,1.2,4.7,3.4,4.7c1.7,0,2.7-1,3.1-3H253.9z"/>
		<path id="XMLID_296_" class="st2" d="M266.9,77.1l0.2-10.6l-5.4,10.6h-6.3v-17h5.4l-0.2,10.6l5.4-10.6h6.3v17H266.9z"/>
		<path id="XMLID_298_" class="st2" d="M286.3,77.1l0.2-10.6l-5.4,10.6h-6.3v-17h5.4l-0.2,10.6l5.4-10.6h6.3v17H286.3z M283.3,58.5
			c-3.1,0-5.4-1.3-5.4-4.9h2.5c0.3,1.3,1.3,1.9,2.9,1.9c1.6,0,2.6-0.6,2.9-1.9h2.5C288.7,57.2,286.4,58.5,283.3,58.5z"/>
		<path id="XMLID_301_" class="st2" d="M311.1,70.4c-0.6,4.5-3.6,7.1-8.6,7.1c-5.2,0-8.9-3.5-8.9-8.8c0-5.4,3.6-9.1,9-9.1
			c4.8,0,8.1,2.6,8.4,6.6h-5.4c-0.3-1.6-1.4-2.6-2.9-2.6c-2.2,0-3.5,1.8-3.5,5c0,3,1.2,4.7,3.4,4.7c1.7,0,2.7-1,3.1-3H311.1z"/>
		<path id="XMLID_303_" class="st2" d="M324.2,66.6l7.1,10.6h-6.7l-4.1-6.6l-1.7,1.8v4.9h-5.6v-17h5.5v6.1l5.2-6.1h6.4L324.2,66.6z"
			/>
		<path id="XMLID_305_" class="st2" d="M344.3,77.1l0.2-10.6L339,77.1h-6.3v-17h5.4l-0.2,10.6l5.4-10.6h6.3v17H344.3z"/>
		<path id="XMLID_307_" class="st2" d="M363.8,77.1l0.2-10.6l-5.4,10.6h-6.3v-17h5.4l-0.2,10.6l5.4-10.6h6.3v17H363.8z M360.8,58.5
			c-3.1,0-5.4-1.3-5.4-4.9h2.5c0.3,1.3,1.3,1.9,2.9,1.9c1.6,0,2.6-0.6,2.9-1.9h2.5C366.1,57.2,363.9,58.5,360.8,58.5z"/>
		<path id="XMLID_310_" class="st2" d="M195.1,120v-5.8h-13.7v5.8h-5.7v-11h2.4c2-3.2,3.2-10.8,3.2-15.5v-2.7h16.8V109h2.7v11H195.1
			z M192.1,95.8h-5v1.1c0,4.3-1.1,9.2-2.5,12.2h7.5V95.8z"/>
		<path id="XMLID_313_" class="st2" d="M207.7,107.1c0.1,2.5,1.5,4,3.9,4c1.6,0,2.5-0.7,3.2-2h5.2c-1.1,3.7-4.2,5.7-8.5,5.7
			c-5.3,0-9.3-3.3-9.3-8.8c0-5.4,3.8-9.1,9.1-9.1c5.6,0,9,3.7,9,9.8v0.5H207.7z M211.4,100.6c-2,0-3.3,1.2-3.6,3.3h7.1
			C214.7,101.9,213.5,100.6,211.4,100.6z"/>
		<path id="XMLID_316_" class="st2" d="M233.9,101.5h-3.5l-0.2,5.2c-0.1,3.2-0.3,8-5.9,8c-1.1,0-1.9-0.2-2.8-0.5v-4.4
			c0.4,0.2,0.9,0.2,1.3,0.2c1.5,0,2-1.2,2-2.9l0.3-9.9h14.6v17h-5.6V101.5z"/>
		<path id="XMLID_318_" class="st2" d="M259.3,105.7c0,5.4-3.6,9.1-9,9.1s-9-3.7-9-9c0-5.3,3.7-9,9.1-9
			C255.6,96.7,259.3,100.4,259.3,105.7z M246.9,105.7c0,3.2,1.2,5,3.4,5c2.1,0,3.4-1.8,3.4-5c0-3.1-1.2-4.8-3.4-4.8
			C248.1,100.9,246.9,102.7,246.9,105.7z"/>
		<path id="XMLID_321_" class="st2" d="M261,97.2h10.7c2.9,0,5.5,1.1,5.5,4.3c0,1.7-0.8,2.7-2.2,3.4c2,0.7,3.1,2.1,3.1,4.2
			c0,1.6-0.6,2.9-1.7,3.8c-1.5,1.3-3.1,1.3-5,1.3H261V97.2z M269.4,103.9c1.5,0,2.2-0.5,2.2-1.7c0-1.4-1.1-1.7-2.3-1.7h-2.9v3.3
			H269.4z M269.8,110.7c1.3,0,2.5-0.3,2.5-1.9s-1.3-2-2.6-2h-3.2v3.9H269.8z"/>
		<path id="XMLID_325_" class="st2" d="M296.9,105.7c0,5.4-3.6,9.1-9,9.1s-9-3.7-9-9c0-5.3,3.7-9,9.1-9
			C293.3,96.7,296.9,100.4,296.9,105.7z M284.6,105.7c0,3.2,1.2,5,3.4,5c2.1,0,3.4-1.8,3.4-5c0-3.1-1.2-4.8-3.4-4.8
			C285.8,100.9,284.6,102.7,284.6,105.7z"/>
		<path id="XMLID_328_" class="st2" d="M310.8,114.2l0.2-10.6l-5.4,10.6h-6.3v-17h5.4l-0.2,10.6l5.4-10.6h6.3v17H310.8z M307.8,95.6
			c-3.1,0-5.4-1.3-5.4-4.9h2.5c0.3,1.3,1.3,1.9,2.9,1.9c1.6,0,2.6-0.6,2.9-1.9h2.5C313.2,94.3,310.9,95.6,307.8,95.6z"/>
		<path id="XMLID_331_" class="st2" d="M351.2,105.1c-0.1,1.8-0.3,2.5-1.1,4.2c-1.8,3.8-5,5.6-9.7,5.6c-7.3,0-11.8-5.3-11.8-12.4
			c0-7.2,4.9-12.2,11.8-12.2c5.2,0,10.1,3.3,10.6,8.8h-6c-0.5-2.4-2.1-3.7-4.7-3.7c-3.4,0-5.5,2.8-5.5,7.2c0,4.3,2.2,7,5.5,7
			c2.7,0,4.3-1.5,4.7-4.5H351.2z"/>
		<path id="XMLID_333_" class="st2" d="M370.7,105.7c0,5.4-3.6,9.1-9,9.1s-9-3.7-9-9c0-5.3,3.7-9,9.1-9
			C367.1,96.7,370.7,100.4,370.7,105.7z M358.3,105.7c0,3.2,1.2,5,3.4,5c2.1,0,3.4-1.8,3.4-5c0-3.1-1.2-4.8-3.4-4.8
			C359.5,100.9,358.3,102.7,358.3,105.7z"/>
		<path id="XMLID_336_" class="st2" d="M372.4,97.2h10.7c2.9,0,5.5,1.1,5.5,4.3c0,1.7-0.8,2.7-2.2,3.4c2,0.7,3.1,2.1,3.1,4.2
			c0,1.6-0.6,2.9-1.7,3.8c-1.5,1.3-3.1,1.3-5,1.3h-10.4V97.2z M380.9,103.9c1.5,0,2.2-0.5,2.2-1.7c0-1.4-1.1-1.7-2.3-1.7h-2.9v3.3
			H380.9z M381.2,110.7c1.3,0,2.5-0.3,2.5-1.9s-1.3-2-2.6-2h-3.2v3.9H381.2z"/>
		<path id="XMLID_340_" class="st2" d="M395.9,107.1c0.1,2.5,1.5,4,3.9,4c1.6,0,2.5-0.7,3.2-2h5.2c-1.1,3.7-4.2,5.7-8.5,5.7
			c-5.3,0-9.3-3.3-9.3-8.8c0-5.4,3.8-9.1,9.1-9.1c5.6,0,9,3.7,9,9.8v0.5H395.9z M399.5,100.6c-2,0-3.3,1.2-3.6,3.3h7.1
			C402.9,101.9,401.7,100.6,399.5,100.6z"/>
		<path id="XMLID_343_" class="st2" d="M419.9,114.2h-5.6v-12.8h-5.6v-4.3h16.8v4.3h-5.6V114.2z"/>
	</g>
	<g id="Russian__x28_two_lines_x29_" class="st0">
		<path id="XMLID_176_" class="st3" d="M207.9,58.6h-8.6l-2.1-5.8h-11l-2.1,5.8h-8.5l11.9-31.9h8.4L207.9,58.6z M191.9,35.7
			l-3.7,11.1h7.2L191.9,35.7z"/>
		<path id="XMLID_179_" class="st3" d="M229.6,35.6h10.2v23.1h-7.2l0.2-16l-4.3,16h-7l-4.3-16l0.2,16h-7.2V35.6h10.2l4.6,16.9
			L229.6,35.6z"/>
		<path id="XMLID_181_" class="st3" d="M249.5,48.9c0.1,3.4,2.1,5.4,5.3,5.4c2.1,0,3.4-0.9,4.3-2.7h7.1c-1.5,5-5.7,7.7-11.5,7.7
			c-7.2,0-12.6-4.5-12.6-12c0-7.3,5.1-12.4,12.3-12.4c7.6,0,12.2,5,12.2,13.3v0.7H249.5z M254.4,40.1c-2.7,0-4.4,1.6-4.9,4.5h9.6
			C258.9,42,257.3,40.1,254.4,40.1z"/>
		<path id="XMLID_184_" class="st3" d="M276.8,38.2c1.6-2.2,3.8-3.3,6.7-3.3c6.1,0,10.1,4.9,10.1,12.2c0,7.2-3.9,12-9.8,12
			c-2.8,0-5-1-6.7-3.2v10.5h-7.6V35.6h7.2V38.2z M276.8,47.2c0,3.9,1.7,6.2,4.6,6.2c2.9,0,4.6-2.2,4.6-6c0-4.1-1.7-6.3-4.7-6.3
			C278.5,41,276.8,43.4,276.8,47.2z"/>
		<path id="XMLID_187_" class="st3" d="M311.5,58.6l0.2-14.4l-7.3,14.4h-8.5V35.6h7.4L303.1,50l7.3-14.4h8.5v23.1H311.5z"/>
		<path id="XMLID_189_" class="st3" d="M337.1,44.3l9.6,14.3h-9.1l-5.5-9l-2.3,2.4v6.6h-7.6V35.6h7.5v8.3l7.1-8.3h8.7L337.1,44.3z"
			/>
		<path id="XMLID_191_" class="st3" d="M362.5,58.6c-0.3-0.8-0.3-1.1-0.4-2.2c-2.1,2-4.4,2.9-7.6,2.9c-5,0-8.1-2.7-8.1-7.1
			c0-5.8,4.8-6.6,9.5-7.3c4.6-0.7,6.1-0.6,6.1-2.8c0-1.7-1.2-2.5-3.5-2.5c-2.4,0-3.4,0.5-3.9,2.9h-7.1c0.5-5.2,4.1-7.7,11.1-7.7
			c2.9,0,6.1,0.4,8.5,2.1c1.7,1.3,2.2,2.7,2.2,5.8V52c0,2.2,0,4.6,0.9,6.6H362.5z M357,49.2c-2,0.4-2.8,1.3-2.8,2.8
			c0,1.7,1.1,2.7,3,2.7c2.5,0,4.8-1.5,4.8-4.5v-2.4C360.5,48.6,358.7,48.8,357,49.2z"/>
		<path id="XMLID_194_" class="st3" d="M388.9,43.7v-8.1h7.6v23.1h-7.6v-9.2h-7.8v9.2h-7.6V35.6h7.6v8.1H388.9z"/>
		<path id="XMLID_196_" class="st3" d="M423.1,47.1c0,7.3-4.9,12.3-12.2,12.3c-7.2,0-12.2-5-12.2-12.2c0-7.2,5-12.2,12.3-12.2
			C418.2,34.9,423.1,39.9,423.1,47.1z M406.3,47.1c0,4.3,1.7,6.7,4.6,6.7c2.9,0,4.6-2.5,4.6-6.7c0-4.2-1.7-6.5-4.6-6.5
			C408,40.5,406.3,42.9,406.3,47.1z"/>
		<path id="XMLID_199_" class="st3" d="M443.3,49.9h-13.9v-6.6h13.9V49.9z"/>
		<path id="XMLID_201_" class="st3" d="M447.4,26.8h14c7.3,0,12.6,2.9,12.6,10.7c0,7.1-4.6,10.5-11.2,10.5h-7v10.6h-8.3V26.8z
			 M460.4,41.6c2.9,0,5.5-0.2,5.5-3.9c0-3.1-1.9-4-4.8-4h-5.4v8H460.4z"/>
		<path id="XMLID_204_" class="st3" d="M499.2,47.1c0,7.3-4.9,12.3-12.2,12.3c-7.2,0-12.2-5-12.2-12.2c0-7.2,5-12.2,12.3-12.2
			C494.3,34.9,499.2,39.9,499.2,47.1z M482.4,47.1c0,4.3,1.7,6.7,4.6,6.7c2.9,0,4.6-2.5,4.6-6.7c0-4.2-1.7-6.5-4.6-6.5
			C484.1,40.5,482.4,42.9,482.4,47.1z"/>
		<path id="XMLID_207_" class="st3" d="M525,49.6c-0.8,6.1-4.9,9.7-11.7,9.7c-7.1,0-12.1-4.8-12.1-11.9c0-7.4,4.9-12.3,12.2-12.3
			c6.4,0,10.9,3.5,11.4,9h-7.3c-0.4-2.2-1.8-3.5-3.9-3.5c-2.9,0-4.7,2.5-4.7,6.8c0,4.1,1.7,6.3,4.6,6.3c2.3,0,3.7-1.3,4.2-4H525z"/>
		<path id="XMLID_209_" class="st3" d="M550.6,49.6c-0.8,6.1-4.9,9.7-11.7,9.7c-7.1,0-12.1-4.8-12.1-11.9c0-7.4,4.9-12.3,12.2-12.3
			c6.4,0,10.9,3.5,11.4,9h-7.3c-0.4-2.2-1.8-3.5-3.9-3.5c-2.9,0-4.7,2.5-4.7,6.8c0,4.1,1.7,6.3,4.6,6.3c2.3,0,3.7-1.3,4.2-4H550.6z"
			/>
		<path id="XMLID_211_" class="st3" d="M568.2,58.6l0.2-14.4l-7.3,14.4h-8.5V35.6h7.4L559.8,50l7.3-14.4h8.5v23.1H568.2z"/>
		<path id="XMLID_213_" class="st3" d="M594.6,58.6l0.2-14.4l-7.3,14.4H579V35.6h7.4L586.2,50l7.3-14.4h8.5v23.1H594.6z M590.5,33.4
			c-4.2,0-7.3-1.8-7.3-6.6h3.4c0.4,1.7,1.8,2.6,3.9,2.6c2.1,0,3.5-0.8,3.9-2.6h3.4C597.8,31.6,594.7,33.4,590.5,33.4z"/>
		<path id="XMLID_216_" class="st3" d="M628.1,49.6c-0.8,6.1-4.9,9.7-11.7,9.7c-7.1,0-12.1-4.8-12.1-11.9c0-7.4,4.9-12.3,12.2-12.3
			c6.4,0,10.9,3.5,11.4,9h-7.3c-0.4-2.2-1.8-3.5-3.9-3.5c-2.9,0-4.7,2.5-4.7,6.8c0,4.1,1.7,6.3,4.6,6.3c2.3,0,3.7-1.3,4.2-4H628.1z"
			/>
		<path id="XMLID_218_" class="st3" d="M645.8,44.3l9.6,14.3h-9.1l-5.5-9l-2.3,2.4v6.6h-7.6V35.6h7.5v8.3l7.1-8.3h8.7L645.8,44.3z"
			/>
		<path id="XMLID_220_" class="st3" d="M673.1,58.6l0.2-14.4L666,58.6h-8.5V35.6h7.4L664.6,50l7.3-14.4h8.5v23.1H673.1z"/>
		<path id="XMLID_222_" class="st3" d="M699.4,58.6l0.2-14.4l-7.3,14.4h-8.5V35.6h7.4L691,50l7.3-14.4h8.5v23.1H699.4z M695.4,33.4
			c-4.2,0-7.3-1.8-7.3-6.6h3.4c0.4,1.7,1.8,2.6,3.9,2.6c2.1,0,3.5-0.8,3.9-2.6h3.4C702.6,31.6,699.6,33.4,695.4,33.4z"/>
		<path id="XMLID_225_" class="st3" d="M202.6,111.1v-7.8h-18.5v7.8h-7.8V96.2h3.3c2.7-4.4,4.3-14.6,4.3-21v-3.7h22.7v24.8h3.7v14.9
			H202.6z M198.6,78.3h-6.8v1.4c0,5.8-1.4,12.5-3.4,16.5h10.1V78.3z"/>
		<path id="XMLID_228_" class="st3" d="M219.8,93.6c0.1,3.4,2.1,5.4,5.3,5.4c2.1,0,3.4-0.9,4.3-2.7h7.1c-1.5,5-5.7,7.7-11.5,7.7
			c-7.2,0-12.6-4.5-12.6-12c0-7.3,5.1-12.4,12.3-12.4c7.6,0,12.2,5,12.2,13.3v0.7H219.8z M224.7,84.8c-2.7,0-4.4,1.6-4.9,4.5h9.6
			C229.3,86.6,227.7,84.8,224.7,84.8z"/>
		<path id="XMLID_231_" class="st3" d="M255.2,86h-4.8l-0.3,7.1c-0.2,4.4-0.4,10.8-8,10.8c-1.4,0-2.6-0.3-3.8-0.6v-5.9
			c0.5,0.2,1.2,0.3,1.7,0.3c2,0,2.7-1.6,2.7-3.9l0.4-13.4h19.7v23.1h-7.6V86z"/>
		<path id="XMLID_233_" class="st3" d="M289.5,91.7c0,7.3-4.9,12.3-12.2,12.3c-7.2,0-12.2-5-12.2-12.2c0-7.2,5-12.2,12.3-12.2
			C284.6,79.6,289.5,84.5,289.5,91.7z M272.8,91.8c0,4.3,1.7,6.7,4.6,6.7c2.9,0,4.6-2.5,4.6-6.7c0-4.2-1.7-6.5-4.6-6.5
			C274.4,85.2,272.8,87.6,272.8,91.8z"/>
		<path id="XMLID_236_" class="st3" d="M291.9,80.2h14.5c4,0,7.4,1.5,7.4,5.8c0,2.3-1.1,3.6-3,4.6c2.8,0.9,4.2,2.8,4.2,5.7
			c0,2.1-0.8,3.9-2.3,5.2c-2,1.7-4.2,1.7-6.7,1.7h-14.1V80.2z M303.3,89.3c2.1,0,3-0.7,3-2.2c0-1.9-1.5-2.2-3.1-2.2h-3.9v4.5H303.3z
			 M303.8,98.5c1.8,0,3.4-0.4,3.4-2.6s-1.7-2.7-3.6-2.7h-4.4v5.3H303.8z"/>
		<path id="XMLID_240_" class="st3" d="M340.6,91.7c0,7.3-4.9,12.3-12.2,12.3c-7.2,0-12.2-5-12.2-12.2c0-7.2,5-12.2,12.3-12.2
			C335.6,79.6,340.6,84.5,340.6,91.7z M323.8,91.8c0,4.3,1.7,6.7,4.6,6.7c2.9,0,4.6-2.5,4.6-6.7c0-4.2-1.7-6.5-4.6-6.5
			C325.5,85.2,323.8,87.6,323.8,91.8z"/>
		<path id="XMLID_243_" class="st3" d="M359.3,103.3l0.2-14.4l-7.3,14.4h-8.5V80.2h7.4l-0.2,14.4l7.3-14.4h8.5v23.1H359.3z
			 M355.3,78.1c-4.2,0-7.3-1.8-7.3-6.6h3.4c0.4,1.7,1.8,2.6,3.9,2.6c2.1,0,3.5-0.8,3.9-2.6h3.4C362.5,76.3,359.5,78.1,355.3,78.1z"
			/>
		<path id="XMLID_246_" class="st3" d="M414,90.9c-0.1,2.5-0.4,3.4-1.5,5.6c-2.5,5.1-6.8,7.6-13.1,7.6c-9.9,0-15.9-7.1-15.9-16.8
			c0-9.8,6.6-16.6,16-16.6c7.1,0,13.7,4.4,14.3,12h-8.2c-0.7-3.3-2.9-5-6.3-5c-4.6,0-7.5,3.8-7.5,9.8c0,5.8,2.9,9.5,7.5,9.5
			c3.7,0,5.8-2.1,6.4-6.1H414z"/>
		<path id="XMLID_248_" class="st3" d="M440.4,91.7c0,7.3-4.9,12.3-12.2,12.3c-7.2,0-12.2-5-12.2-12.2c0-7.2,5-12.2,12.3-12.2
			C435.5,79.6,440.4,84.5,440.4,91.7z M423.7,91.8c0,4.3,1.7,6.7,4.6,6.7c2.9,0,4.6-2.5,4.6-6.7c0-4.2-1.7-6.5-4.6-6.5
			C425.3,85.2,423.7,87.6,423.7,91.8z"/>
		<path id="XMLID_251_" class="st3" d="M442.8,80.2h14.5c4,0,7.4,1.5,7.4,5.8c0,2.3-1.1,3.6-3,4.6c2.8,0.9,4.2,2.8,4.2,5.7
			c0,2.1-0.8,3.9-2.3,5.2c-2,1.7-4.2,1.7-6.7,1.7h-14.1V80.2z M454.2,89.3c2.1,0,3-0.7,3-2.2c0-1.9-1.5-2.2-3.1-2.2h-3.9v4.5H454.2z
			 M454.7,98.5c1.8,0,3.4-0.4,3.4-2.6s-1.7-2.7-3.6-2.7h-4.4v5.3H454.7z"/>
		<path id="XMLID_255_" class="st3" d="M474.5,93.6c0.1,3.4,2.1,5.4,5.3,5.4c2.1,0,3.4-0.9,4.3-2.7h7.1c-1.5,5-5.7,7.7-11.5,7.7
			c-7.2,0-12.6-4.5-12.6-12c0-7.3,5.1-12.4,12.3-12.4c7.6,0,12.2,5,12.2,13.3v0.7H474.5z M479.5,84.8c-2.7,0-4.4,1.6-4.9,4.5h9.6
			C484,86.6,482.4,84.8,479.5,84.8z"/>
		<path id="XMLID_258_" class="st3" d="M507,103.3h-7.6V86h-7.6v-5.8h22.8V86H507V103.3z"/>
	</g>
	<g id="Bilingual_Acronym" class="st0">
		<path id="XMLID_470_" class="st3" d="M204.9,43.8c0,8.5-4,12.8-13.1,12.8s-13.1-4.2-13.1-12.8V26.5h7.8v17.7
			c0,3.8,1.4,5.7,5.3,5.7s5.3-1.9,5.3-5.7V26.5h7.8V43.8z"/>
		<path id="XMLID_472_" class="st3" d="M215.3,46.1c0.2,3.5,2.4,4.6,5.7,4.6c2.4,0,4.8-0.8,4.8-3c0-2.6-4.3-3.1-8.6-4.3
			c-4.3-1.2-8.8-3.1-8.8-8.5c0-6.4,6.6-9,12.2-9c6,0,12,2.8,12,9.5h-7.8c0.1-2.7-2.4-3.5-4.8-3.5c-1.7,0-3.8,0.6-3.8,2.5
			c0,2.3,4.3,2.7,8.7,3.9c4.3,1.2,8.7,3.2,8.7,8.5c0,7.5-6.5,9.9-13.1,9.9c-6.9,0-13-3-13-10.5H215.3z"/>
		<path id="XMLID_474_" class="st3" d="M236.3,26.5h15.3c5.3,0,10.5,2.4,10.5,8.3c0,3.2-1.6,6.2-4.7,7.4v0.1
			c3.2,0.7,4.1,4.2,4.4,7.1c0.1,1.2,0.2,5.6,1.3,6.6h-7.7c-0.7-1-0.8-3.9-0.9-4.7c-0.2-3-0.7-6-4.4-6h-5.9V56h-7.8V26.5z
			 M244.1,39.3h6.6c2.4,0,3.6-1.2,3.6-3.5c0-2.2-1.8-3.2-4-3.2h-6.2V39.3z"/>
		<path id="XMLID_477_" class="st3" d="M265.7,26.5h14c5.2-0.1,10.8,1.2,10.8,7.4c0,2.6-1.6,4.8-4,5.9c3.2,0.9,5.2,3.6,5.2,7
			c0,7-5.3,9.2-11.7,9.2h-14.4V26.5z M273.5,38.1h6.1c1.3,0,3.2-0.7,3.2-2.8c0-2.1-1.6-2.8-3.2-2.8h-6.1V38.1z M273.5,49.8h6.3
			c2.5,0,4.2-0.9,4.2-3.3c0-2.6-1.9-3.5-4.2-3.5h-6.3V49.8z"/>
		<path id="XMLID_481_" class="st3" d="M315,37c-0.4-3-2.8-4.5-6.1-4.5c-5,0-7,4.4-7,8.7c0,4.4,1.9,8.7,7,8.7c3.7,0,5.8-2.1,6.1-5.4
			h7.8c-0.4,7.6-6.1,12-13.7,12c-9.1,0-15-6.8-15-15.3c0-8.5,5.9-15.3,15-15.3c6.5,0,13.5,4,13.7,11.1H315z"/>
		<path id="XMLID_483_" class="st3" d="M206.2,104.5h-8.1l-1.9-5.4h-10.3l-2,5.4h-8l11.2-29.4h7.9L206.2,104.5z M191.1,83.3
			l-3.4,10.3h6.8L191.1,83.3z"/>
		<path id="XMLID_486_" class="st3" d="M209.7,75.1h13.2c6.9,0,11.8,2.6,11.8,9.9c0,6.6-4.3,9.7-10.6,9.7h-6.6v9.8h-7.8V75.1z
			 M222,88.8c2.7,0,5.2-0.2,5.2-3.6c0-2.8-1.8-3.7-4.5-3.7h-5v7.3H222z"/>
		<path id="XMLID_489_" class="st3" d="M257.4,111.7v-7.2H240v7.2h-7.3V98h3.1c2.6-4,4.1-13.4,4.1-19.4v-3.4h21.4V98h3.4v13.7H257.4
			z M253.6,81.4h-6.4v1.3c0,5.3-1.3,11.5-3.2,15.3h9.5V81.4z"/>
		<path id="XMLID_492_" class="st3" d="M294.7,93c-0.1,2.3-0.3,3.1-1.4,5.2c-2.4,4.7-6.4,7-12.4,7c-9.3,0-15-6.6-15-15.5
			c0-9,6.2-15.3,15.1-15.3c6.7,0,12.9,4.1,13.5,11.1h-7.7c-0.7-3.1-2.7-4.6-5.9-4.6c-4.3,0-7,3.5-7,9c0,5.3,2.8,8.8,7,8.8
			c3.4,0,5.5-1.9,6-5.7H294.7z"/>
	</g>
	<g id="Bilingual_full_name" class="st0">
		<g id="XMLID_71_" class="st1">
			<path id="XMLID_72_" class="st2" d="M201.6,103.3h-7l-1.7-4.8h-9l-1.7,4.8h-6.9l9.7-26.4h6.9L201.6,103.3z M188.4,84.3l-3,9.2
				h5.9L188.4,84.3z"/>
			<path id="XMLID_75_" class="st2" d="M218.5,84.2h8.4v19.1h-5.9l0.2-13.2l-3.5,13.2h-5.7L208.4,90l0.2,13.2h-5.9V84.2h8.4l3.7,14
				L218.5,84.2z"/>
			<path id="XMLID_77_" class="st2" d="M235.4,95.2c0.1,2.8,1.7,4.4,4.3,4.4c1.7,0,2.7-0.7,3.5-2.2h5.8c-1.2,4.1-4.7,6.4-9.4,6.4
				c-5.9,0-10.3-3.7-10.3-9.9c0-6,4.2-10.2,10.1-10.2c6.2,0,10,4.2,10,11v0.6H235.4z M239.5,87.9c-2.2,0-3.6,1.3-4,3.7h7.8
				C243.2,89.5,241.9,87.9,239.5,87.9z"/>
			<path id="XMLID_80_" class="st2" d="M257.7,86.4c1.3-1.8,3.1-2.7,5.5-2.7c5,0,8.2,4,8.2,10.1c0,6-3.2,9.9-8,9.9
				c-2.3,0-4-0.9-5.5-2.7v8.7h-6.2V84.2h5.9V86.4z M257.8,93.8c0,3.3,1.4,5.1,3.8,5.1c2.4,0,3.7-1.8,3.7-5c0-3.4-1.3-5.2-3.8-5.2
				C259.2,88.7,257.8,90.6,257.8,93.8z"/>
			<path id="XMLID_83_" class="st2" d="M286.8,103.3l0.2-11.9l-6,11.9h-6.9V84.2h6L280,96.1l5.9-11.9h7v19.1H286.8z"/>
			<path id="XMLID_85_" class="st2" d="M308.5,91.4l7.8,11.8h-7.4l-4.5-7.4l-1.9,2v5.4h-6.2V84.2h6.1V91l5.8-6.8h7.1L308.5,91.4z"/>
			<path id="XMLID_87_" class="st2" d="M329.2,103.3c-0.2-0.7-0.3-0.9-0.3-1.8c-1.8,1.6-3.6,2.4-6.2,2.4c-4.1,0-6.6-2.2-6.6-5.9
				c0-4.8,3.9-5.4,7.8-6c3.8-0.6,5-0.5,5-2.3c0-1.4-0.9-2-2.9-2s-2.7,0.4-3.2,2.4h-5.8c0.4-4.3,3.4-6.4,9.1-6.4c2.4,0,5,0.3,6.9,1.7
				c1.4,1,1.8,2.3,1.8,4.8v7.7c0,1.9,0,3.8,0.7,5.5H329.2z M324.8,95.4c-1.6,0.3-2.3,1.1-2.3,2.3c0,1.4,0.9,2.3,2.4,2.3
				c2.1,0,3.9-1.3,3.9-3.7v-2C327.6,94.9,326.1,95.1,324.8,95.4z"/>
			<path id="XMLID_90_" class="st2" d="M350.7,90.9v-6.7h6.2v19.1h-6.2v-7.6h-6.3v7.6h-6.2V84.2h6.2v6.7H350.7z"/>
			<path id="XMLID_98_" class="st2" d="M379.4,93.7c0,6-4,10.2-9.9,10.2s-10-4.1-10-10.1c0-6,4.1-10.1,10-10.1
				C375.4,83.6,379.4,87.7,379.4,93.7z M365.7,93.7c0,3.6,1.3,5.6,3.8,5.6c2.4,0,3.7-2,3.7-5.6c0-3.4-1.4-5.4-3.8-5.4
				C367.1,88.3,365.7,90.3,365.7,93.7z"/>
			<path id="XMLID_101_" class="st2" d="M393,96h-11.3v-5.5H393V96z"/>
			<path id="XMLID_103_" class="st2" d="M396.3,76.9h11.4c5.9,0,10.3,2.4,10.3,8.9c0,5.9-3.8,8.7-9.2,8.7h-5.7v8.8h-6.8V76.9z
				 M407,89.1c2.3,0,4.5-0.2,4.5-3.3c0-2.6-1.6-3.3-3.9-3.3h-4.4v6.6H407z"/>
			<path id="XMLID_106_" class="st2" d="M439.3,93.7c0,6-4,10.2-9.9,10.2s-10-4.1-10-10.1c0-6,4.1-10.1,10-10.1
				C435.3,83.6,439.3,87.7,439.3,93.7z M425.7,93.7c0,3.6,1.3,5.6,3.8,5.6c2.4,0,3.7-2,3.7-5.6c0-3.4-1.4-5.4-3.8-5.4
				C427,88.3,425.7,90.3,425.7,93.7z"/>
			<path id="XMLID_109_" class="st2" d="M460.5,95.7c-0.7,5.1-4,8-9.5,8c-5.8,0-9.9-4-9.9-9.9c0-6.1,4-10.2,10-10.2
				c5.3,0,8.9,2.9,9.3,7.4h-6c-0.3-1.8-1.5-2.9-3.2-2.9c-2.4,0-3.8,2.1-3.8,5.6c0,3.4,1.3,5.3,3.8,5.3c1.9,0,3-1.1,3.4-3.3H460.5z"
				/>
			<path id="XMLID_111_" class="st2" d="M481.4,95.7c-0.7,5.1-4,8-9.5,8c-5.8,0-9.9-4-9.9-9.9c0-6.1,4-10.2,10-10.2
				c5.3,0,8.9,2.9,9.3,7.4h-6c-0.3-1.8-1.5-2.9-3.2-2.9c-2.4,0-3.8,2.1-3.8,5.6c0,3.4,1.3,5.3,3.8,5.3c1.9,0,3-1.1,3.4-3.3H481.4z"
				/>
			<path id="XMLID_113_" class="st2" d="M496.5,103.3l0.2-11.9l-6,11.9h-6.9V84.2h6l-0.2,11.9l5.9-11.9h7v19.1H496.5z"/>
			<path id="XMLID_115_" class="st2" d="M518.7,103.3l0.2-11.9l-6,11.9H506V84.2h6l-0.2,11.9l5.9-11.9h7v19.1H518.7z M515.4,82.3
				c-3.4,0-5.9-1.5-5.9-5.4h2.8c0.3,1.4,1.5,2.1,3.2,2.1c1.7,0,2.8-0.7,3.2-2.1h2.8C521.4,80.9,518.8,82.3,515.4,82.3z"/>
			<path id="XMLID_118_" class="st2" d="M546.8,95.7c-0.7,5.1-4,8-9.5,8c-5.8,0-9.9-4-9.9-9.9c0-6.1,4-10.2,10-10.2
				c5.3,0,8.9,2.9,9.3,7.4h-6c-0.3-1.8-1.5-2.9-3.2-2.9c-2.4,0-3.8,2.1-3.8,5.6c0,3.4,1.3,5.3,3.8,5.3c1.9,0,3-1.1,3.4-3.3H546.8z"
				/>
			<path id="XMLID_122_" class="st2" d="M561.3,91.4l7.8,11.8h-7.4l-4.5-7.4l-1.9,2v5.4h-6.2V84.2h6.1V91l5.8-6.8h7.1L561.3,91.4z"
				/>
			<path id="XMLID_124_" class="st2" d="M582.8,103.3l0.2-11.9l-6,11.9h-6.9V84.2h6l-0.2,11.9l5.9-11.9h7v19.1H582.8z"/>
			<path id="XMLID_126_" class="st2" d="M622.6,109.7v-6.5h-15.1v6.5h-6.3V97.4h2.7c2.2-3.6,3.5-12.1,3.5-17.4v-3.1H626v20.5h3v12.3
				H622.6z M619.3,82.5h-5.5v1.2c0,4.8-1.2,10.4-2.7,13.7h8.3V82.5z"/>
			<path id="XMLID_129_" class="st2" d="M635.9,95.2c0.1,2.8,1.7,4.4,4.3,4.4c1.7,0,2.7-0.7,3.5-2.2h5.8c-1.2,4.1-4.7,6.4-9.4,6.4
				c-5.9,0-10.3-3.7-10.3-9.9c0-6,4.2-10.2,10.1-10.2c6.2,0,10,4.2,10,11v0.6H635.9z M639.9,87.9c-2.2,0-3.6,1.3-4,3.7h7.8
				C643.6,89.5,642.3,87.9,639.9,87.9z"/>
			<path id="XMLID_132_" class="st2" d="M664,88.9h-3.9l-0.2,5.8c-0.1,3.6-0.3,9-6.6,9c-1.2,0-2.2-0.2-3.1-0.5v-4.9
				c0.4,0.2,1,0.3,1.4,0.3c1.6,0,2.2-1.3,2.2-3.3l0.3-11.1h16.1v19.1H664V88.9z"/>
			<path id="XMLID_134_" class="st2" d="M692.8,93.7c0,6-4,10.2-9.9,10.2s-10-4.1-10-10.1c0-6,4.1-10.1,10-10.1
				C688.8,83.6,692.8,87.7,692.8,93.7z M679.1,93.7c0,3.6,1.3,5.6,3.8,5.6c2.4,0,3.7-2,3.7-5.6c0-3.4-1.4-5.4-3.8-5.4
				C680.5,88.3,679.1,90.3,679.1,93.7z"/>
			<path id="XMLID_137_" class="st2" d="M695.5,84.2h11.9c3.2,0,6.1,1.3,6.1,4.8c0,1.9-0.9,3-2.4,3.8c2.3,0.7,3.4,2.3,3.4,4.7
				c0,1.8-0.7,3.3-1.9,4.3c-1.6,1.4-3.5,1.4-5.5,1.4h-11.5V84.2z M704.8,91.7c1.7,0,2.4-0.6,2.4-1.8c0-1.6-1.2-1.9-2.6-1.9h-3.2v3.7
				H704.8z M705.2,99.3c1.5,0,2.8-0.3,2.8-2.1c0-1.8-1.4-2.2-2.9-2.2h-3.6v4.4H705.2z"/>
			<path id="XMLID_141_" class="st2" d="M736,93.7c0,6-4,10.2-9.9,10.2s-10-4.1-10-10.1c0-6,4.1-10.1,10-10.1
				C731.9,83.6,736,87.7,736,93.7z M722.3,93.7c0,3.6,1.3,5.6,3.8,5.6c2.4,0,3.7-2,3.7-5.6c0-3.4-1.4-5.4-3.8-5.4
				C723.6,88.3,722.3,90.3,722.3,93.7z"/>
			<path id="XMLID_158_" class="st2" d="M751.3,103.3l0.2-11.9l-6,11.9h-6.9V84.2h6l-0.2,11.9l5.9-11.9h7v19.1H751.3z M748,82.3
				c-3.4,0-5.9-1.5-5.9-5.4h2.8c0.3,1.4,1.5,2.1,3.2,2.1c1.7,0,2.8-0.7,3.2-2.1h2.8C753.9,80.9,751.4,82.3,748,82.3z"/>
			<path id="XMLID_161_" class="st2" d="M795.9,93c-0.1,2-0.3,2.8-1.2,4.7c-2,4.2-5.6,6.3-10.7,6.3c-8.1,0-13-5.9-13-13.9
				c0-8.1,5.4-13.7,13.1-13.7c5.8,0,11.2,3.7,11.7,9.9h-6.7c-0.6-2.7-2.3-4.1-5.1-4.1c-3.7,0-6.1,3.2-6.1,8.1c0,4.8,2.4,7.9,6.1,7.9
				c3,0,4.7-1.7,5.2-5.1H795.9z"/>
			<path id="XMLID_163_" class="st2" d="M817.5,93.7c0,6-4,10.2-9.9,10.2s-10-4.1-10-10.1c0-6,4.1-10.1,10-10.1
				C813.5,83.6,817.5,87.7,817.5,93.7z M803.8,93.7c0,3.6,1.3,5.6,3.8,5.6c2.4,0,3.7-2,3.7-5.6c0-3.4-1.4-5.4-3.8-5.4
				C805.2,88.3,803.8,90.3,803.8,93.7z"/>
			<path id="XMLID_166_" class="st2" d="M820.2,84.2H832c3.2,0,6.1,1.3,6.1,4.8c0,1.9-0.9,3-2.4,3.8c2.3,0.7,3.4,2.3,3.4,4.7
				c0,1.8-0.7,3.3-1.9,4.3c-1.6,1.4-3.5,1.4-5.5,1.4h-11.5V84.2z M829.5,91.7c1.7,0,2.4-0.6,2.4-1.8c0-1.6-1.2-1.9-2.6-1.9h-3.2v3.7
				H829.5z M829.9,99.3c1.5,0,2.8-0.3,2.8-2.1c0-1.8-1.4-2.2-2.9-2.2h-3.6v4.4H829.9z"/>
			<path id="XMLID_170_" class="st2" d="M846.8,95.2c0.1,2.8,1.7,4.4,4.3,4.4c1.7,0,2.7-0.7,3.5-2.2h5.8c-1.2,4.1-4.7,6.4-9.4,6.4
				c-5.9,0-10.3-3.7-10.3-9.9c0-6,4.2-10.2,10.1-10.2c6.2,0,10,4.2,10,11v0.6H846.8z M850.8,87.9c-2.2,0-3.6,1.3-4,3.7h7.8
				C854.5,89.5,853.2,87.9,850.8,87.9z"/>
			<path id="XMLID_173_" class="st2" d="M873.3,103.3h-6.2V88.9h-6.2v-4.8h18.6v4.8h-6.2V103.3z"/>
		</g>
		<g id="XMLID_7_" class="st1">
			<path id="XMLID_10_" class="st2" d="M198.4,43.1c0,7.7-3.5,11.5-11.3,11.5s-11.3-3.8-11.3-11.5V27.6h6.8v15.9
				c0,3.4,1.2,5.1,4.6,5.1s4.6-1.7,4.6-5.1V27.6h6.8V43.1z"/>
			<path id="XMLID_12_" class="st2" d="M202.1,47.1h6.8V54h-6.8V47.1z"/>
			<path id="XMLID_14_" class="st2" d="M218,45.1c0.1,3.1,2,4.1,4.9,4.1c2,0,4.2-0.7,4.2-2.7c0-2.3-3.7-2.8-7.5-3.8
				c-3.7-1.1-7.6-2.8-7.6-7.6c0-5.8,5.7-8,10.6-8c5.2,0,10.4,2.6,10.4,8.5h-6.8c0.1-2.4-2.1-3.2-4.2-3.2c-1.5,0-3.3,0.5-3.3,2.3
				c0,2,3.8,2.4,7.6,3.5c3.8,1.1,7.6,2.8,7.6,7.6c0,6.7-5.6,8.8-11.3,8.8c-6,0-11.3-2.7-11.3-9.4H218z"/>
			<path id="XMLID_16_" class="st2" d="M236.3,47.1h6.8V54h-6.8V47.1z"/>
			<path id="XMLID_18_" class="st2" d="M245.3,41.2h18.2v5.3h-18.2V41.2z"/>
			<path id="XMLID_20_" class="st2" d="M267.3,27.6h13.3c4.6,0,9.1,2.1,9.1,7.4c0,2.8-1.3,5.6-4.1,6.6v0.1c2.8,0.7,3.6,3.8,3.8,6.3
				c0.1,1.1,0.2,5,1.1,6h-6.7c-0.6-0.9-0.7-3.5-0.8-4.2c-0.2-2.7-0.6-5.4-3.8-5.4H274V54h-6.8V27.6z M274,39h5.7
				c2,0,3.1-1.1,3.1-3.1c0-2-1.5-2.8-3.4-2.8H274V39z"/>
			<path id="XMLID_23_" class="st2" d="M311.3,54h-6v-2.6h-0.1c-1.2,2-3.6,3.2-5.8,3.2c-5.4,0-7-3.2-7-8.2V34.8h6.2v11.1
				c0,2.6,1.1,3.4,3.1,3.4c1.4,0,3.4-0.9,3.4-4.3V34.8h6.2V54z"/>
			<path id="XMLID_25_" class="st2" d="M319.5,47.6c0,1,0.4,1.7,1,2.1c0.6,0.4,1.4,0.7,2.3,0.7c1.2,0,2.9-0.5,2.9-2
				c0-1.5-1.9-1.8-3-2c-3.9-1-8.8-1.1-8.8-6.3c0-4.6,4.9-5.9,8.6-5.9c4.2,0,8.5,1.2,8.7,6.2h-5.7c0-0.8-0.3-1.3-0.8-1.7
				s-1.2-0.5-2-0.5c-1,0-2.7,0.1-2.7,1.4c0,1.8,4.2,2.1,7,2.8c3.8,0.8,4.8,3.6,4.8,5.2c0,5.1-4.8,6.8-9.1,6.8
				c-4.5,0-9.1-1.5-9.3-6.9H319.5z"/>
			<path id="XMLID_27_" class="st2" d="M338.9,47.6c0,1,0.4,1.7,1,2.1c0.6,0.4,1.4,0.7,2.3,0.7c1.2,0,2.9-0.5,2.9-2
				c0-1.5-1.9-1.8-3-2c-3.9-1-8.8-1.1-8.8-6.3c0-4.6,4.9-5.9,8.6-5.9c4.2,0,8.5,1.2,8.7,6.2H345c0-0.8-0.3-1.3-0.8-1.7
				s-1.2-0.5-2-0.5c-1,0-2.7,0.1-2.7,1.4c0,1.8,4.2,2.1,7,2.8c3.8,0.8,4.8,3.6,4.8,5.2c0,5.1-4.8,6.8-9.1,6.8
				c-4.5,0-9.1-1.5-9.3-6.9H338.9z"/>
			<path id="XMLID_29_" class="st2" d="M360,32.4h-6.2v-4.8h6.2V32.4z M353.8,34.8h6.2V54h-6.2V34.8z"/>
			<path id="XMLID_32_" class="st2" d="M363.2,40.7c0.1-2.5,1.3-4.1,3-5.1c1.7-1,3.9-1.3,6-1.3c4.5,0,8.8,1,8.8,6.4V49
				c0,1.6,0,3.4,0.7,4.9h-6.2c-0.2-0.6-0.3-1.2-0.4-1.8c-1.6,1.7-4,2.4-6.2,2.4c-3.6,0-6.5-1.9-6.5-5.8c0-6.3,6.7-5.8,11-6.7
				c1.1-0.2,1.6-0.6,1.6-1.8c0-1.4-1.7-2-3-2c-1.7,0-2.8,0.8-3.1,2.4H363.2z M371.3,50.6c3,0,3.9-1.7,3.8-5.7
				c-0.9,0.6-2.5,0.7-3.8,1c-1.4,0.3-2.6,0.9-2.6,2.4C368.7,50,369.9,50.6,371.3,50.6z"/>
			<path id="XMLID_35_" class="st2" d="M395.2,27.6h12.2c4.5-0.1,9.4,1.1,9.4,6.6c0,2.4-1.4,4.3-3.4,5.3c2.8,0.8,4.5,3.3,4.5,6.3
				c0,6.3-4.6,8.2-10.1,8.2h-12.5V27.6z M402,37.9h5.3c1.2,0,2.8-0.6,2.8-2.5c0-1.9-1.3-2.6-2.8-2.6H402V37.9z M402,48.5h5.4
				c2.2,0,3.6-0.8,3.6-3c0-2.3-1.6-3.1-3.6-3.1H402V48.5z"/>
			<path id="XMLID_39_" class="st2" d="M439.3,54h-6v-2.6h-0.1c-1.2,2-3.6,3.2-5.8,3.2c-5.4,0-7-3.2-7-8.2V34.8h6.2v11.1
				c0,2.6,1.1,3.4,3.1,3.4c1.4,0,3.4-0.9,3.4-4.3V34.8h6.2V54z"/>
			<path id="XMLID_41_" class="st2" d="M447.4,47.6c0,1,0.4,1.7,1,2.1c0.6,0.4,1.4,0.7,2.3,0.7c1.2,0,2.9-0.5,2.9-2
				c0-1.5-1.9-1.8-3-2c-3.9-1-8.8-1.1-8.8-6.3c0-4.6,4.9-5.9,8.6-5.9c4.2,0,8.5,1.2,8.7,6.2h-5.7c0-0.8-0.3-1.3-0.8-1.7
				s-1.2-0.5-2-0.5c-1,0-2.7,0.1-2.7,1.4c0,1.8,4.2,2.1,7,2.8c3.8,0.8,4.8,3.6,4.8,5.2c0,5.1-4.8,6.8-9.1,6.8
				c-4.5,0-9.1-1.5-9.3-6.9H447.4z"/>
			<path id="XMLID_43_" class="st2" d="M468.5,32.4h-6.2v-4.8h6.2V32.4z M462.3,34.8h6.2V54h-6.2V34.8z"/>
			<path id="XMLID_46_" class="st2" d="M472,34.8h6v2.6h0.1c1.1-2,3.7-3.2,5.9-3.2c6.3,0,6.8,4.7,6.8,7.4V54h-6.2v-9.3
				c0-2.6,0.3-5.3-3.1-5.3c-2.3,0-3.4,2-3.4,4.1V54H472V34.8z"/>
			<path id="XMLID_48_" class="st2" d="M499.4,45.9c0.1,2.6,1.6,4.4,4.2,4.4c1.5,0,3-0.7,3.5-2.1h5.8c-1.1,4.4-5.2,6.4-9.4,6.4
				c-6.2,0-10.4-3.8-10.4-10.2c0-5.9,4.6-10.1,10.2-10.1c6.8,0,10.2,5.2,9.9,11.7H499.4z M507.1,42.4c-0.1-2.1-1.6-3.9-3.7-3.9
				c-2.2,0-3.6,1.6-4,3.9H507.1z"/>
			<path id="XMLID_51_" class="st2" d="M520.4,47.6c0,1,0.4,1.7,1,2.1c0.6,0.4,1.4,0.7,2.3,0.7c1.2,0,2.9-0.5,2.9-2
				c0-1.5-1.9-1.8-3-2c-3.9-1-8.8-1.1-8.8-6.3c0-4.6,4.9-5.9,8.6-5.9c4.2,0,8.5,1.2,8.7,6.2h-5.7c0-0.8-0.3-1.3-0.8-1.7
				s-1.2-0.5-2-0.5c-1,0-2.7,0.1-2.7,1.4c0,1.8,4.2,2.1,7,2.8c3.8,0.8,4.8,3.6,4.8,5.2c0,5.1-4.8,6.8-9.1,6.8
				c-4.5,0-9.1-1.5-9.3-6.9H520.4z"/>
			<path id="XMLID_53_" class="st2" d="M539.9,47.6c0,1,0.4,1.7,1,2.1c0.6,0.4,1.4,0.7,2.3,0.7c1.2,0,2.9-0.5,2.9-2
				c0-1.5-1.9-1.8-3-2c-3.9-1-8.8-1.1-8.8-6.3c0-4.6,4.9-5.9,8.6-5.9c4.2,0,8.5,1.2,8.7,6.2h-5.7c0-0.8-0.3-1.3-0.8-1.7
				s-1.2-0.5-2-0.5c-1,0-2.7,0.1-2.7,1.4c0,1.8,4.2,2.1,7,2.8c3.8,0.8,4.8,3.6,4.8,5.2c0,5.1-4.8,6.8-9.1,6.8
				c-4.5,0-9.1-1.5-9.3-6.9H539.9z"/>
			<path id="XMLID_55_" class="st2" d="M582.7,37c-0.4-2.7-2.4-4.1-5.3-4.1c-4.4,0-6.1,3.9-6.1,7.8s1.7,7.8,6.1,7.8
				c3.2,0,5-1.9,5.3-4.9h6.8c-0.4,6.8-5.3,10.8-11.9,10.8c-7.9,0-13-6.1-13-13.8s5.1-13.8,13-13.8c5.6,0,11.7,3.6,11.9,10H582.7z"/>
			<path id="XMLID_57_" class="st2" d="M601,34.2c5.9,0,10,4.4,10,10.2s-4.1,10.1-10,10.1c-5.9,0-10-4.4-10-10.1
				S595.2,34.2,601,34.2z M601,49.7c2.9,0,3.8-2.9,3.8-5.3c0-2.4-0.9-5.4-3.8-5.4c-2.9,0-3.8,2.9-3.8,5.4
				C597.3,46.8,598.2,49.7,601,49.7z"/>
			<path id="XMLID_60_" class="st2" d="M632.3,54h-6v-2.6h-0.1c-1.2,2-3.6,3.2-5.8,3.2c-5.4,0-7-3.2-7-8.2V34.8h6.2v11.1
				c0,2.6,1.1,3.4,3.1,3.4c1.4,0,3.4-0.9,3.4-4.3V34.8h6.2V54z"/>
			<path id="XMLID_62_" class="st2" d="M635.6,34.8h6v2.6h0.1c1.1-2,3.7-3.2,5.9-3.2c6.3,0,6.8,4.7,6.8,7.4V54h-6.2v-9.3
				c0-2.6,0.3-5.3-3.1-5.3c-2.3,0-3.4,2-3.4,4.1V54h-6.2V34.8z"/>
			<path id="XMLID_64_" class="st2" d="M670.1,41.8c0-1.6-1.5-2.8-3-2.8c-3.5,0-4,3-4,5.7c0,2.5,1.1,5,3.7,5c2.2,0,3.2-1.3,3.5-3.3
				h6c-0.5,5.1-4.5,8.1-9.5,8.1c-5.7,0-9.9-4-9.9-9.8c0-6.1,3.8-10.5,9.9-10.5c4.7,0,8.9,2.5,9.3,7.6H670.1z"/>
			<path id="XMLID_66_" class="st2" d="M685,32.4h-6.2v-4.8h6.2V32.4z M678.8,34.8h6.2V54h-6.2V34.8z"/>
			<path id="XMLID_69_" class="st2" d="M688.7,27.6h6.2V54h-6.2V27.6z"/>
		</g>
	</g>
</g>
<g id="mark">
	<g id="XMLID_1_">
		<polygon id="XMLID_6_" class="st4" points="142.4,104 22.2,135.9 22.2,109.9 142.4,78 		"/>
		<polygon id="XMLID_5_" class="st5" points="120.2,83.9 0,52 0,78 120.2,109.9 		"/>
		<polygon id="XMLID_4_" class="st4" points="142.4,52 22.2,83.9 22.2,57.9 142.4,26 		"/>
		<polygon id="XMLID_3_" class="st5" points="120.2,31.9 0,0 0,26 120.2,57.9 		"/>
		<path id="XMLID_2_" class="st5" d="M120.2,57.9"/>
	</g>
</g>
<g id="Layer_3" class="st0">
	<circle id="spacer" class="st6" cx="158.8" cy="38.8" r="16.4"/>
</g>
</svg>
