<?xml version="1.0" encoding="utf-8"?>
<!-- Generator: Adobe Illustrator 18.1.1, SVG Export Plug-In . SVG Version: 6.00 Build 0)  -->
<svg version="1.1" id="Layer_1" xmlns="http://www.w3.org/2000/svg" xmlns:xlink="http://www.w3.org/1999/xlink" x="0px" y="0px"
	 viewBox="0 0 332.4 79.8" enable-background="new 0 0 332.4 79.8" xml:space="preserve">
<g>
	<path d="M12.3,30.8c-4,0-7-1-9.1-2.9C1.1,26,0,23.2,0,19.6V1.5h6v17.6c0,2.3,0.5,4,1.6,5.2c1.1,1.2,2.7,1.8,4.8,1.8
		c2.2,0,3.8-0.6,5-1.9s1.7-3,1.7-5.3V1.5h6v17.8c0,3.7-1.1,6.5-3.4,8.5S16.4,30.8,12.3,30.8z"/>
	<path d="M29.7,30.4v-6.3h5.9v6.3H29.7z"/>
	<path d="M63.9,22.1c0,2.8-1,5-3.1,6.5s-5.2,2.2-9.2,2.2c-3.7,0-6.6-0.7-8.7-2s-3.5-3.3-4.1-6l5.8-1c0.4,1.5,1.2,2.6,2.3,3.3
		s2.7,1,4.8,1c4.2,0,6.3-1.3,6.3-3.9c0-0.8-0.2-1.5-0.7-2c-0.5-0.5-1.2-1-2.1-1.3c-0.9-0.4-2.6-0.8-5.1-1.3
		c-2.2-0.5-3.7-0.9-4.5-1.2s-1.6-0.7-2.3-1.1s-1.3-0.9-1.7-1.5s-0.9-1.3-1.1-2.1c-0.3-0.8-0.4-1.7-0.4-2.7c0-2.6,1-4.6,2.9-6
		s4.8-2.1,8.6-2.1c3.6,0,6.3,0.6,8.1,1.7c1.8,1.1,3,3,3.5,5.6l-5.9,0.8C57,7.9,56.4,7,55.5,6.3c-0.9-0.6-2.2-0.9-4-0.9
		c-3.7,0-5.5,1.1-5.5,3.4c0,0.8,0.2,1.4,0.6,1.8c0.4,0.5,1,0.9,1.7,1.2s2.3,0.8,4.7,1.3c2.8,0.6,4.8,1.1,6,1.6s2.1,1.1,2.8,1.7
		s1.2,1.5,1.6,2.4S63.9,20.9,63.9,22.1z"/>
	<path d="M67.4,30.4v-6.3h5.9v6.3H67.4z"/>
	<path d="M76.9,22v-5h10.7v5H76.9z"/>
	<path d="M111,30.4l-6.7-11h-7.1v11h-6V1.5h14.4c3.4,0,6.1,0.7,8,2.2s2.8,3.6,2.8,6.4c0,2-0.6,3.8-1.7,5.2s-2.7,2.4-4.7,2.9
		l7.8,12.1H111z M110.3,10.4c0-2.8-1.8-4.2-5.3-4.2h-7.8v8.5h7.9c1.7,0,3-0.4,3.9-1.1S110.3,11.8,110.3,10.4z"/>
	<path d="M126,8.2v12.4c0,3.9,1.3,5.8,3.9,5.8c1.4,0,2.5-0.6,3.4-1.8s1.3-2.7,1.3-4.6V8.2h5.8v17.2c0,1.9,0.1,3.5,0.2,5h-5.5
		c-0.2-2-0.2-3.4-0.2-4.4h-0.1c-0.8,1.7-1.7,2.9-2.9,3.7s-2.6,1.1-4.2,1.1c-2.4,0-4.2-0.7-5.4-2.2s-1.9-3.6-1.9-6.3V8.2H126z"/>
	<path d="M164,24c0,2.1-0.9,3.8-2.6,5.1s-4.2,1.8-7.3,1.8c-3,0-5.4-0.5-7-1.4c-1.6-1-2.7-2.5-3.2-4.5l5.1-0.8
		c0.3,1.1,0.8,1.8,1.5,2.2c0.7,0.4,1.9,0.7,3.7,0.7c1.6,0,2.8-0.2,3.5-0.6s1.1-1.1,1.1-1.9c0-0.7-0.3-1.3-0.9-1.7
		c-0.6-0.4-1.6-0.8-3-1.1c-3.3-0.6-5.4-1.2-6.6-1.8s-2-1.3-2.6-2.2c-0.6-0.9-0.9-2-0.9-3.3c0-2.1,0.8-3.8,2.5-5s3.9-1.8,6.9-1.8
		c2.6,0,4.8,0.5,6.4,1.5c1.6,1,2.6,2.5,3,4.5l-5.1,0.5c-0.2-0.9-0.6-1.6-1.2-2s-1.7-0.7-3.1-0.7c-1.4,0-2.4,0.2-3.1,0.5
		s-1,0.9-1,1.8c0,0.6,0.3,1.2,0.8,1.5c0.5,0.4,1.4,0.7,2.7,0.9c1.7,0.4,3.3,0.7,4.6,1.1s2.4,0.8,3.2,1.3s1.5,1.2,1.9,2
		C163.8,21.6,164,22.7,164,24z"/>
	<path d="M186.4,24c0,2.1-0.9,3.8-2.6,5.1s-4.2,1.8-7.3,1.8c-3,0-5.4-0.5-7-1.4c-1.6-1-2.7-2.5-3.2-4.5l5.1-0.8
		c0.3,1.1,0.8,1.8,1.5,2.2c0.7,0.4,1.9,0.7,3.7,0.7c1.6,0,2.8-0.2,3.5-0.6s1.1-1.1,1.1-1.9c0-0.7-0.3-1.3-0.9-1.7
		c-0.6-0.4-1.6-0.8-3-1.1c-3.3-0.6-5.4-1.2-6.6-1.8s-2-1.3-2.6-2.2c-0.6-0.9-0.9-2-0.9-3.3c0-2.1,0.8-3.8,2.5-5s3.9-1.8,6.9-1.8
		c2.6,0,4.8,0.5,6.4,1.5c1.6,1,2.6,2.5,3,4.5l-5.1,0.5c-0.2-0.9-0.6-1.6-1.2-2s-1.7-0.7-3.1-0.7c-1.4,0-2.4,0.2-3.1,0.5
		s-1,0.9-1,1.8c0,0.6,0.3,1.2,0.8,1.5c0.5,0.4,1.4,0.7,2.7,0.9c1.7,0.4,3.3,0.7,4.6,1.1s2.4,0.8,3.2,1.3s1.5,1.2,1.9,2
		C186.2,21.6,186.4,22.7,186.4,24z"/>
	<path d="M190.1,4.2V0h5.8v4.2H190.1z M190.1,30.4V8.2h5.8v22.2H190.1z"/>
	<path d="M205.9,30.8c-2.1,0-3.8-0.6-5-1.8s-1.8-2.8-1.8-4.9c0-2.3,0.7-4,2.2-5.2c1.5-1.2,3.7-1.8,6.5-1.8l4.8-0.1v-1.1
		c0-1.4-0.3-2.5-0.8-3.2s-1.3-1.1-2.5-1.1c-1.1,0-1.8,0.2-2.3,0.7c-0.5,0.5-0.8,1.3-0.9,2.4l-6-0.3c0.4-2.2,1.4-3.8,3-4.9
		c1.6-1.1,3.8-1.7,6.6-1.7c2.8,0,5,0.7,6.5,2.1s2.3,3.3,2.3,5.9v8.1c0,1.2,0.1,2.1,0.4,2.6c0.3,0.5,0.7,0.7,1.4,0.7
		c0.4,0,0.9,0,1.3-0.1v3.1c-0.3,0.1-0.6,0.2-0.9,0.2s-0.5,0.1-0.8,0.2s-0.6,0.1-0.9,0.1c-0.3,0-0.7,0-1.1,0c-1.4,0-2.5-0.4-3.2-1.1
		c-0.7-0.7-1.1-1.8-1.2-3.1h-0.1C211.6,29.4,209.2,30.8,205.9,30.8z M212.6,20.2l-3,0c-1.3,0.1-2.3,0.2-2.9,0.4s-1,0.6-1.3,1.1
		s-0.4,1.1-0.4,2c0,1.1,0.2,1.8,0.7,2.3s1.1,0.8,1.9,0.8c0.9,0,1.7-0.2,2.5-0.7c0.7-0.5,1.3-1.2,1.8-2s0.6-1.8,0.6-2.8V20.2z"/>
	<path d="M25.9,71.2c0,2.6-1,4.7-3,6.1s-4.7,2.2-8.2,2.2H0.3V50.5h13.2c3.5,0,6.2,0.6,8,1.8s2.7,3,2.7,5.4c0,1.6-0.5,3-1.4,4.2
		s-2.3,1.9-4.2,2.3c2.3,0.3,4.1,1,5.3,2.2S25.9,69.2,25.9,71.2z M18.1,58.6c0-1.3-0.4-2.2-1.2-2.8c-0.8-0.5-2.1-0.8-3.7-0.8H6.3v7.2
		h6.9c1.7,0,2.9-0.3,3.7-0.9C17.8,60.7,18.1,59.8,18.1,58.6z M19.8,70.7c0-2.7-1.9-4.1-5.8-4.1H6.3v8.3h7.9c1.9,0,3.4-0.4,4.3-1.1
		S19.8,72.1,19.8,70.7z"/>
	<path d="M35.2,57.2v12.4c0,3.9,1.3,5.8,3.9,5.8c1.4,0,2.5-0.6,3.4-1.8s1.3-2.7,1.3-4.6V57.2h5.8v17.2c0,1.9,0.1,3.5,0.2,5h-5.5
		C44.1,77.5,44,76,44,75h-0.1c-0.8,1.7-1.7,2.9-2.9,3.7s-2.6,1.1-4.2,1.1c-2.4,0-4.2-0.7-5.4-2.2s-1.9-3.6-1.9-6.3V57.2H35.2z"/>
	<path d="M73.2,73c0,2.1-0.9,3.8-2.6,5.1s-4.2,1.8-7.3,1.8c-3,0-5.4-0.5-7-1.4c-1.6-1-2.7-2.5-3.2-4.5l5.1-0.8
		c0.3,1.1,0.8,1.8,1.5,2.2c0.7,0.4,1.9,0.7,3.7,0.7c1.6,0,2.8-0.2,3.5-0.6s1.1-1.1,1.1-1.9c0-0.7-0.3-1.3-0.9-1.7
		c-0.6-0.4-1.6-0.8-3-1.1c-3.3-0.6-5.4-1.2-6.6-1.8s-2-1.3-2.6-2.2c-0.6-0.9-0.9-2-0.9-3.3c0-2.1,0.8-3.8,2.5-5s3.9-1.8,6.9-1.8
		c2.6,0,4.8,0.5,6.4,1.5c1.6,1,2.6,2.5,3,4.5l-5.1,0.5c-0.2-0.9-0.6-1.6-1.2-2s-1.7-0.7-3.1-0.7c-1.4,0-2.4,0.2-3.1,0.5
		s-1,0.9-1,1.8c0,0.6,0.3,1.2,0.8,1.5c0.5,0.4,1.4,0.7,2.7,0.9c1.7,0.4,3.3,0.7,4.6,1.1s2.4,0.8,3.2,1.3s1.5,1.2,1.9,2
		C72.9,70.6,73.2,71.7,73.2,73z"/>
	<path d="M76.9,53.2V49h5.8v4.2H76.9z M76.9,79.4V57.2h5.8v22.2H76.9z"/>
	<path d="M101.9,79.4V67c0-3.9-1.3-5.8-4-5.8c-1.4,0-2.5,0.6-3.4,1.8c-0.9,1.2-1.3,2.7-1.3,4.6v11.9h-5.8V62.2c0-1.2,0-2.2-0.1-2.9
		s-0.1-1.4-0.1-2h5.5c0,0.3,0.1,1,0.2,2.1s0.1,1.9,0.1,2.3h0.1C94,60,95,58.7,96.2,58s2.6-1.1,4.2-1.1c2.4,0,4.2,0.7,5.4,2.2
		s1.9,3.6,1.9,6.4v14.1H101.9z"/>
	<path d="M121.3,79.8c-3.3,0-5.9-1-7.7-3S111,72,111,68.2c0-3.7,0.9-6.5,2.7-8.4s4.4-3,7.7-3c3.2,0,5.6,1.1,7.3,3.2
		c1.7,2.1,2.5,5.2,2.5,9.3v0.2H117c0,2.2,0.4,3.8,1.2,4.9c0.8,1.1,1.9,1.7,3.4,1.7c2,0,3.3-0.9,3.9-2.6l5.4,0.5
		C129.3,77.8,126.1,79.8,121.3,79.8z M121.3,60.5c-1.4,0-2.4,0.5-3.1,1.4c-0.7,0.9-1.1,2.3-1.2,4h8.6c-0.1-1.8-0.5-3.1-1.3-4
		S122.6,60.5,121.3,60.5z"/>
	<path d="M153.3,73c0,2.1-0.9,3.8-2.6,5.1s-4.2,1.8-7.3,1.8c-3,0-5.4-0.5-7-1.4c-1.6-1-2.7-2.5-3.2-4.5l5.1-0.8
		c0.3,1.1,0.8,1.8,1.5,2.2c0.7,0.4,1.9,0.7,3.7,0.7c1.6,0,2.8-0.2,3.5-0.6s1.1-1.1,1.1-1.9c0-0.7-0.3-1.3-0.9-1.7
		c-0.6-0.4-1.6-0.8-3-1.1c-3.3-0.6-5.4-1.2-6.6-1.8s-2-1.3-2.6-2.2c-0.6-0.9-0.9-2-0.9-3.3c0-2.1,0.8-3.8,2.5-5s3.9-1.8,6.9-1.8
		c2.6,0,4.8,0.5,6.4,1.5c1.6,1,2.6,2.5,3,4.5l-5.1,0.5c-0.2-0.9-0.6-1.6-1.2-2s-1.7-0.7-3.1-0.7c-1.4,0-2.4,0.2-3.1,0.5
		s-1,0.9-1,1.8c0,0.6,0.3,1.2,0.8,1.5c0.5,0.4,1.4,0.7,2.7,0.9c1.7,0.4,3.3,0.7,4.6,1.1s2.4,0.8,3.2,1.3s1.5,1.2,1.9,2
		C153.1,70.6,153.3,71.7,153.3,73z"/>
	<path d="M175.7,73c0,2.1-0.9,3.8-2.6,5.1s-4.2,1.8-7.3,1.8c-3,0-5.4-0.5-7-1.4c-1.6-1-2.7-2.5-3.2-4.5l5.1-0.8
		c0.3,1.1,0.8,1.8,1.5,2.2c0.7,0.4,1.9,0.7,3.7,0.7c1.6,0,2.8-0.2,3.5-0.6s1.1-1.1,1.1-1.9c0-0.7-0.3-1.3-0.9-1.7
		c-0.6-0.4-1.6-0.8-3-1.1c-3.3-0.6-5.4-1.2-6.6-1.8s-2-1.3-2.6-2.2c-0.6-0.9-0.9-2-0.9-3.3c0-2.1,0.8-3.8,2.5-5s3.9-1.8,6.9-1.8
		c2.6,0,4.8,0.5,6.4,1.5c1.6,1,2.6,2.5,3,4.5l-5.1,0.5c-0.2-0.9-0.6-1.6-1.2-2s-1.7-0.7-3.1-0.7c-1.4,0-2.4,0.2-3.1,0.5
		s-1,0.9-1,1.8c0,0.6,0.3,1.2,0.8,1.5c0.5,0.4,1.4,0.7,2.7,0.9c1.7,0.4,3.3,0.7,4.6,1.1s2.4,0.8,3.2,1.3s1.5,1.2,1.9,2
		C175.5,70.6,175.7,71.7,175.7,73z"/>
	<path d="M203.5,75.1c3.7,0,6.2-1.8,7.6-5.5l5.3,2c-1.1,2.8-2.8,4.9-5,6.2c-2.2,1.4-4.8,2-7.9,2c-4.6,0-8.2-1.3-10.8-3.9
		c-2.5-2.6-3.8-6.3-3.8-11c0-4.7,1.2-8.4,3.7-10.9s6-3.8,10.6-3.8c3.4,0,6.2,0.7,8.3,2s3.6,3.4,4.5,6l-5.3,1.5
		c-0.5-1.4-1.3-2.6-2.7-3.5c-1.3-0.9-2.9-1.3-4.7-1.3c-2.7,0-4.8,0.8-6.2,2.5c-1.4,1.7-2.1,4.2-2.1,7.4c0,3.3,0.7,5.9,2.2,7.6
		C198.6,74.2,200.8,75.1,203.5,75.1z"/>
	<path d="M240.6,68.3c0,3.6-1,6.4-3,8.5s-4.8,3.1-8.3,3.1c-3.5,0-6.2-1-8.1-3.1s-3-4.9-3-8.4c0-3.6,1-6.4,3-8.4s4.7-3.1,8.3-3.1
		c3.6,0,6.4,1,8.3,3C239.6,61.8,240.6,64.6,240.6,68.3z M234.5,68.3c0-2.6-0.4-4.6-1.3-5.7s-2.1-1.8-3.8-1.8c-3.5,0-5.2,2.5-5.2,7.5
		c0,2.5,0.4,4.4,1.3,5.6c0.9,1.3,2.1,1.9,3.7,1.9C232.8,75.9,234.5,73.4,234.5,68.3z"/>
	<path d="M249.6,57.2v12.4c0,3.9,1.3,5.8,3.9,5.8c1.4,0,2.5-0.6,3.4-1.8s1.3-2.7,1.3-4.6V57.2h5.8v17.2c0,1.9,0.1,3.5,0.2,5h-5.5
		c-0.2-2-0.2-3.4-0.2-4.4h-0.1c-0.8,1.7-1.7,2.9-2.9,3.7c-1.2,0.8-2.6,1.1-4.2,1.1c-2.4,0-4.2-0.7-5.4-2.2s-1.9-3.6-1.9-6.3V57.2
		H249.6z"/>
	<path d="M283.2,79.4V67c0-3.9-1.3-5.8-4-5.8c-1.4,0-2.5,0.6-3.4,1.8c-0.9,1.2-1.3,2.7-1.3,4.6v11.9h-5.8V62.2c0-1.2,0-2.2-0.1-2.9
		s-0.1-1.4-0.1-2h5.5c0,0.3,0.1,1,0.2,2.1s0.1,1.9,0.1,2.3h0.1c0.8-1.7,1.8-2.9,2.9-3.7s2.6-1.1,4.2-1.1c2.4,0,4.2,0.7,5.4,2.2
		s1.9,3.6,1.9,6.4v14.1H283.2z"/>
	<path d="M302.8,79.8c-3.4,0-6-1-7.8-3s-2.7-4.8-2.7-8.4c0-3.7,0.9-6.5,2.8-8.6s4.5-3.1,7.9-3.1c2.6,0,4.8,0.7,6.5,2
		s2.8,3.1,3.2,5.4l-5.8,0.3c-0.2-1.1-0.6-2-1.2-2.7s-1.6-1-2.8-1c-3,0-4.5,2.5-4.5,7.4c0,5.1,1.5,7.7,4.5,7.7c1.1,0,2-0.3,2.7-1
		s1.2-1.7,1.4-3.1l5.8,0.3c-0.2,1.5-0.7,2.9-1.6,4.1c-0.9,1.2-2,2.1-3.5,2.8S304.6,79.8,302.8,79.8z"/>
	<path d="M316,53.2V49h5.8v4.2H316z M316,79.4V57.2h5.8v22.2H316z"/>
	<path d="M326.7,79.4V49h5.8v30.4H326.7z"/>
</g>
</svg>
