<?xml version="1.0" encoding="utf-8"?>
<!-- Generator: Adobe Illustrator 18.1.1, SVG Export Plug-In . SVG Version: 6.00 Build 0)  -->
<svg version="1.1" id="Layer_1" xmlns="http://www.w3.org/2000/svg" xmlns:xlink="http://www.w3.org/1999/xlink" x="0px" y="0px"
	 viewBox="0 0 327.3 82.8" enable-background="new 0 0 327.3 82.8" xml:space="preserve">
<g>
	<path fill="#010101" stroke="#231F20" stroke-miterlimit="10" d="M22.7,28.9c-2.3,2-5.4,3-9.4,3c-4.1,0-7.2-1-9.4-2.9
		c-2.2-2-3.3-5-3.3-9.1V1.2h6.6v18.6c0,0.8,0.1,1.6,0.2,2.4c0.1,0.8,0.4,1.5,0.9,2.1c0.4,0.6,1.1,1.1,1.9,1.5s1.9,0.6,3.2,0.6
		c2.4,0,4-0.5,4.9-1.6c0.9-1.1,1.3-2.7,1.3-4.9V1.2h6.6v18.6C26.1,23.9,24.9,26.9,22.7,28.9z"/>
	<path fill="#010101" d="M37,24.7v6.5h-6.6v-6.5H37z"/>
	<path fill="#010101" stroke="#231F20" stroke-miterlimit="10" d="M46.5,23.8c0.4,0.7,0.8,1.3,1.4,1.7c0.6,0.4,1.3,0.8,2.1,1
		c0.8,0.2,1.7,0.3,2.5,0.3c0.6,0,1.2,0,1.9-0.1c0.7-0.1,1.3-0.3,1.9-0.6c0.6-0.3,1.1-0.7,1.5-1.2c0.4-0.5,0.6-1.1,0.6-1.9
		c0-0.8-0.3-1.5-0.8-2c-0.5-0.5-1.2-0.9-2-1.3s-1.8-0.6-2.9-0.9c-1.1-0.3-2.1-0.5-3.2-0.8c-1.1-0.3-2.2-0.6-3.3-1
		c-1.1-0.4-2-0.9-2.9-1.6c-0.8-0.6-1.5-1.4-2-2.4c-0.5-1-0.8-2.1-0.8-3.5c0-1.5,0.3-2.9,1-4c0.7-1.1,1.5-2.1,2.6-2.8
		C45.2,2,46.4,1.4,47.8,1c1.3-0.4,2.7-0.5,4-0.5c1.6,0,3.1,0.2,4.5,0.5c1.4,0.4,2.7,0.9,3.8,1.7c1.1,0.8,2,1.8,2.7,3
		c0.7,1.2,1,2.7,1,4.4h-6.4c-0.1-0.9-0.2-1.6-0.6-2.2c-0.3-0.6-0.7-1-1.3-1.4c-0.5-0.3-1.1-0.6-1.8-0.7c-0.7-0.1-1.4-0.2-2.2-0.2
		c-0.5,0-1.1,0.1-1.6,0.2c-0.5,0.1-1,0.3-1.4,0.6c-0.4,0.3-0.8,0.6-1.1,1C47.1,7.9,47,8.4,47,9c0,0.6,0.1,1.1,0.3,1.4
		c0.2,0.4,0.7,0.7,1.3,1c0.7,0.3,1.6,0.6,2.7,0.9c1.2,0.3,2.7,0.7,4.6,1.2c0.6,0.1,1.3,0.3,2.3,0.6c1,0.3,2,0.8,3,1.4
		c1,0.6,1.8,1.5,2.5,2.6c0.7,1.1,1.1,2.5,1.1,4.1c0,1.4-0.3,2.6-0.8,3.8c-0.5,1.2-1.3,2.2-2.4,3c-1,0.9-2.4,1.5-3.9,2
		s-3.4,0.7-5.4,0.7c-1.7,0-3.3-0.2-4.8-0.6c-1.6-0.4-2.9-1-4.1-1.9c-1.2-0.9-2.1-2-2.8-3.3c-0.7-1.3-1-2.9-1-4.8H46
		C46,22.3,46.2,23.1,46.5,23.8z"/>
	<path fill="#010101" d="M74,24.7v6.5h-6.6v-6.5H74z"/>
	<path fill="#010101" stroke="#231F20" stroke-miterlimit="10" d="M90.5,17.2v5.1H77.8v-5.1H90.5z"/>
	<path fill="#010101" stroke="#231F20" stroke-miterlimit="10" d="M110.8,1.2c1.3,0,2.6,0.2,3.6,0.7c1.1,0.4,2,1,2.8,1.8
		c0.8,0.8,1.4,1.6,1.8,2.6c0.4,1,0.6,2.1,0.6,3.2c0,1.8-0.4,3.3-1.1,4.6c-0.7,1.3-2,2.3-3.6,2.9v0.1c0.8,0.2,1.5,0.6,2,1
		c0.5,0.5,1,1,1.3,1.6c0.3,0.6,0.6,1.3,0.7,2.1c0.2,0.8,0.3,1.5,0.3,2.3c0,0.5,0.1,1,0.1,1.7c0,0.6,0.1,1.3,0.1,2
		c0.1,0.7,0.2,1.3,0.3,1.9c0.2,0.6,0.4,1.1,0.7,1.5h-6.6c-0.4-1-0.6-2.1-0.7-3.4c-0.1-1.3-0.2-2.6-0.4-3.8c-0.2-1.6-0.7-2.7-1.4-3.4
		c-0.7-0.7-1.9-1.1-3.6-1.1h-6.6v11.7h-6.6v-30H110.8z M108.4,14.8c1.5,0,2.6-0.3,3.4-1c0.8-0.7,1.1-1.8,1.1-3.3
		c0-1.5-0.4-2.5-1.1-3.2c-0.8-0.7-1.9-1-3.4-1h-7.2v8.4H108.4z"/>
	<path fill="#010101" stroke="#231F20" stroke-miterlimit="10" d="M138,31.2v-3h-0.1c-0.8,1.3-1.7,2.2-2.9,2.7
		c-1.2,0.6-2.4,0.8-3.7,0.8c-1.6,0-2.9-0.2-3.9-0.6c-1-0.4-1.8-1-2.4-1.8c-0.6-0.8-1-1.7-1.2-2.8c-0.2-1.1-0.4-2.3-0.4-3.7V9.5h6
		v12.3c0,1.8,0.3,3.1,0.8,4c0.6,0.9,1.6,1.3,3,1.3c1.6,0,2.8-0.5,3.5-1.4c0.7-1,1.1-2.6,1.1-4.8V9.5h6v21.7H138z"/>
	<path fill="#010101" stroke="#231F20" stroke-miterlimit="10" d="M152.3,25.8c0.3,0.5,0.6,0.8,1,1.1s0.9,0.5,1.4,0.7
		s1.1,0.2,1.7,0.2c0.4,0,0.9,0,1.3-0.1s0.9-0.3,1.3-0.5c0.4-0.2,0.7-0.5,0.9-0.8c0.3-0.3,0.4-0.8,0.4-1.3c0-0.9-0.6-1.6-1.8-2
		c-1.2-0.4-2.8-0.9-5-1.3c-0.9-0.2-1.7-0.4-2.5-0.7c-0.8-0.3-1.6-0.6-2.2-1c-0.6-0.4-1.2-1-1.6-1.6c-0.4-0.7-0.6-1.5-0.6-2.4
		c0-1.4,0.3-2.5,0.8-3.4c0.5-0.9,1.3-1.6,2.2-2.1c0.9-0.5,1.9-0.9,3-1.1s2.3-0.3,3.4-0.3s2.3,0.1,3.4,0.3s2.1,0.6,3,1.1
		c0.9,0.5,1.6,1.2,2.2,2.1s0.9,2,1,3.3h-5.7c-0.1-1.1-0.5-1.9-1.3-2.3c-0.8-0.4-1.7-0.6-2.8-0.6c-0.3,0-0.7,0-1.1,0.1
		c-0.4,0-0.8,0.1-1.1,0.3c-0.3,0.1-0.6,0.3-0.8,0.6c-0.2,0.3-0.3,0.6-0.3,1.1c0,0.5,0.2,1,0.6,1.3c0.4,0.3,0.9,0.6,1.5,0.8
		s1.4,0.4,2.2,0.6s1.6,0.4,2.5,0.5c0.9,0.2,1.7,0.4,2.5,0.7c0.8,0.3,1.6,0.7,2.2,1.1c0.6,0.5,1.2,1,1.6,1.7c0.4,0.7,0.6,1.5,0.6,2.5
		c0,1.4-0.3,2.6-0.9,3.6c-0.6,1-1.3,1.7-2.2,2.3c-0.9,0.6-2,1-3.2,1.2c-1.2,0.2-2.4,0.4-3.6,0.4c-1.3,0-2.5-0.1-3.7-0.4
		s-2.3-0.7-3.2-1.3c-0.9-0.6-1.7-1.4-2.3-2.3c-0.6-1-0.9-2.2-1-3.6h5.7C151.9,24.8,152,25.3,152.3,25.8z"/>
	<path fill="#010101" stroke="#231F20" stroke-miterlimit="10" d="M173.9,25.8c0.3,0.5,0.6,0.8,1,1.1s0.9,0.5,1.4,0.7
		s1.1,0.2,1.7,0.2c0.4,0,0.9,0,1.3-0.1s0.9-0.3,1.3-0.5c0.4-0.2,0.7-0.5,0.9-0.8c0.3-0.3,0.4-0.8,0.4-1.3c0-0.9-0.6-1.6-1.8-2
		c-1.2-0.4-2.8-0.9-5-1.3c-0.9-0.2-1.7-0.4-2.5-0.7c-0.8-0.3-1.6-0.6-2.2-1c-0.6-0.4-1.2-1-1.6-1.6c-0.4-0.7-0.6-1.5-0.6-2.4
		c0-1.4,0.3-2.5,0.8-3.4c0.5-0.9,1.3-1.6,2.2-2.1c0.9-0.5,1.9-0.9,3-1.1s2.3-0.3,3.4-0.3s2.3,0.1,3.4,0.3s2.1,0.6,3,1.1
		c0.9,0.5,1.6,1.2,2.2,2.1s0.9,2,1,3.3h-5.7c-0.1-1.1-0.5-1.9-1.3-2.3c-0.8-0.4-1.7-0.6-2.8-0.6c-0.3,0-0.7,0-1.1,0.1
		c-0.4,0-0.8,0.1-1.1,0.3c-0.3,0.1-0.6,0.3-0.8,0.6c-0.2,0.3-0.3,0.6-0.3,1.1c0,0.5,0.2,1,0.6,1.3c0.4,0.3,0.9,0.6,1.5,0.8
		s1.4,0.4,2.2,0.6s1.6,0.4,2.5,0.5c0.9,0.2,1.7,0.4,2.5,0.7c0.8,0.3,1.6,0.7,2.2,1.1c0.6,0.5,1.2,1,1.6,1.7c0.4,0.7,0.6,1.5,0.6,2.5
		c0,1.4-0.3,2.6-0.9,3.6c-0.6,1-1.3,1.7-2.2,2.3c-0.9,0.6-2,1-3.2,1.2c-1.2,0.2-2.4,0.4-3.6,0.4c-1.3,0-2.5-0.1-3.7-0.4
		s-2.3-0.7-3.2-1.3c-0.9-0.6-1.7-1.4-2.3-2.3c-0.6-1-0.9-2.2-1-3.6h5.7C173.5,24.8,173.6,25.3,173.9,25.8z"/>
	<path fill="#010101" stroke="#231F20" stroke-miterlimit="10" d="M190.6,6.1V1.2h6v4.9H190.6z M196.6,9.5v21.7h-6V9.5H196.6z"/>
	<path fill="#010101" stroke="#231F20" stroke-miterlimit="10" d="M200.1,16.2c0.1-1.4,0.4-2.6,1.1-3.5c0.6-0.9,1.4-1.7,2.4-2.2
		c1-0.6,2-1,3.2-1.2c1.2-0.2,2.4-0.4,3.6-0.4c1.1,0,2.2,0.1,3.3,0.2c1.1,0.2,2.1,0.5,3.1,0.9c0.9,0.4,1.7,1.1,2.3,1.9
		c0.6,0.8,0.9,1.9,0.9,3.2v11.3c0,1,0.1,1.9,0.2,2.8c0.1,0.9,0.3,1.6,0.6,2h-6c-0.1-0.3-0.2-0.7-0.3-1c-0.1-0.4-0.1-0.7-0.1-1.1
		c-1,1-2.1,1.7-3.4,2.1s-2.6,0.6-3.9,0.6c-1,0-2-0.1-2.9-0.4c-0.9-0.3-1.7-0.6-2.4-1.2c-0.7-0.5-1.2-1.2-1.6-2
		c-0.4-0.8-0.6-1.8-0.6-2.9c0-1.2,0.2-2.2,0.7-3c0.4-0.8,1-1.4,1.7-1.9c0.7-0.5,1.5-0.8,2.4-1.1c0.9-0.2,1.8-0.4,2.7-0.6
		c0.9-0.1,1.8-0.3,2.6-0.3s1.6-0.2,2.3-0.4c0.7-0.2,1.2-0.4,1.6-0.7c0.4-0.3,0.6-0.8,0.5-1.4c0-0.6-0.1-1.2-0.3-1.5
		c-0.2-0.4-0.5-0.7-0.8-0.9c-0.4-0.2-0.8-0.3-1.2-0.4c-0.5-0.1-1-0.1-1.5-0.1c-1.2,0-2.1,0.3-2.8,0.8c-0.7,0.5-1.1,1.3-1.2,2.5
		H200.1z M213.9,20.6c-0.3,0.2-0.6,0.4-0.9,0.5s-0.8,0.2-1.2,0.3c-0.4,0.1-0.9,0.2-1.4,0.2c-0.5,0.1-1,0.1-1.4,0.2
		c-0.4,0.1-0.9,0.2-1.3,0.3s-0.8,0.3-1.1,0.6c-0.3,0.2-0.6,0.5-0.8,0.9c-0.2,0.4-0.3,0.8-0.3,1.4c0,0.5,0.1,1,0.3,1.3
		c0.2,0.4,0.5,0.7,0.8,0.9c0.3,0.2,0.7,0.4,1.2,0.4c0.4,0.1,0.9,0.1,1.4,0.1c1.2,0,2.1-0.2,2.7-0.6c0.6-0.4,1.1-0.9,1.4-1.4
		c0.3-0.5,0.5-1.1,0.6-1.7c0.1-0.6,0.1-1,0.1-1.3V20.6z"/>
	<path fill="#010101" stroke="#231F20" stroke-miterlimit="10" d="M14.7,51.6c1.4,0,2.7,0.1,3.9,0.4s2.2,0.7,3,1.2
		c0.8,0.6,1.5,1.3,2,2.3c0.5,1,0.7,2.1,0.7,3.5c0,1.5-0.3,2.8-1,3.8c-0.7,1-1.7,1.8-3,2.5c1.8,0.5,3.2,1.5,4.1,2.8
		c0.9,1.3,1.4,2.9,1.4,4.8c0,1.5-0.3,2.8-0.9,3.9c-0.6,1.1-1.4,2-2.4,2.7c-1,0.7-2.1,1.2-3.4,1.6c-1.3,0.3-2.6,0.5-3.9,0.5H0.6v-30
		H14.7z M13.9,63.8c1.2,0,2.1-0.3,2.9-0.8c0.8-0.6,1.1-1.5,1.1-2.7c0-0.7-0.1-1.3-0.4-1.7c-0.3-0.4-0.6-0.8-1-1s-0.9-0.4-1.4-0.5
		s-1.1-0.1-1.7-0.1H7.2v7H13.9z M14.3,76.5c0.6,0,1.3-0.1,1.8-0.2c0.6-0.1,1.1-0.3,1.6-0.6c0.4-0.3,0.8-0.7,1.1-1.2
		c0.3-0.5,0.4-1.1,0.4-1.9c0-1.5-0.4-2.6-1.3-3.3c-0.9-0.7-2-1-3.4-1H7.2v8.2H14.3z"/>
	<path fill="#010101" stroke="#231F20" stroke-miterlimit="10" d="M43.3,81.6v-3h-0.1c-0.8,1.3-1.7,2.2-2.9,2.7
		c-1.2,0.6-2.4,0.8-3.7,0.8c-1.6,0-2.9-0.2-3.9-0.6c-1-0.4-1.8-1-2.4-1.8c-0.6-0.8-1-1.7-1.2-2.8c-0.2-1.1-0.4-2.3-0.4-3.7V59.9h6
		v12.3c0,1.8,0.3,3.1,0.8,4c0.6,0.9,1.6,1.3,3,1.3c1.6,0,2.8-0.5,3.5-1.4c0.7-1,1.1-2.6,1.1-4.8V59.9h6v21.7H43.3z"/>
	<path fill="#010101" stroke="#231F20" stroke-miterlimit="10" d="M57.6,76.2c0.3,0.5,0.6,0.8,1,1.1s0.9,0.5,1.4,0.7
		s1.1,0.2,1.7,0.2c0.4,0,0.9,0,1.3-0.1s0.9-0.3,1.3-0.5c0.4-0.2,0.7-0.5,0.9-0.8c0.3-0.3,0.4-0.8,0.4-1.3c0-0.9-0.6-1.6-1.8-2
		c-1.2-0.4-2.8-0.9-5-1.3c-0.9-0.2-1.7-0.4-2.5-0.7c-0.8-0.3-1.6-0.6-2.2-1c-0.6-0.4-1.2-1-1.6-1.6C52.2,68,52,67.2,52,66.3
		c0-1.4,0.3-2.5,0.8-3.4c0.5-0.9,1.3-1.6,2.2-2.1c0.9-0.5,1.9-0.9,3-1.1s2.3-0.3,3.4-0.3s2.3,0.1,3.4,0.3s2.1,0.6,3,1.1
		c0.9,0.5,1.6,1.2,2.2,2.1s0.9,2,1,3.3h-5.7c-0.1-1.1-0.5-1.9-1.3-2.3c-0.8-0.4-1.7-0.6-2.8-0.6c-0.3,0-0.7,0-1.1,0.1
		c-0.4,0-0.8,0.1-1.1,0.3c-0.3,0.1-0.6,0.3-0.8,0.6c-0.2,0.3-0.3,0.6-0.3,1.1c0,0.5,0.2,1,0.6,1.3c0.4,0.3,0.9,0.6,1.5,0.8
		s1.4,0.4,2.2,0.6s1.6,0.4,2.5,0.5c0.9,0.2,1.7,0.4,2.5,0.7c0.8,0.3,1.6,0.7,2.2,1.1c0.6,0.5,1.2,1,1.6,1.7c0.4,0.7,0.6,1.5,0.6,2.5
		c0,1.4-0.3,2.6-0.9,3.6c-0.6,1-1.3,1.7-2.2,2.3c-0.9,0.6-2,1-3.2,1.2c-1.2,0.2-2.4,0.4-3.6,0.4c-1.3,0-2.5-0.1-3.7-0.4
		s-2.3-0.7-3.2-1.3c-0.9-0.6-1.7-1.4-2.3-2.3c-0.6-1-0.9-2.2-1-3.6h5.7C57.2,75.2,57.3,75.7,57.6,76.2z"/>
	<path fill="#010101" stroke="#231F20" stroke-miterlimit="10" d="M74.3,56.5v-4.9h6v4.9H74.3z M80.3,59.9v21.7h-6V59.9H80.3z"/>
	<path fill="#010101" stroke="#231F20" stroke-miterlimit="10" d="M89.7,59.9v3h0.1c0.8-1.3,1.7-2.2,2.9-2.8
		c1.2-0.6,2.4-0.9,3.7-0.9c1.6,0,2.9,0.2,3.9,0.7c1,0.4,1.8,1,2.4,1.8c0.6,0.8,1,1.7,1.2,2.8c0.2,1.1,0.4,2.3,0.4,3.7v13.4h-6V69.3
		c0-1.8-0.3-3.1-0.8-4C97,64.4,96,64,94.6,64c-1.6,0-2.8,0.5-3.5,1.4c-0.7,1-1.1,2.6-1.1,4.8v11.4h-6V59.9H89.7z"/>
	<path fill="#010101" stroke="#231F20" stroke-miterlimit="10" d="M114.3,76.4c0.9,0.9,2.2,1.3,3.9,1.3c1.2,0,2.2-0.3,3.1-0.9
		c0.9-0.6,1.4-1.2,1.6-1.9h5.2c-0.8,2.6-2.1,4.5-3.9,5.6c-1.7,1.1-3.8,1.7-6.3,1.7c-1.7,0-3.2-0.3-4.6-0.8s-2.5-1.3-3.5-2.3
		c-1-1-1.7-2.2-2.2-3.6c-0.5-1.4-0.8-2.9-0.8-4.6c0-1.6,0.3-3.1,0.8-4.5c0.5-1.4,1.3-2.6,2.3-3.6c1-1,2.1-1.8,3.5-2.4
		c1.4-0.6,2.9-0.9,4.5-0.9c1.8,0,3.5,0.4,4.8,1.1s2.5,1.7,3.4,2.9c0.9,1.2,1.5,2.6,1.9,4.1c0.4,1.5,0.5,3.1,0.4,4.8h-15.7
		C112.9,74.1,113.4,75.5,114.3,76.4z M121.1,65c-0.7-0.8-1.8-1.2-3.3-1.2c-1,0-1.7,0.2-2.4,0.5c-0.6,0.3-1.1,0.7-1.5,1.2
		c-0.4,0.5-0.6,1-0.8,1.5c-0.2,0.5-0.2,1-0.3,1.4h9.7C122.3,66.9,121.8,65.8,121.1,65z"/>
	<path fill="#010101" stroke="#231F20" stroke-miterlimit="10" d="M136.1,76.2c0.3,0.5,0.6,0.8,1,1.1s0.9,0.5,1.4,0.7
		s1.1,0.2,1.7,0.2c0.4,0,0.9,0,1.3-0.1s0.9-0.3,1.3-0.5c0.4-0.2,0.7-0.5,0.9-0.8c0.3-0.3,0.4-0.8,0.4-1.3c0-0.9-0.6-1.6-1.8-2
		c-1.2-0.4-2.8-0.9-5-1.3c-0.9-0.2-1.7-0.4-2.5-0.7c-0.8-0.3-1.6-0.6-2.2-1c-0.6-0.4-1.2-1-1.6-1.6c-0.4-0.7-0.6-1.5-0.6-2.4
		c0-1.4,0.3-2.5,0.8-3.4c0.5-0.9,1.3-1.6,2.2-2.1c0.9-0.5,1.9-0.9,3-1.1s2.3-0.3,3.4-0.3s2.3,0.1,3.4,0.3s2.1,0.6,3,1.1
		c0.9,0.5,1.6,1.2,2.2,2.1s0.9,2,1,3.3h-5.7c-0.1-1.1-0.5-1.9-1.3-2.3c-0.8-0.4-1.7-0.6-2.8-0.6c-0.3,0-0.7,0-1.1,0.1
		c-0.4,0-0.8,0.1-1.1,0.3c-0.3,0.1-0.6,0.3-0.8,0.6c-0.2,0.3-0.3,0.6-0.3,1.1c0,0.5,0.2,1,0.6,1.3c0.4,0.3,0.9,0.6,1.5,0.8
		s1.4,0.4,2.2,0.6s1.6,0.4,2.5,0.5c0.9,0.2,1.7,0.4,2.5,0.7c0.8,0.3,1.6,0.7,2.2,1.1c0.6,0.5,1.2,1,1.6,1.7c0.4,0.7,0.6,1.5,0.6,2.5
		c0,1.4-0.3,2.6-0.9,3.6c-0.6,1-1.3,1.7-2.2,2.3c-0.9,0.6-2,1-3.2,1.2c-1.2,0.2-2.4,0.4-3.6,0.4c-1.3,0-2.5-0.1-3.7-0.4
		s-2.3-0.7-3.2-1.3c-0.9-0.6-1.7-1.4-2.3-2.3c-0.6-1-0.9-2.2-1-3.6h5.7C135.7,75.2,135.8,75.7,136.1,76.2z"/>
	<path fill="#010101" stroke="#231F20" stroke-miterlimit="10" d="M157.7,76.2c0.3,0.5,0.6,0.8,1,1.1s0.9,0.5,1.4,0.7
		s1.1,0.2,1.7,0.2c0.4,0,0.9,0,1.3-0.1s0.9-0.3,1.3-0.5c0.4-0.2,0.7-0.5,0.9-0.8c0.3-0.3,0.4-0.8,0.4-1.3c0-0.9-0.6-1.6-1.8-2
		c-1.2-0.4-2.8-0.9-5-1.3c-0.9-0.2-1.7-0.4-2.5-0.7c-0.8-0.3-1.6-0.6-2.2-1c-0.6-0.4-1.2-1-1.6-1.6c-0.4-0.7-0.6-1.5-0.6-2.4
		c0-1.4,0.3-2.5,0.8-3.4c0.5-0.9,1.3-1.6,2.2-2.1c0.9-0.5,1.9-0.9,3-1.1s2.3-0.3,3.4-0.3s2.3,0.1,3.4,0.3s2.1,0.6,3,1.1
		c0.9,0.5,1.6,1.2,2.2,2.1s0.9,2,1,3.3h-5.7c-0.1-1.1-0.5-1.9-1.3-2.3c-0.8-0.4-1.7-0.6-2.8-0.6c-0.3,0-0.7,0-1.1,0.1
		c-0.4,0-0.8,0.1-1.1,0.3c-0.3,0.1-0.6,0.3-0.8,0.6c-0.2,0.3-0.3,0.6-0.3,1.1c0,0.5,0.2,1,0.6,1.3c0.4,0.3,0.9,0.6,1.5,0.8
		s1.4,0.4,2.2,0.6s1.6,0.4,2.5,0.5c0.9,0.2,1.7,0.4,2.5,0.7c0.8,0.3,1.6,0.7,2.2,1.1c0.6,0.5,1.2,1,1.6,1.7c0.4,0.7,0.6,1.5,0.6,2.5
		c0,1.4-0.3,2.6-0.9,3.6c-0.6,1-1.3,1.7-2.2,2.3c-0.9,0.6-2,1-3.2,1.2c-1.2,0.2-2.4,0.4-3.6,0.4c-1.3,0-2.5-0.1-3.7-0.4
		s-2.3-0.7-3.2-1.3c-0.9-0.6-1.7-1.4-2.3-2.3c-0.6-1-0.9-2.2-1-3.6h5.7C157.3,75.2,157.4,75.7,157.7,76.2z"/>
	<path fill="#010101" stroke="#231F20" stroke-miterlimit="10" d="M204.8,59.6c-0.4-0.6-0.9-1.2-1.5-1.7c-0.6-0.5-1.3-0.8-2-1.1
		c-0.7-0.3-1.5-0.4-2.3-0.4c-1.5,0-2.7,0.3-3.8,0.9c-1,0.6-1.9,1.3-2.5,2.3c-0.6,1-1.1,2.1-1.4,3.3c-0.3,1.2-0.4,2.5-0.4,3.8
		c0,1.3,0.1,2.5,0.4,3.7c0.3,1.2,0.8,2.3,1.4,3.2c0.6,1,1.5,1.7,2.5,2.3c1,0.6,2.3,0.9,3.8,0.9c2,0,3.6-0.6,4.7-1.8
		c1.1-1.2,1.8-2.9,2.1-4.9h6.4c-0.2,1.9-0.6,3.6-1.3,5.1c-0.7,1.5-1.6,2.8-2.8,3.9c-1.1,1.1-2.5,1.9-4,2.4s-3.2,0.8-5.1,0.8
		c-2.3,0-4.4-0.4-6.2-1.2c-1.8-0.8-3.4-1.9-4.6-3.3c-1.3-1.4-2.2-3-2.9-4.9c-0.7-1.9-1-3.9-1-6.1c0-2.2,0.3-4.3,1-6.2
		c0.7-1.9,1.6-3.6,2.9-5c1.3-1.4,2.8-2.5,4.6-3.4c1.8-0.8,3.9-1.2,6.2-1.2c1.7,0,3.2,0.2,4.7,0.7c1.5,0.5,2.8,1.2,3.9,2.1
		c1.2,0.9,2.1,2,2.9,3.4c0.8,1.3,1.2,2.9,1.4,4.6h-6.4C205.5,60.9,205.2,60.2,204.8,59.6z"/>
	<path fill="#010101" stroke="#231F20" stroke-miterlimit="10" d="M215.2,66c0.5-1.4,1.3-2.6,2.3-3.6c1-1,2.2-1.8,3.5-2.3
		c1.4-0.5,2.9-0.8,4.6-0.8s3.3,0.3,4.6,0.8s2.6,1.3,3.5,2.3c1,1,1.7,2.2,2.3,3.6c0.5,1.4,0.8,3,0.8,4.7c0,1.7-0.3,3.3-0.8,4.7
		c-0.5,1.4-1.3,2.6-2.3,3.6c-1,1-2.2,1.8-3.5,2.3s-2.9,0.8-4.6,0.8s-3.2-0.3-4.6-0.8c-1.4-0.5-2.5-1.3-3.5-2.3c-1-1-1.7-2.2-2.3-3.6
		c-0.5-1.4-0.8-3-0.8-4.7C214.4,69,214.7,67.5,215.2,66z M220.7,73.3c0.2,0.8,0.5,1.6,0.9,2.2c0.4,0.7,0.9,1.2,1.6,1.6
		c0.7,0.4,1.5,0.6,2.5,0.6c1,0,1.9-0.2,2.5-0.6c0.7-0.4,1.2-0.9,1.6-1.6c0.4-0.7,0.7-1.4,0.9-2.2c0.2-0.8,0.3-1.7,0.3-2.5
		c0-0.9-0.1-1.7-0.3-2.6s-0.5-1.6-0.9-2.2c-0.4-0.6-1-1.2-1.6-1.6c-0.7-0.4-1.5-0.6-2.5-0.6c-1,0-1.8,0.2-2.5,0.6
		c-0.7,0.4-1.2,0.9-1.6,1.6c-0.4,0.6-0.7,1.4-0.9,2.2c-0.2,0.8-0.3,1.7-0.3,2.6C220.4,71.6,220.5,72.5,220.7,73.3z"/>
	<path fill="#010101" stroke="#231F20" stroke-miterlimit="10" d="M254.5,81.6v-3h-0.1c-0.8,1.3-1.7,2.2-2.9,2.7
		c-1.2,0.6-2.4,0.8-3.7,0.8c-1.6,0-2.9-0.2-3.9-0.6c-1-0.4-1.8-1-2.4-1.8c-0.6-0.8-1-1.7-1.2-2.8c-0.2-1.1-0.4-2.3-0.4-3.7V59.9h6
		v12.3c0,1.8,0.3,3.1,0.8,4c0.6,0.9,1.6,1.3,3,1.3c1.6,0,2.8-0.5,3.5-1.4c0.7-1,1.1-2.6,1.1-4.8V59.9h6v21.7H254.5z"/>
	<path fill="#010101" stroke="#231F20" stroke-miterlimit="10" d="M269.4,59.9v3h0.1c0.8-1.3,1.7-2.2,2.9-2.8
		c1.2-0.6,2.4-0.9,3.7-0.9c1.6,0,2.9,0.2,3.9,0.7c1,0.4,1.8,1,2.4,1.8c0.6,0.8,1,1.7,1.2,2.8c0.2,1.1,0.4,2.3,0.4,3.7v13.4h-6V69.3
		c0-1.8-0.3-3.1-0.8-4c-0.6-0.9-1.6-1.3-3-1.3c-1.6,0-2.8,0.5-3.5,1.4c-0.7,1-1.1,2.6-1.1,4.8v11.4h-6V59.9H269.4z"/>
	<path fill="#010101" stroke="#231F20" stroke-miterlimit="10" d="M298.1,63.8c-1,0-1.8,0.2-2.4,0.7c-0.6,0.4-1.2,1-1.6,1.7
		c-0.4,0.7-0.7,1.4-0.9,2.3c-0.2,0.8-0.3,1.6-0.3,2.5c0,0.8,0.1,1.6,0.3,2.4c0.2,0.8,0.4,1.5,0.8,2.2c0.4,0.7,0.9,1.2,1.5,1.6
		c0.6,0.4,1.4,0.6,2.4,0.6c1.4,0,2.5-0.4,3.3-1.2c0.8-0.8,1.3-1.9,1.4-3.2h5.8c-0.4,2.9-1.5,5.1-3.4,6.6c-1.8,1.5-4.2,2.3-7.1,2.3
		c-1.6,0-3.1-0.3-4.5-0.8c-1.4-0.5-2.5-1.3-3.5-2.3c-1-1-1.7-2.1-2.2-3.5c-0.5-1.4-0.8-2.8-0.8-4.5c0-1.7,0.2-3.2,0.7-4.7
		c0.5-1.4,1.2-2.7,2.2-3.7c1-1.1,2.1-1.9,3.5-2.5c1.4-0.6,2.9-0.9,4.7-0.9c1.3,0,2.5,0.2,3.7,0.5c1.2,0.3,2.3,0.8,3.2,1.5
		c0.9,0.7,1.7,1.5,2.3,2.6c0.6,1,0.9,2.2,1,3.6h-5.8C302.1,65,300.6,63.8,298.1,63.8z"/>
	<path fill="#010101" stroke="#231F20" stroke-miterlimit="10" d="M311,56.5v-4.9h6v4.9H311z M317,59.9v21.7h-6V59.9H317z"/>
	<path fill="#010101" stroke="#231F20" stroke-miterlimit="10" d="M326.8,51.6v30h-6v-30H326.8z"/>
</g>
</svg>
