<?xml version="1.0" encoding="utf-8"?>
<!-- Generator: Adobe Illustrator 18.1.1, SVG Export Plug-In . SVG Version: 6.00 Build 0)  -->
<svg version="1.1" id="Layer_1" xmlns="http://www.w3.org/2000/svg" xmlns:xlink="http://www.w3.org/1999/xlink" x="0px" y="0px"
	 viewBox="0 0 345.2 80.3" enable-background="new 0 0 345.2 80.3" xml:space="preserve">
<g>
	<path d="M26.1,18.2c0,8.7-4,13-13.1,13C4,31.3,0,26.9,0,18.2V0.6h7.8v18.1c0,3.9,1.4,5.8,5.3,5.8c3.8,0,5.3-2,5.3-5.8V0.6h7.8V18.2
		z"/>
	<path d="M30.4,22.8h7.8v7.8h-7.8V22.8z"/>
	<path d="M48.8,20.5c0.2,3.5,2.4,4.7,5.7,4.7c2.4,0,4.8-0.8,4.8-3.1c0-2.6-4.3-3.2-8.6-4.4c-4.3-1.2-8.8-3.2-8.8-8.7
		c0-6.6,6.6-9.1,12.2-9.1c6,0,12,2.9,12,9.7h-7.8C58.4,6.9,55.8,6,53.4,6c-1.7,0-3.8,0.6-3.8,2.6c0,2.3,4.3,2.7,8.7,3.9
		c4.3,1.2,8.7,3.2,8.7,8.7c0,7.6-6.5,10-13.1,10c-6.9,0-13-3-13-10.7H48.8z"/>
	<path d="M69.8,22.8h7.8v7.8h-7.8V22.8z"/>
	<path d="M81.4,22.2v-6h13.1v6H81.4z"/>
	<path d="M98.2,0.6h15.3c5.3,0,10.5,2.4,10.5,8.4c0,3.2-1.6,6.3-4.7,7.5v0.1c3.2,0.8,4.1,4.3,4.4,7.2c0.1,1.3,0.2,5.7,1.3,6.8h-7.7
		c-0.7-1-0.8-3.9-0.9-4.8c-0.2-3-0.7-6.1-4.4-6.1H106v10.9h-7.8V0.6z M106,13.7h6.6c2.4,0,3.6-1.3,3.6-3.5c0-2.2-1.8-3.2-3.9-3.2
		H106V13.7z"/>
	<path d="M148.9,30.6H142v-3h-0.1c-1.3,2.2-4.1,3.6-6.6,3.6c-6.3,0-8.1-3.6-8.1-9.3V8.8h7.1v12.6c0,2.9,1.3,3.9,3.5,3.9
		c1.6,0,3.9-1,3.9-4.9V8.8h7.1V30.6z"/>
	<path d="M158.3,23.4c0,1.1,0.5,1.9,1.2,2.4c0.7,0.5,1.6,0.8,2.6,0.8c1.4,0,3.4-0.6,3.4-2.3c0-1.7-2.2-2-3.5-2.3
		c-4.5-1.1-10.1-1.3-10.1-7.1c0-5.3,5.7-6.7,10-6.7c4.8,0,9.8,1.4,10,7.1h-6.6c0-0.9-0.3-1.5-0.9-1.9s-1.4-0.5-2.3-0.5
		c-1.2,0-3.1,0.1-3.1,1.6c0,2.1,4.8,2.4,8.1,3.2c4.4,0.9,5.5,4.1,5.5,5.9c0,5.8-5.5,7.8-10.5,7.8c-5.2,0-10.5-1.7-10.7-7.8H158.3z"
		/>
	<path d="M180.6,23.4c0,1.1,0.5,1.9,1.2,2.4c0.7,0.5,1.6,0.8,2.6,0.8c1.4,0,3.4-0.6,3.4-2.3c0-1.7-2.2-2-3.5-2.3
		c-4.5-1.1-10.1-1.3-10.1-7.1c0-5.3,5.7-6.7,10-6.7c4.8,0,9.8,1.4,10,7.1h-6.6c0-0.9-0.3-1.5-0.9-1.9s-1.4-0.5-2.3-0.5
		c-1.2,0-3.1,0.1-3.1,1.6c0,2.1,4.8,2.4,8.1,3.2c4.4,0.9,5.5,4.1,5.5,5.9c0,5.8-5.5,7.8-10.5,7.8c-5.2,0-10.5-1.7-10.7-7.8H180.6z"
		/>
	<path d="M204.9,6.1h-7.1V0.6h7.1V6.1z M197.7,8.8h7.1v21.8h-7.1V8.8z"/>
	<path d="M208.7,15.5c0.1-2.9,1.5-4.7,3.4-5.8c1.9-1.1,4.5-1.5,6.9-1.5c5.2,0,10.2,1.1,10.2,7.3V25c0,1.8,0,3.9,0.8,5.6h-7.2
		c-0.3-0.7-0.3-1.3-0.4-2.1c-1.8,1.9-4.6,2.7-7.2,2.7c-4.2,0-7.4-2.1-7.4-6.6c0-7.1,7.7-6.6,12.7-7.6c1.2-0.3,1.9-0.7,1.9-2
		c0-1.6-2-2.3-3.4-2.3c-2,0-3.2,0.9-3.6,2.7H208.7z M217.9,26.8c3.4,0,4.5-1.9,4.4-6.4c-1,0.6-2.9,0.8-4.4,1.2
		c-1.6,0.4-2.9,1.1-2.9,2.8C214.9,26.1,216.3,26.8,217.9,26.8z"/>
	<path d="M0.2,49.6h14c5.2-0.1,10.8,1.3,10.8,7.5c0,2.7-1.6,4.9-3.9,6c3.2,0.9,5.2,3.7,5.2,7.1c0,7.1-5.3,9.3-11.7,9.3H0.2V49.6z
		 M8,61.4h6c1.3,0,3.2-0.7,3.2-2.9c0-2.2-1.6-2.9-3.2-2.9H8V61.4z M8,73.4h6.3c2.5,0,4.2-0.9,4.2-3.4c0-2.6-1.8-3.5-4.2-3.5H8V73.4z
		"/>
	<path d="M50.9,79.6H44v-3h-0.1c-1.3,2.2-4.1,3.6-6.6,3.6c-6.3,0-8.1-3.6-8.1-9.3V57.8h7.1v12.6c0,2.9,1.3,3.9,3.5,3.9
		c1.6,0,3.9-1,3.9-4.9V57.8h7.1V79.6z"/>
	<path d="M60.3,72.4c0,1.1,0.5,1.9,1.2,2.4c0.7,0.5,1.6,0.8,2.6,0.8c1.4,0,3.4-0.6,3.4-2.3c0-1.7-2.2-2-3.5-2.3
		c-4.5-1.1-10.1-1.3-10.1-7.1c0-5.3,5.7-6.7,10-6.7c4.8,0,9.8,1.4,10,7.1h-6.6c0-0.9-0.3-1.5-0.9-1.9s-1.4-0.5-2.3-0.5
		c-1.2,0-3.1,0.1-3.1,1.6c0,2.1,4.8,2.4,8.1,3.2c4.4,0.9,5.5,4.1,5.5,5.9c0,5.8-5.5,7.8-10.5,7.8c-5.2,0-10.5-1.7-10.7-7.8H60.3z"/>
	<path d="M84.5,55.1h-7.1v-5.5h7.1V55.1z M77.4,57.8h7.1v21.8h-7.1V57.8z"/>
	<path d="M88.6,57.8h6.9v3h0.1c1.3-2.2,4.2-3.6,6.8-3.6c7.3,0,7.9,5.3,7.9,8.4v14h-7.1V69.1c0-3,0.3-6-3.6-6c-2.7,0-3.9,2.3-3.9,4.7
		v11.9h-7.1V57.8z"/>
	<path d="M120.2,70.5c0.1,3,1.8,5,4.9,5c1.7,0,3.4-0.8,4.1-2.4h6.7c-1.3,5-6,7.2-10.8,7.2c-7.1,0-11.9-4.3-11.9-11.6
		c0-6.7,5.3-11.5,11.8-11.5c7.8,0,11.7,5.9,11.4,13.3H120.2z M129.1,66.5c-0.1-2.4-1.8-4.5-4.2-4.5c-2.5,0-4.2,1.8-4.6,4.5H129.1z"
		/>
	<path d="M144.4,72.4c0,1.1,0.5,1.9,1.2,2.4c0.7,0.5,1.6,0.8,2.6,0.8c1.4,0,3.4-0.6,3.4-2.3c0-1.7-2.2-2-3.5-2.3
		c-4.5-1.1-10.1-1.3-10.1-7.1c0-5.3,5.7-6.7,10-6.7c4.8,0,9.8,1.4,10,7.1h-6.6c0-0.9-0.3-1.5-0.9-1.9s-1.4-0.5-2.3-0.5
		c-1.2,0-3.1,0.1-3.1,1.6c0,2.1,4.8,2.4,8.1,3.2c4.4,0.9,5.5,4.1,5.5,5.9c0,5.8-5.5,7.8-10.5,7.8c-5.2,0-10.5-1.7-10.7-7.8H144.4z"
		/>
	<path d="M166.7,72.4c0,1.1,0.5,1.9,1.2,2.4c0.7,0.5,1.6,0.8,2.6,0.8c1.4,0,3.4-0.6,3.4-2.3c0-1.7-2.2-2-3.5-2.3
		c-4.5-1.1-10.1-1.3-10.1-7.1c0-5.3,5.7-6.7,10-6.7c4.8,0,9.8,1.4,10,7.1h-6.6c0-0.9-0.3-1.5-0.9-1.9s-1.4-0.5-2.3-0.5
		c-1.2,0-3.1,0.1-3.1,1.6c0,2.1,4.8,2.4,8.1,3.2c4.4,0.9,5.5,4.1,5.5,5.9c0,5.8-5.5,7.8-10.5,7.8c-5.2,0-10.5-1.7-10.7-7.8H166.7z"
		/>
	<path d="M216,60.3c-0.4-3-2.8-4.6-6-4.6c-5,0-7,4.5-7,8.9s1.9,8.9,7,8.9c3.7,0,5.8-2.1,6-5.5h7.8c-0.4,7.7-6.1,12.3-13.7,12.3
		c-9.1,0-15-6.9-15-15.6c0-8.7,5.9-15.6,15-15.6c6.5,0,13.5,4.1,13.7,11.3H216z"/>
	<path d="M237.2,57.2c6.8,0,11.5,5,11.5,11.6s-4.7,11.5-11.5,11.5c-6.8,0-11.5-5-11.5-11.5S230.4,57.2,237.2,57.2z M237.2,74.8
		c3.3,0,4.4-3.3,4.4-6s-1-6.1-4.4-6.1s-4.3,3.3-4.3,6.1S233.9,74.8,237.2,74.8z"/>
	<path d="M273.1,79.6h-6.9v-3h-0.1c-1.3,2.2-4.1,3.6-6.6,3.6c-6.3,0-8.1-3.6-8.1-9.3V57.8h7.1v12.6c0,2.9,1.3,3.9,3.5,3.9
		c1.6,0,3.9-1,3.9-4.9V57.8h7.1V79.6z"/>
	<path d="M276.9,57.8h6.9v3h0.1c1.3-2.2,4.2-3.6,6.8-3.6c7.3,0,7.9,5.3,7.9,8.4v14h-7.1V69.1c0-3,0.3-6-3.6-6
		c-2.7,0-3.9,2.3-3.9,4.7v11.9h-7.1V57.8z"/>
	<path d="M316.6,65.8c0-1.8-1.7-3.2-3.5-3.2c-4,0-4.6,3.4-4.6,6.4c0,2.8,1.2,5.7,4.2,5.7c2.5,0,3.7-1.4,4.1-3.7h6.9
		c-0.6,5.8-5.2,9.2-11,9.2c-6.6,0-11.4-4.5-11.4-11.2c0-6.9,4.4-11.9,11.4-11.9c5.4,0,10.2,2.9,10.8,8.6H316.6z"/>
	<path d="M333.8,55.1h-7.1v-5.5h7.1V55.1z M326.6,57.8h7.1v21.8h-7.1V57.8z"/>
	<path d="M338.1,49.6h7.1v30h-7.1V49.6z"/>
</g>
</svg>
