<?xml version="1.0" encoding="utf-8"?>
<!-- Generator: Adobe Illustrator 18.1.1, SVG Export Plug-In . SVG Version: 6.00 Build 0)  -->
<svg version="1.1" id="Layer_1" xmlns="http://www.w3.org/2000/svg" xmlns:xlink="http://www.w3.org/1999/xlink" x="0px" y="0px"
	 viewBox="0 0 1241.1 751.5" enable-background="new 0 0 1241.1 751.5" xml:space="preserve">
<g>
	<g id="OFFLINE">
		<g id="Background">
			<polygon points="290.6,327.2 290.8,327.4 290.8,327.2 			"/>
			<polygon points="464.3,327.2 464.4,327.4 464.4,327.2 			"/>
			<polygon points="637.7,327.2 637.8,327.4 637.8,327.2 			"/>
			<polygon points="806.9,327.2 807.1,327.4 807.1,327.2 			"/>
			<polygon points="931.2,158.8 931.6,159.3 932,159.3 			"/>
			<polygon points="1040.9,159.3 1040.9,159.3 1041,159.3 			"/>
			<polygon points="908.4,327.2 908.6,327.4 908.6,327.2 			"/>
			<polygon points="1122.4,327.2 1122.6,327.4 1122.6,327.2 			"/>
			<path d="M197.7,185.6l12.9,9.1c-4-5.5-8.6-10.4-13.7-14.8l-5-3.5C194.2,179.6,196,182.6,197.7,185.6z"/>
			<path d="M113.6,330.2l20.5,14.4c2.8-0.1,5.6-0.3,8.3-0.6l-21-14.5L113.6,330.2z"/>
			<path d="M128.7,328.4l21.2,14.6c2.4-0.4,4.7-0.9,7-1.5L136,326.7L128.7,328.4z"/>
			<path d="M52.4,242.9c0.5,2.6,1,4.9,1.6,7.3L72.2,263c-0.4-2.3-0.7-4.7-0.9-7.1L52.4,242.9z"/>
			<path d="M164.1,314.7l21.2,14.9c1.6-1,3.2-2,4.7-3.1l-21.2-14.9L164.1,314.7z"/>
			<path d="M153.7,320.3l21.4,14.8c1.8-0.8,3.5-1.7,5.2-2.6l-21.2-14.9L153.7,320.3z"/>
			<path d="M53.2,217.9c-0.5,1.8-0.8,3.9-1,5.7l20,14c0.3-1.9,0.8-3.7,1.3-5.6L53.2,217.9z"/>
			<path d="M142.2,324.9l21.3,14.7c2.1-0.7,4.1-1.4,6.1-2.2L148,322.8L142.2,324.9z"/>
			<path d="M89.4,204.9L68,190.3c-1.3,1.3-2.6,2.6-3.4,3.9l21,14.6C86.8,207.5,88.1,206.1,89.4,204.9z"/>
			<path d="M86.8,178.1c-2.1,0.5-3.6,1.6-5.5,2.3l21.2,14.9c1.8-0.9,3.7-1.8,5.6-2.6L86.8,178.1z"/>
			<path d="M194.2,284.8l20.9,14.6c0.9-1.5,1.7-3,2.5-4.5l-20.7-14.5L194.2,284.8z"/>
			<path d="M51.6,229.5c0,2,0,4.6,0.1,6.6l19.3,13.4c0-2.1,0.1-4.1,0.3-6.1L51.6,229.5z"/>
			<path d="M70.9,324.4l6.8,4.7c4.1,2.8,7.9,5.3,11.5,7.4c4,1.7,8.1,3.1,12.3,4.3l-18.3-12.9C78.8,326.9,74.8,325.7,70.9,324.4z"/>
			<path d="M94.6,329.6l19.8,13.9c3.5,0.5,7,0.9,10.7,1.1l-20.6-14.3C101.4,330.2,98,330.1,94.6,329.6z"/>
			<path d="M188.1,293.4l21.2,14.7c1.1-1.4,2.1-2.8,3.1-4.3L191.4,289L188.1,293.4z"/>
			<path d="M181,301.3l21.3,14.6c1.3-1.3,2.5-2.6,3.7-3.9l-21.1-14.7L181,301.3z"/>
			<path d="M56.6,207.5c-0.8,1.8-1.6,3.6-2.1,5.2L75.1,227c0.6-1.8,1.4-3.4,2.1-5.1L56.6,207.5z"/>
			<path d="M173.1,308.4l21.2,14.8c1.4-1.1,2.8-2.3,4.2-3.5l-21.2-14.9C175.9,306,174.4,307.3,173.1,308.4z"/>
			<path d="M208,218.3l18.5,12.9c-0.5-2.6-1.1-5.1-1.8-7.6l-17.8-12.4C207.3,213.2,207.8,216,208,218.3z"/>
			<path d="M203.4,265.8l20.4,14.3c0.6-1.7,1.1-3.5,1.5-5.3L205,260.6C204.5,262.4,203.9,264.2,203.4,265.8z"/>
			<path d="M61.5,198.4c-1,1.3-2.1,2.9-2.9,4.4l21,14.6c0.9-1.5,1.8-2.9,2.8-4.3L61.5,198.4z"/>
			<path d="M206.4,255.1l20.1,14.3c0.4-1.9,0.7-3.9,0.9-5.8l-19.9-13.9C207.3,251.5,206.9,253.6,206.4,255.1z"/>
			<path d="M139.1,189.1l-19.5-13.7c-3.9-0.8-7.3-1.3-10.9-1.3l20.6,14.4c0.5,0,0.9-0.1,1.4-0.1
				C133.5,188.5,136.4,188.7,139.1,189.1z"/>
			<path d="M199.2,275.7l20.7,14.5c0.7-1.6,1.4-3.2,2.1-4.9l-20.5-14.5C200.7,272.6,199.9,274.4,199.2,275.7z"/>
			<path d="M57.1,258.8c2.1,4.4,4.4,8.3,7.6,11.7l12.8,9c-1.4-2.8-2.6-5.8-3.5-8.9L57.1,258.8z"/>
			<path d="M205,203.6l16.9,11.8c-1.3-3.3-2.7-6.5-4.3-9.5L202,195C203,197.6,204.2,200.7,205,203.6z"/>
			<path d="M100.1,174.6c-2.3,0.3-4.7,0.8-7,1.4l21.2,14.7c2.3-0.6,4.6-1.1,7-1.5L100.1,174.6z"/>
			<path d="M208.6,225.2c0.1,2.1,0.3,4.2,0.3,6.5l19.3,13.3c-0.1-2.3-0.3-4.5-0.6-6.7L208.6,225.2z"/>
			<path d="M208.2,243.9l19.8,13.6c0.1-2,0.2-4.1,0.2-6.2l-19.5-13.7L208.2,243.9z"/>
			<path d="M76.4,183.3c-1.6,1.3-3.1,2.1-4.4,3.4l21.2,14.8c1.5-1.2,3-2.3,4.5-3.3L76.4,183.3z"/>
			<polygon points="343.7,262.7 364.1,277 373.1,277 352.6,262.7 			"/>
			<polygon points="325.5,262.7 345.8,277 354.9,277 334.6,262.7 			"/>
			<polygon points="308.9,213 323.2,223.1 328.3,223.1 328.3,220.3 308.9,206.7 			"/>
			<polygon points="368.7,254.9 388.2,268.5 388.2,262 368.7,248.4 			"/>
			<polygon points="368.7,262.7 361.7,262.7 382.2,277 388.2,277 388.2,274.7 368.7,261.1 			"/>
			<polygon points="308.9,276.5 328.3,290.1 328.3,283.6 308.9,270 			"/>
			<polygon points="290.8,327.2 290.8,327.4 311.2,341.6 320.1,341.6 299.7,327.2 			"/>
			<polygon points="308.9,327.2 328.3,340.7 328.3,334.6 308.9,321 			"/>
			<polygon points="308.9,289 328.3,302.8 328.3,296.3 308.9,282.7 			"/>
			<polygon points="308.9,301.7 328.3,315.3 328.3,309.1 308.9,295.5 			"/>
			<polygon points="308.9,262.7 308.9,263.7 328.3,277.3 328.3,277 336.9,277 316.4,262.7 			"/>
			<polygon points="365.9,176.8 386.6,191.1 395.5,191.1 375,176.8 			"/>
			<polygon points="382,174.9 401.4,188.8 401.4,182.3 382,168.7 			"/>
			<polygon points="386.8,159.3 382,155.9 382,159.3 382,162.5 401.4,175.9 401.4,169.6 			"/>
			<polygon points="347.6,176.8 368.4,191.1 377.5,191.1 357,176.8 			"/>
			<polygon points="308.9,187.4 328.3,201.1 328.3,194.8 308.9,181.2 			"/>
			<polygon points="311.7,176.8 332.2,191.1 341.3,191.1 320.6,176.8 			"/>
			<polygon points="308.9,200.2 328.3,213.8 328.3,207.4 308.9,194 			"/>
			<polygon points="329.9,176.8 350.3,191.1 359.5,191.1 338.8,176.8 			"/>
			<polygon points="308.9,314.5 328.3,328.1 328.3,321.9 308.9,308.2 			"/>
			<polygon points="290.8,333.8 281.5,327.2 272.4,327.2 290.8,340.1 292.9,341.6 301.8,341.6 			"/>
			<polygon points="382.5,245.2 368.7,235.6 368.7,242.1 373.3,245.2 388.2,255.5 388.2,249.2 			"/>
			<polygon points="521.3,176.8 542,191.1 551.2,191.1 530.7,176.8 			"/>
			<polygon points="539.5,176.8 560.3,191.1 569.2,191.1 548.6,176.8 			"/>
			<polygon points="556.1,245.2 542.4,235.6 542.4,242.1 546.9,245.2 561.8,255.5 561.8,249.2 			"/>
			<polygon points="485.4,176.8 505.9,191.1 515,191.1 494.2,176.8 			"/>
			<polygon points="503.6,176.8 523.9,191.1 533.2,191.1 512.4,176.8 			"/>
			<polygon points="560.5,159.3 555.7,155.9 555.7,159.3 555.7,162.5 575.1,175.9 575.1,169.6 			"/>
			<polygon points="555.7,174.9 575.1,188.8 575.1,182.3 555.7,168.7 			"/>
			<polygon points="482.5,289 501.9,302.8 501.9,296.3 482.5,282.7 			"/>
			<polygon points="464.4,333.8 455.2,327.2 446.1,327.2 464.4,340.1 466.6,341.6 475.5,341.6 			"/>
			<polygon points="482.5,187.4 501.9,201.1 501.9,194.8 482.5,181.2 			"/>
			<polygon points="482.5,314.5 501.9,328.1 501.9,321.9 482.5,308.2 			"/>
			<polygon points="482.5,327.2 501.9,340.7 501.9,334.6 482.5,321 			"/>
			<polygon points="464.4,327.2 464.4,327.4 484.8,341.6 493.7,341.6 473.4,327.2 			"/>
			<polygon points="482.5,262.7 482.5,263.7 501.9,277.3 501.9,277 510.6,277 490.1,262.7 			"/>
			<polygon points="482.5,301.7 501.9,315.3 501.9,309.1 482.5,295.5 			"/>
			<polygon points="482.5,276.5 501.9,290.1 501.9,283.6 482.5,270 			"/>
			<polygon points="499.2,262.7 519.5,277 528.6,277 508.3,262.7 			"/>
			<polygon points="542.4,254.9 561.8,268.5 561.8,262 542.4,248.4 			"/>
			<polygon points="482.5,200.2 501.9,213.8 501.9,207.4 482.5,194 			"/>
			<polygon points="482.5,213 496.8,223.1 501.9,223.1 501.9,220.3 482.5,206.7 			"/>
			<polygon points="517.4,262.7 537.7,277 546.8,277 526.2,262.7 			"/>
			<polygon points="542.4,262.7 535.4,262.7 555.9,277 561.8,277 561.8,274.7 542.4,261.1 			"/>
			<polygon points="692.1,327.2 712.6,341.6 721.7,341.6 701.2,327.2 			"/>
			<polygon points="673.9,327.2 694.4,341.6 703.3,341.6 683,327.2 			"/>
			<polygon points="655.6,327.2 676.2,341.6 685.3,341.6 664.8,327.2 			"/>
			<polygon points="710.3,327.2 730.6,341.6 739.7,341.6 719.4,327.2 			"/>
			<polygon points="729.1,327.2 728.5,327.2 748.5,341.2 748.5,334.9 729.1,321.3 			"/>
			<polygon points="730.9,309.8 729.1,308.5 729.1,309.8 729.1,314.7 748.5,328.6 748.5,322.1 			"/>
			<polygon points="637.8,327.2 637.8,327.4 658.2,341.6 667.1,341.6 646.5,327.2 			"/>
			<polygon points="655.9,263.7 675.3,277.3 675.3,271.1 655.9,257.5 			"/>
			<polygon points="655.9,251 675.3,264.6 675.3,258.3 655.9,244.7 			"/>
			<polygon points="661.1,159.3 655.9,155.7 655.9,159.3 655.9,162.2 675.3,175.6 675.3,169.3 			"/>
			<polygon points="655.9,238.5 675.3,251.9 675.3,245.6 655.9,232 			"/>
			<polygon points="637.8,333.8 628.6,327.2 619.5,327.2 637.8,340.1 640,341.6 648.9,341.6 			"/>
			<polygon points="655.9,276.5 672,287.7 675.3,287.7 675.3,283.6 655.9,270.2 			"/>
			<polygon points="655.9,187.4 675.3,201.1 675.3,194.8 655.9,181.2 			"/>
			<polygon points="655.9,174.9 675.3,188.4 675.3,182.1 655.9,168.4 			"/>
			<polygon points="655.9,225.7 675.3,239.3 675.3,232.8 655.9,219.2 			"/>
			<polygon points="655.9,200.2 675.3,213.8 675.3,207.4 655.9,194 			"/>
			<polygon points="655.9,213 675.3,226.6 675.3,220.1 655.9,206.7 			"/>
			<polygon points="807.1,333.8 797.8,327.2 788.7,327.2 807.1,340.1 809.2,341.6 818.1,341.6 			"/>
			<polygon points="825.1,174.7 844.5,188.3 844.5,182.1 825.1,168.4 			"/>
			<polygon points="825.1,213 844.5,226.6 844.5,220.1 825.1,206.4 			"/>
			<polygon points="825.1,238.2 844.5,251.8 844.5,245.6 825.1,232 			"/>
			<polygon points="825.1,225.7 844.5,239.1 844.5,232.8 825.1,219.2 			"/>
			<polygon points="825.1,187.4 844.5,201.1 844.5,194.6 825.1,181.2 			"/>
			<polygon points="807.1,327.2 807.1,327.4 827.4,341.6 836.5,341.6 816,327.2 			"/>
			<polygon points="830.3,159.3 825.1,155.7 825.1,159.3 825.1,162.2 844.5,175.6 844.5,169.3 			"/>
			<polygon points="825.1,200.2 844.5,213.8 844.5,207.4 825.1,194 			"/>
			<polygon points="825.1,251 844.5,264.6 844.5,258.3 825.1,244.7 			"/>
			<polygon points="825.1,302 844.5,315.4 844.5,309.1 825.1,295.5 			"/>
			<polygon points="825.1,289.2 844.5,302.6 844.5,296.3 825.1,282.7 			"/>
			<polygon points="825.1,327.2 844.5,340.9 844.5,334.6 825.1,321 			"/>
			<polygon points="825.1,314.5 844.5,328.1 844.5,321.9 825.1,308.2 			"/>
			<polygon points="825.1,276.5 844.5,290.1 844.5,283.6 825.1,270.2 			"/>
			<polygon points="825.1,263.7 844.5,277.3 844.5,270.9 825.1,257.5 			"/>
			<path d="M926.7,225.7v-5.5l8.9,11.5L926.7,225.7z"/>
			<polygon points="926.7,314.7 946.1,328.2 946.1,321.9 926.7,308.2 			"/>
			<polygon points="1040.9,254.6 1060.4,268.4 1060.4,262 1040.9,248.4 			"/>
			<polygon points="1040.9,242.1 1060.4,255.7 1060.4,249.2 1040.9,235.6 			"/>
			<polygon points="1040.9,216.6 1060.4,230.2 1060.4,224 1040.9,210.4 			"/>
			<polygon points="1040.9,229.4 1060.4,243 1060.4,236.7 1040.9,222.8 			"/>
			<polygon points="1040.9,267.4 1060.4,281 1060.4,274.7 1040.9,261.1 			"/>
			<polygon points="1040.9,292.9 1060.4,306.5 1060.4,300.2 1040.9,286.4 			"/>
			<polygon points="1040.9,280.1 1060.4,293.7 1060.4,287.5 1040.9,273.9 			"/>
			<polygon points="1058.9,159.3 1040.9,146.6 1040.9,153.1 1049.9,159.3 1060.4,166.7 1060.4,160.4 			"/>
			<polygon points="1040.9,159.3 1040.9,165.8 1060.4,179.4 1060.4,172.9 1041,159.3 			"/>
			<polygon points="1040.9,203.8 1060.4,217.5 1060.4,211.2 1040.9,197.6 			"/>
			<polygon points="908.6,333.8 899.3,327.2 890.2,327.2 908.6,340.1 910.7,341.6 919.6,341.6 			"/>
			<polygon points="1040.9,305.6 1060.4,319.2 1060.4,312.9 1040.9,299.1 			"/>
			<polygon points="926.7,225.7 935.5,231.7 926.7,220.2 			"/>
			<polygon points="1040.9,191.1 1060.4,204.9 1060.4,198.5 1040.9,184.8 			"/>
			<polygon points="1040.9,178.3 1060.4,192.1 1060.4,185.7 1040.9,172.1 			"/>
			<polygon points="926.7,289.2 946.1,302.9 946.1,296.4 926.7,283 			"/>
			<polygon points="908.6,327.2 908.6,327.4 929,341.6 937.9,341.6 917.5,327.2 			"/>
			<polygon points="1040.9,318.4 1060.4,332 1060.4,325.5 1040.9,311.9 			"/>
			<polygon points="926.7,327.2 946.1,340.7 946.1,334.6 926.7,321 			"/>
			<polygon points="926.7,302 946.1,315.4 946.1,309.1 926.7,295.5 			"/>
			<polygon points="926.7,232 926.7,238.5 946.1,251.9 946.1,245.8 945.7,245.2 			"/>
			<polygon points="1026.4,327.2 1021.9,327.2 1017.3,327.2 1027.2,334.2 1037.8,341.6 1046.9,341.6 			"/>
			<polygon points="1040.9,327.2 1035.2,327.2 1055.7,341.6 1060.4,341.6 1060.4,338.3 1040.9,324.6 			"/>
			<polygon points="926.7,276.5 946.1,290.1 946.1,283.6 926.7,270.2 			"/>
			<polygon points="926.7,251 946.1,264.6 946.1,258.3 926.7,244.7 			"/>
			<polygon points="926.7,263.7 946.1,277.3 946.1,271.1 926.7,257.5 			"/>
			<path d="M1140.7,206.7l16.4,11.2h-9.4l-7-4.9V206.7z"/>
			<polygon points="1158.6,327.2 1179.2,341.6 1188,341.6 1167.5,327.2 			"/>
			<polygon points="1122.6,327.2 1122.6,327.4 1143,341.6 1151.8,341.6 1131.3,327.2 			"/>
			<polygon points="1140.4,327.2 1160.9,341.6 1170,341.6 1149.5,327.2 			"/>
			<polygon points="1218.8,159.3 1215.1,156.7 1215.1,159.3 1215.1,163 1234.5,176.8 1234.5,170.3 			"/>
			<polygon points="1215.1,175.7 1234.5,189.5 1234.5,183 1215.1,169.2 			"/>
			<polygon points="1197.7,176.8 1218.4,191.1 1227.5,191.1 1206.8,176.8 			"/>
			<polygon points="1157.1,217.9 1140.7,206.7 1140.7,213 1147.7,217.9 			"/>
			<polygon points="1217.5,317.4 1236.9,331 1236.9,324.7 1217.5,311.1 			"/>
			<polygon points="1176.8,327.2 1197.4,341.6 1206.3,341.6 1186,327.2 			"/>
			<polygon points="1217.5,327.2 1213.3,327.2 1233.6,341.6 1236.9,341.6 1236.9,337.5 1217.5,323.9 			"/>
			<polygon points="1194.8,327.2 1215.3,341.6 1224.5,341.6 1204.2,327.2 			"/>
			<polygon points="1179.5,176.8 1200.2,191.1 1209.3,191.1 1188.8,176.8 			"/>
			<polygon points="1149.8,257.5 1170.3,271.8 1179.6,271.8 1158.9,257.5 			"/>
			<polygon points="1233.7,309.8 1217.5,298.6 1217.5,304.9 1224.5,309.8 1236.9,318.5 1236.9,312 			"/>
			<polygon points="1167.7,257.5 1188.5,271.8 1197.6,271.8 1177.1,257.5 			"/>
			<polygon points="1161.8,176.8 1182.1,191.1 1191.3,191.1 1170.6,176.8 			"/>
			<polygon points="1140.7,276.5 1156.8,287.7 1160.1,287.7 1160.1,283.6 1140.7,270.2 			"/>
			<polygon points="1122.6,333.8 1113.3,327.2 1104.2,327.2 1122.6,340.1 1124.7,341.6 1133.6,341.6 			"/>
			<polygon points="1215.1,144 1215.1,150.2 1227.9,159.3 1234.5,164 1234.5,159.3 1234.5,157.6 			"/>
			<polygon points="1140.7,263.7 1160.1,277.3 1160.1,271.8 1161.1,271.8 1140.7,257.5 			"/>
			<polygon points="1140.7,200.2 1160.1,213.8 1160.1,207.4 1140.7,194 			"/>
			<polygon points="1140.7,187.4 1160.1,201.1 1160.1,194.8 1140.7,181.2 			"/>
			<polygon points="1186.2,257.5 1206.7,271.8 1215.6,271.8 1195.1,257.5 			"/>
			<polygon points="1143.5,176.8 1164,191.1 1173.1,191.1 1152.4,176.8 			"/>
			<polygon points="1203.1,256.4 1222.6,270 1222.6,263.8 1203.1,250.2 			"/>
			<polygon points="1206.8,240 1203.1,237.4 1203.1,240 1203.1,243.9 1222.6,257.5 1222.6,251.2 			"/>
			<polygon points="382,144 382,149.7 396,159.3 401.4,163.1 401.4,159.3 401.4,157.6 			"/>
			<polygon points="555.7,144 555.7,149.7 569.6,159.3 575.1,163.1 575.1,159.3 575.1,157.6 			"/>
			<polygon points="729.1,295.7 729.1,302.3 739.8,309.8 748.5,315.9 748.5,309.8 748.5,309.4 			"/>
			<polygon points="655.9,144 655.9,149.4 670,159.3 675.3,163 675.3,159.3 675.3,157.6 			"/>
			<polygon points="825.1,144 825.1,149.4 839.5,159.3 844.5,162.8 844.5,159.3 844.5,157.6 			"/>
			<polygon points="1203.1,224.7 1203.1,231.2 1215.8,240 1222.6,244.8 1222.6,240 1222.6,238.3 			"/>
		</g>
		<g id="Foreground">
			<path fill="#EC4047" d="M103.3,131.2c54.7,0,97.6,39.1,97.6,94.2c0,55.2-43,94.2-97.6,94.2S5.7,280.6,5.7,225.4
				C5.7,170.2,48.6,131.2,103.3,131.2z M103.3,287.4c33.1,0,59.6-25.3,59.6-62c0-36.7-26.6-62-59.6-62s-59.6,25.3-59.6,62
				C43.7,262.1,70.3,287.4,103.3,287.4z"/>
			<path fill="#EC4047" d="M263.4,134.3h110.6v31.8h-73.2v54.2h59.9V252h-59.9v64.6h-37.5V134.3z"/>
			<path fill="#EC4047" d="M437.1,134.3h110.6v31.8h-73.2v54.2h59.9V252h-59.9v64.6h-37.5V134.3z"/>
			<path fill="#EC4047" d="M610.5,134.3H648v150.5h73.2v31.8H610.5V134.3z"/>
			<path fill="#EC4047" d="M817.2,134.3v182.2h-37.5V134.3H817.2z"/>
			<path fill="#EC4047" d="M881.2,134.3h27.6l86.7,114.3V134.3h37.5v182.2h-27.6L918.7,202v114.5h-37.5V134.3z"/>
			<path fill="#EC4047" d="M1095.2,134.3h111.9v31.8h-74.5V215h62.5v31.8h-62.5v38h76.8v31.8h-114.3V134.3z"/>
		</g>
	</g>
	<g id="THE">
		<path d="M563.1,16.1h-15.4V6h42.7v10.1H575v47.7h-11.9V16.1z"/>
		<path d="M600.3,6h11.9v25.7h20.6V6h11.9v57.7h-11.9V41.8h-20.6v21.9h-11.9V6z"/>
		<path d="M658.7,6h35.5v10.1h-23.6v15.5h19.8v10.1h-19.8v12h24.3v10.1h-36.2V6z"/>
	</g>
	<g id="Society_1_">
		<path d="M514.4,459.6c-10.1-3-19.9-2.6-29.5,1c-12.3,4.7-21.8,13.5-28.8,26.9c-7.1,13.5-7.7,27.6-1.9,43c4.1,10.7,12.5,24,26,40.8
			c13,16.2,21.3,29,24.7,38.1c6.4,16.7,7.6,33.6,3.7,50.2c-3.9,16.5-11.1,30.4-21.5,41.5c-10.6,11.3-22.5,19.4-36.5,24.7
			c-20.2,7.7-40.8,8-60.8,0.9c-19.7-7-33.4-20.5-40.9-40.3c-7.3-19.2-7.2-38.2,0.4-56.5c7.5-18.8,21-31.7,41.3-39.4
			c9.1-3.5,17.8-5.2,25.8-5.2c18.1,0,32,9.3,38.1,25.5c3.1,8.2,2.6,16.5-1.6,24.6c-2.2,4-1.3,6.6-0.5,7.9c1,1.8,3,2.8,5.2,2.8
			c3,0,5.8-1.8,7.6-4.9c5.7-12,6.4-23.9,2.1-35.3c-8.3-22-26.8-34.5-50.6-34.5c-9.6,0-19.9,2-30.5,6.1c-23.9,9.1-40.5,24.9-49.5,47
			c-9.1,22.4-9.3,44.2-0.7,66.8c8.9,23.3,25,39.6,48,48.5c10.9,4.2,22.1,6.3,33.5,6.3c12.3,0,25.1-2.5,38-7.4
			c34-12.9,58.4-40.6,66.9-76c4.4-19,2.8-38.6-4.6-58.2c-4.3-11.3-13.1-25.1-26.1-41.1c-12.7-15.6-21-28.3-24.6-37.8
			c-4.4-11.6-4-22.5,1.4-32.3c5.4-10.4,12.4-17.2,21.4-20.6c3.6-1.4,7.2-2,10.9-2c10.2,0,19,5.6,22.3,14.3c3.1,8.3,0,20.2-10.3,25
			c-4,1.5-5.3,4.9-4.8,7.6c0.7,4,4.9,6.4,9.6,4.6c9.2-3.9,15.1-9.9,17.8-18.3c3.1-8.6,3.3-16.6,0.6-23.8
			C531.8,469.5,524.6,462.6,514.4,459.6z"/>
		<path d="M583.7,529.7L583.7,529.7c-3.8,0-8,0.8-12.3,2.5c-15.2,5.8-23.3,20.5-24.9,45l-4.1,54.4c-0.6,6.3,0,12.2,2,17.4
			c3.4,9.1,10.5,14,19.8,14c3.8,0,8-0.8,12.3-2.5c15.2-5.8,23.3-20.5,24.9-45l4.1-54.4c0.6-6.3,0-12.2-2-17.4
			C600.1,534.7,593.1,529.7,583.7,529.7z M591.7,560.3l-4,53.1c-1.2,19.5-6.5,31.2-15.8,34.8c-2.7,1-5.1,1.5-7.1,1.5
			c-3.7,0-6.1-1.8-7.6-5.7c-0.9-2.4-1.2-6.3-1-11.7l4-53.1c1.2-19.5,6.5-31.2,15.8-34.8c2.7-1,5.1-1.5,7.1-1.5
			c3.7,0,6.1,1.8,7.6,5.7C591.6,551.1,592,554.9,591.7,560.3z"/>
		<path d="M701.9,467.5c1.2,0,2.5-0.2,3.7-0.7c4.4-1.7,7.5-6.2,7.8-11.2c0.2-4.1-1.6-7.5-4.7-9.2c-4.2-2.6-10.1-1-13.4,3.4
			c-2.3,3-3,6.7-2.1,9.8C694.1,464.4,697.5,467.5,701.9,467.5z"/>
		<path d="M910.7,409.3c-3.6-3.6-11.5-2.1-11.8,4.9l-5.6,84.2c-1.4,19-6.8,30.4-16.2,33.9c-7.8,2.9-12.4,1.8-14.7-4.2
			c-0.9-2.4-1.2-6.3-1-11.7l5.8-84.4c0-2.8-1.1-4.5-2.1-5.5c-3.6-3.6-11.5-2.1-11.8,4.9l-5.8,84.2c0,0,0,0,0,0l-0.1,0.5l0,0.1
			c-0.1,0.7-0.1,1.4-0.1,2.1c-1.5,17.3-6.9,27.8-16,31.3c-3,1.2-5.7,1.7-7.9,1.7c-3.8,0-6.2-1.7-7.5-5.3c-0.9-2.4-1.3-6.1-1.1-12
			l5.3-80.7l14.8-5.6c3.5-1.3,5.3-4.2,5.1-8.2c-0.2-5.1-3.6-5.5-4.7-5.5c-0.8,0-1.6,0.2-2.4,0.5l-11.8,4.5l1.9-29.1
			c0-2.8-1.1-4.5-2.1-5.5c-3.6-3.6-11.5-2.1-11.8,4.9l-2.5,35.1l-8.3,3.1c-3.8,1.8-5.6,4.7-5.4,8.9c0.6,4.4,3.6,4.9,4.8,4.9
			c0.8,0,1.7-0.2,2.7-0.6l5.3-2l-5,74.5c-1,7-3.7,14.4-8.1,22.1c-4.3,7.5-10.6,12.9-18.9,16c-9.1,3.5-16.6,2.7-21.3-2.3
			c-4.5-4.8-6.4-13.1-5.7-24l0.8-10.8c4.9,1.1,10.2,0.6,15.6-1.5c18-6.8,26.3-21.9,26.8-48.8c0.4-8.4-1.7-15.4-6.2-20
			c-5.6-5.9-14.4-7.2-24-3.6c-14.2,5.4-22.1,20.4-23.7,44.5l-3.1,39.5c-0.2,4.6,0,8.8,0.5,12.7c-0.2,0.6-0.5,1.2-0.5,1.9l-0.1,0.5
			l0.1,0.1c0,0.2,0,0.4,0,0.7c-1.3,18.1-6.8,29.1-16.2,32.6c-6.7,2.5-10.9,1.2-13.1-4.4c-0.9-2.4-1.3-6.1-1.1-12l5.6-84.3
			c0-2.8-1.1-4.5-2.1-5.5c-3.6-3.6-11.5-2.1-11.8,4.9l-5.5,84c-1,7-3.7,14.4-8.1,22.1c-4.3,7.5-10.6,12.9-18.9,16
			c-9.1,3.5-16.6,2.7-21.3-2.3c-4.5-4.8-6.4-13.1-5.7-24l3-38c1.2-19.8,6-31.1,14.7-34.3c3.9-1.5,6.8-1.4,8.5,0.4
			c1.4,1.4,3,4.8,2.8,12.8c-0.1,2.1-0.2,3.7-0.3,5c0,1.1-0.1,1.8,0,1.8l-0.2,0.8c-0.1,2.7,0.5,4.7,1.8,6c0.7,0.7,2,1.6,4,1.6
			c0.4,0,0.9,0,1.2-0.1c4.8-0.5,7.6-4.1,7.5-9.6l0.2-7.4c0.5-8.4-1.5-15.3-5.9-19.9c-5.6-6-14.6-7.4-24.3-3.7
			c-14.2,5.4-22.2,20.4-23.7,44.5l-3.1,39.5c-0.6,16.3,2.7,28.2,9.6,35.4c4.7,4.9,11,7.4,18.6,7.4c5.2,0,11-1.2,17.2-3.6
			c10.2-3.9,18.5-10.7,24.8-20.3c1.2-1.9,2.3-3.7,3.3-5.6c3.7,4.9,8.6,7.4,14.9,7.4c3.6,0,7.6-0.8,11.9-2.5
			c8.5-3.2,14.8-9.7,18.5-19.2c0.9-2.3,1.7-4.5,2.4-6.7c0.1,0.1,0.2,0.2,0.3,0.4c4.7,4.9,11,7.4,18.6,7.4c5.2,0,11-1.2,17.2-3.6
			c10.2-3.9,18.5-10.7,24.8-20.3c1.3-1.9,2.4-3.8,3.4-5.7c3.7,4.7,8.7,7.1,15.1,7.1c4.1,0,8.8-1,14.1-3c8.5-3.2,14.8-9.7,18.5-19.2
			c0.2-0.4,0.3-0.8,0.5-1.3c6.2,6,15.7,7.3,26.7,3.1c3.3-1.3,6.2-3,8.9-5.4l-0.5,8.4c-2.2,38-7.2,77.9-26.6,85.3
			c-14.9,5.7-26.7,2.1-30.9-9c-3.1-8.3,0-20.2,10.3-25c3.9-1.5,5.1-4.8,4.6-7.5c-0.7-4-4.8-6.5-9.4-4.7c-9.2,3.9-15.1,9.9-17.8,18.3
			c-3.1,8.6-3.3,16.6-0.6,23.8c4.9,12.9,15.6,20.3,29.5,20.3c5.9,0,12.2-1.3,18.9-3.8c28-10.6,33-53.8,36-101l8.6-129.3
			C912.8,412,911.7,410.3,910.7,409.3z M749.2,520.9l1-13.8c1.2-19.8,6-31,14.7-34.3c3.9-1.5,6.8-1.4,8.5,0.4
			c1.4,1.4,3,4.8,2.8,12.9c-0.7,19.2-6,29.3-17.8,33.8c-2.3,0.9-4.5,1.3-6.5,1.3C750.9,521.2,750,521.1,749.2,520.9z"/>
	</g>
</g>
</svg>
